<svg xmlns="http://www.w3.org/2000/svg" viewBox="0 0 75.48 90.64"><defs><style>.cls-1{isolation:isolate;}.cls-2{fill:#768f3b;}.cls-3{fill:#8a5d3b;}.cls-4{fill:#5f4129;}.cls-5{fill:#de3f29;}.cls-6{fill:#ff5644;}.cls-11,.cls-6{opacity:0.5;}.cls-7{fill:#c06d5d;mix-blend-mode:multiply;}.cls-7,.cls-8{opacity:0.7;}.cls-8{fill:#f3cab7;}.cls-11,.cls-8{mix-blend-mode:overlay;}.cls-9{fill:#ffac6d;}.cls-10{fill:#587233;}.cls-11{fill:#8baa45;}</style></defs><title>Asset 6</title><g class="cls-1"><g id="Layer_2" data-name="Layer 2"><g id="_30-Egg" data-name="30-Egg"><path class="cls-2" d="M57.32,13.38a37.62,37.62,0,0,0,.08-6.64c0-.45-.58-6.74-.56-6.74C51.72,3.16,45.47,5.78,41.45,10.41c-4.31,5-2.71,12.85,4.61,13.63C52.92,24.78,56.59,19.68,57.32,13.38Z"/><path class="cls-3" d="M38.51,27.13A36,36,0,0,0,36,14.78a1.08,1.08,0,0,0-1.29-.73,10.89,10.89,0,0,0-4.92,2.53,1,1,0,0,0-.17,1.24c2.93,5,5.79,10.25,6.23,16a25.86,25.86,0,0,0-.16,4.48.83.83,0,0,0,1.63.21C38.69,35.1,38.57,30.75,38.51,27.13Z"/><path class="cls-4" d="M37.36,38.53c1.33-3.43,1.21-7.78,1.15-11.4A36,36,0,0,0,36,14.78a1.08,1.08,0,0,0-1.29-.73,10.89,10.89,0,0,0-4.92,2.53,1,1,0,0,0-.17,1.24c.1.15.19.31.28.46,1.38-1,3.49-2.14,4.75-.65,2,2.35,4,13,.72,13.07h0a21.82,21.82,0,0,1,.48,3.14,25.86,25.86,0,0,0-.16,4.48A.83.83,0,0,0,37.36,38.53Z"/><path class="cls-5" d="M50.77,26.81c-5.23,2.05-9.63,5.34-14.77,5.72-4.38.31-11.66-7.17-22-3.9-26.92,8.51-11.2,63.2,15,62,6.13-.28,8.12-3.09,10.24-4.18,3.44-1.76,5,4.08,15,1.57,25.17-6.3,32-69.24-1.09-61.91A15.49,15.49,0,0,0,50.77,26.81Z"/><path class="cls-6" d="M54.81,57A36,36,0,0,1,64.66,38.4a13.17,13.17,0,0,0-2.58-2.7c-8.7-6.73-22,.54-26.16,12.49-4.26-2.48-9.4-5.66-14.33-5.77C9.68,42.15,3.32,50.82,12.67,61c6-.27,16,.4,22.82,3.85,3.38,1.72,8.69,9.92,11.15,13.27A27.92,27.92,0,0,0,56,73.77,37.45,37.45,0,0,1,54.81,57Z"/><path class="cls-7" d="M53.05,26.1a15.49,15.49,0,0,0-2.28.71l-.36.14c10.93,20.57-5.68,39.38-22.2,42.5C14,72.13,3.32,64.84.05,53.58c.87,17.7,13,37.78,28.9,37,6.13-.28,8.12-3.09,10.24-4.18,3.44-1.76,5,4.08,15,1.57C79.31,81.71,86.1,18.77,53.05,26.1Z"/><path class="cls-8" d="M32.79,45.57C30,38.26,23.62,32.19,16,33.74-4.37,37.88,5.39,68,23.63,67.09c4.51-.22,8.25-4,9.8-8.11C34.92,55,34.53,50.07,32.79,45.57Z"/><path class="cls-9" d="M17.22,37.89A9.62,9.62,0,1,0,18.6,57.08a9.62,9.62,0,0,0-1.38-19.19Z"/><path class="cls-10" d="M46.06,24c6.86.74,10.53-4.36,11.26-10.66a37.62,37.62,0,0,0,.08-6.64c0-.45-.58-6.74-.56-6.74C51.72,3.16,45.47,5.78,41.45,10.41a9.3,9.3,0,0,0-2.31,7.08c0-.06,3-7.88,14.06-13.43,0,0-6,11.92-9.5,19.42A8.87,8.87,0,0,0,46.06,24Z"/><path class="cls-11" d="M54.59,2.5s-15.23,6.82-13.8,14S52.12,17.33,54.59,2.5Z"/></g></g></g></svg>