<svg xmlns="http://www.w3.org/2000/svg" viewBox="0 0 115.13 86.14"><defs><style>.cls-1{isolation:isolate;}.cls-2{fill:#ffce4e;}.cls-3{fill:#f4a81f;}.cls-4{fill:#c78213;}.cls-5{fill:#9d6705;}.cls-6{fill:#f9a11b;}.cls-7{fill:#ee951b;}.cls-19,.cls-8{fill:#c07f12;mix-blend-mode:multiply;}.cls-8{opacity:0.3;}.cls-9{fill:#fcb733;}.cls-10{fill:#4d2916;}.cls-11{fill:#794520;}.cls-12{fill:#391e13;}.cls-13{fill:#dd9018;}.cls-14{fill:#f8e374;}.cls-15{fill:#ba7611;}.cls-16{fill:#a66d09;}.cls-17{fill:#fdbf24;}.cls-18{fill:#cf8915;}.cls-19{opacity:0.5;}.cls-20{fill:#9d6931;}.cls-21{fill:#8f5a2b;}.cls-22{fill:#653815;}.cls-23{fill:#6c3718;}</style></defs><title>Asset 8</title><g class="cls-1"><g id="Layer_2" data-name="Layer 2"><g id="_30-Egg" data-name="30-Egg"><path class="cls-2" d="M98.5,13.12S60.26,32,24,15.52c0,0-8.4,11.22,10.38,22.86S97.45,42.69,98.5,13.12Z"/><path class="cls-3" d="M98.5,13.12a90.88,90.88,0,0,1-13.91,5.07c4.06,4-10.49,10.8-25.85,13.12-20.43,3.09-26.6,1.13-26.6,1.13L30,35.29a43.21,43.21,0,0,0,4.39,3.09C53.19,50,97.45,42.69,98.5,13.12Z"/><path class="cls-4" d="M.5,48.26S4,61,29.88,62.6s47.44-4.33,57.6-13.16S.5,48.26.5,48.26Z"/><path class="cls-5" d="M106.73,8.38l-1.56-.66a25,25,0,0,1-6.38,13.84c-6.14,6.69-9.34,12.93-13.62,17.9S66.35,56.44,32.64,55c0,0-11-.4-12,6.36a67,67,0,0,0,9.29,1.2c25.89,1.63,47.44-4.33,57.6-13.16l.25-.25a33.21,33.21,0,0,0,6.67-7s6.35-8.5,5.48-17.43C99.88,24.77,104.78,13.09,106.73,8.38Z"/><path class="cls-6" d="M3.77,41.41s.66,6.21-1.06,7.5c0,0,3.52,7.47,22.84,11.19S80.78,61.67,94.4,42.2c0,0,6.35-8.5,5.48-17.43,0,0,4.9-11.68,6.85-16.39l-3.64-1.54s-4.65,14.75-13,21.47S53.29,44.17,30.78,41,3.77,41.41,3.77,41.41Z"/><path class="cls-7" d="M92.83,25.73a24.25,24.25,0,0,1-2.7,2.58C87.39,30.52,82.47,33,76.3,35.2,54.38,46.42,28,45.31,28,45.31s7,4.95,24.19,2.59,40.53-13.34,40.14-6.75a10.47,10.47,0,0,0,.3,3.32c.62-.73,1.2-1.48,1.75-2.27,0,0,6.35-8.5,5.48-17.43l.94-2.25A36,36,0,0,0,92.83,25.73Z"/><path class="cls-6" d="M3.77,41.41s.66,6.21-1.06,7.5c0,0,3.52,7.47,22.84,11.19S80.78,61.67,94.4,42.2c0,0,6.35-8.5,5.48-17.43,0,0,4.9-11.68,6.85-16.39l-3.64-1.54s-4.65,14.75-13,21.47S53.29,44.17,30.78,41,3.77,41.41,3.77,41.41Z"/><path class="cls-6" d="M3.77,41.41s.66,6.21-1.06,7.5c0,0,3.52,7.47,22.84,11.19S80.78,61.67,94.4,42.2c0,0,6.35-8.5,5.48-17.43,0,0,4.9-11.68,6.85-16.39l-3.64-1.54s-4.65,14.75-13,21.47S53.29,44.17,30.78,41,3.77,41.41,3.77,41.41Z"/><path class="cls-6" d="M3.77,41.41s.66,6.21-1.06,7.5c0,0,3.52,7.47,22.84,11.19S80.78,61.67,94.4,42.2c0,0,6.35-8.5,5.48-17.43,0,0,4.9-11.68,6.85-16.39l-3.64-1.54s-4.65,14.75-13,21.47S53.29,44.17,30.78,41,3.77,41.41,3.77,41.41Z"/><path class="cls-7" d="M92.83,25.73a24.25,24.25,0,0,1-2.7,2.58C87.39,30.52,82.47,33,76.3,35.2,54.38,46.42,28,45.31,28,45.31s7,4.95,24.19,2.59,36.09-12,40.14-6.75a3,3,0,0,1,.3,3.32c.62-.73,1.2-1.48,1.75-2.27,0,0,6.35-8.5,5.48-17.43l.94-2.25A36,36,0,0,0,92.83,25.73Z"/><path class="cls-4" d="M101,24.27s4.57-10.92,5.76-15.89l-3.64-1.54S98.88,20.17,91.33,27.26c0,1.28,0,2.06,0,2.06S101.54,20.8,97.4,37C98.9,33.72,101.41,28.79,101,24.27Z"/><path class="cls-8" d="M101,24.27s4-9.55,5.76-15.89l-1.56-.66a25,25,0,0,1-6.38,13.84c-6.14,6.69-9.34,12.93-13.62,17.9S66.35,56.44,32.64,55c0,0-8.42-.31-11.23,4.15,1.29.32,2.67.63,4.14.91,16.76,3.24,46,2,62.36-11.06l.64-.52.3-.25.59-.52.31-.28L90.3,47l.31-.3c.18-.17.35-.35.52-.52l.31-.32.5-.54.29-.32.49-.57c.09-.11.18-.21.27-.33s.34-.41.5-.62l.22-.29c.24-.31.47-.62.69-.94C94.4,42.2,101.67,31.29,101,24.27Z"/><path class="cls-2" d="M102.38,3s-3,9.63-9.39,16.73A73.05,73.05,0,0,0,85.76,24C81.55,26.85,61.41,37.51,34,36.19c0,0-27.46-1.48-33,4.7L4,42.56s40.13,6.26,64.41-1.84,28-17.43,28-17.43L103.05,10,104,7.55s3.73,3,4.19-2.5C108.15,5.05,104,5.35,102.38,3Z"/><path class="cls-9" d="M104.64,8.38c.44-2,.7-3.21.7-3.21L101.67,5A50.65,50.65,0,0,1,93,19.73s-.87.43-2.33,1.27h0s7.52,1.43-2.1,10.16h.1c6.4-4.48,7.74-7.88,7.74-7.88l4-6.95,2.14-4.82,1.27-3.79A2.88,2.88,0,0,0,104.64,8.38Z"/><path class="cls-10" d="M3.07,49.49a4,4,0,0,0,1.44-.61A8.25,8.25,0,0,0,5,42.57H3.3Z"/><path class="cls-11" d="M1,40.68a1.1,1.1,0,0,1,.61-.32S3.47,39.9,5,42.57l-1.11.28S2.07,40.65,1,40.68Z"/><path class="cls-10" d="M1,40.68s1.5-.56,3,1.88c0,0,1.23,3.89-1,6.93,0,0-2.25,0-2.85-1.84C.22,47.65-.63,43.7,1,40.68Z"/><path class="cls-12" d="M.81,41.1h0A12.93,12.93,0,0,0,.3,42.58a12.81,12.81,0,0,0-.08,5.07c.6,1.86,2.85,1.84,2.85,1.84,1.92-2.65,1.22-6,1-6.75C3.71,42.91,2.87,43.15.81,41.1Z"/><path class="cls-13" d="M9.09,43.06c1.1.14,2.21.25,3.33.35s2.22.2,3.34.28c2.23.16,4.46.3,6.7.38,4.46.18,8.93.2,13.38.08A136.5,136.5,0,0,0,62.3,41c1.08-.25,2.15-.52,3.22-.81s2.14-.59,3.19-.91c2.12-.66,4.2-1.39,6.24-2.23a64.05,64.05,0,0,0,6-2.78,55.76,55.76,0,0,0,5.64-3.43,45.31,45.31,0,0,0,5.13-4.14,40.18,40.18,0,0,0,4.48-4.83,43.5,43.5,0,0,0,6.52-11.52.32.32,0,0,1,.61.21,40.52,40.52,0,0,1-6,12.19,43.22,43.22,0,0,1-4.44,5.2,47.1,47.1,0,0,1-5.22,4.46,52.65,52.65,0,0,1-5.77,3.68,61.19,61.19,0,0,1-6.16,3q-3.15,1.3-6.41,2.33-1.62.51-3.27,1t-3.3.81c-2.21.51-4.44.94-6.67,1.3-1.12.18-2.24.35-3.36.49s-2.25.28-3.37.39c-2.25.23-4.5.39-6.76.51s-4.51.17-6.77.18-4.51,0-6.76-.13-4.5-.22-6.74-.41-4.48-.41-6.72-.7-4.45-.62-6.67-1a.33.33,0,0,1-.25-.39.31.31,0,0,1,.35-.25Z"/><path class="cls-14" d="M7.82,38.36a74.53,74.53,0,0,1,22-1.54,99,99,0,0,0,24.74-1.11s14.67-2.22,24.6-7.49c0,0,2.95-1.43,1.18.21s-10,7.32-31.86,9S21.72,37.58,13,39C13,39,1.94,40.54,7.82,38.36Z"/><path class="cls-7" d="M93.66,43.21c-30.52,27.36-78.41,13.14-81.53,12-1.23-.46-1.9-.44-2.27-.24A55.26,55.26,0,0,0,25.55,60.1C44.53,63.77,79.53,61.74,93.66,43.21Z"/><path class="cls-10" d="M.9,41,.83,41a7.21,7.21,0,0,0-.3.77,1.61,1.61,0,0,1,1.06.88c-.89.54-.68,2.75.17,3.41s1.22-1.27,1-1.78-.37.21-.37.21c.21.54-.39.89-.7.2S2,42.43,2.88,43.4s-.06,2.92-.32,3.91,0,1.2,0,1.2c1.07.69,1.55-3.51,1-5.37A3.33,3.33,0,0,0,.9,41Z"/><path class="cls-11" d="M3.74,45.7a8.5,8.5,0,0,0-.18-2.56A3.33,3.33,0,0,0,.9,41L.83,41s0,.08,0,.13c.5.13,2.38.7,2.61,2.25A19.32,19.32,0,0,0,3.74,45.7Z"/><path class="cls-11" d="M1.81,42.66s-.95.47-.57,2.15,1.37.51,1.33.26c0,0,0-.26-.17.06s-.59.52-.79,0-.56-1.75.34-2.17C2,42.93,2.39,42.49,1.81,42.66Z"/><path class="cls-11" d="M.3,45.45S.1,48.74,2,48.88c0,0,.58,0-.5-.46S.81,46.84.3,45.45Z"/><path class="cls-15" d="M22.63,57.79a6.53,6.53,0,0,0-1.22,1.4c1.29.32,2.67.63,4.14.91C42.33,63.34,71.63,62.14,88,49l.55-.45.37-.32.51-.44.37-.34.48-.45.38-.36.44-.45.37-.38.43-.46.35-.39.42-.48.34-.41c.2-.24.4-.49.59-.75l.09-.11C71.11,63.43,39.08,60.94,22.63,57.79Z"/><path class="cls-16" d="M22.87,67.33A19,19,0,0,0,34.05,82.49c10.58,4.84,30.22,5.57,45.41-2.12S27.34,67,27.34,67Z"/><path class="cls-17" d="M113.36,8.69s-4.36,7.83-3.52,13.2c0,0,4.63,13.93-2.59,30.42C99.45,70.14,79.77,88.09,49,83.24c0,0-18.65-1.45-24.49-15.48l3.13-3.29s33.28,1.11,42.05-6,22.14-5.62,30.1-25.82,8.34-24.49,8.34-24.49Z"/><path class="cls-3" d="M100.73,63.4a54.51,54.51,0,0,0,6.52-11.09,47,47,0,0,0,3.16-28.17l-8.71,3.53c-.58,1.54-1.23,3.19-1.93,5-8,20.2-21.32,18.7-30.1,25.82-3.94,3.2-12.85,4.74-21.45,5.46L41.66,68.8s11.16,4.65,29.94-.54c19.33-5.33,38.89-29,29.36-5.42Z"/><path class="cls-18" d="M113.06,9.25l-5-.69c-.24,1.29-1.34,6-6.21,18.75L98.45,40.46S103,35.24,107.19,37s.7,22.57-19,38.19h.22a54.21,54.21,0,0,0,18.82-22.86c7.22-16.49,2.59-30.42,2.59-30.42C109.13,17.38,112.1,11.14,113.06,9.25Z"/><path class="cls-2" d="M34.31,58.3s-5.72-.48-7.93,1.44c0,0-3.24,2.32,1.24,4.73,0,0,34,17.82,64.91-17.16,9.08-10.28,13.72-25,13.72-25s-.44-4.92,3.8-13.55c0,0,.11-2.94-4-2.49-1,7.36-2.22,9.76-4.53,13.32C87.36,34.76,85.19,58.18,34.31,58.3Z"/><path class="cls-9" d="M106.18,22.6a51.48,51.48,0,0,1,3.87-13.86,1.62,1.62,0,0,0,0-.33c-1.22,0-2.86.05-4.34.1-.94,5.64-2.13,7.89-4.19,11.06a52.84,52.84,0,0,0-5.56,7,3.45,3.45,0,0,0-.51.75s7.52-1.27,4.91,8.74A65.42,65.42,0,0,0,106.18,22.6Z"/><path class="cls-7" d="M31.89,66.26c1,.29,2.1.53,3.15.74s2.13.4,3.19.55a63.41,63.41,0,0,0,6.44.59,60,60,0,0,0,6.43,0c1.07-.06,2.14-.16,3.2-.29s2.12-.26,3.17-.45a52.9,52.9,0,0,0,6.22-1.44,51.17,51.17,0,0,0,6-2.18,51.56,51.56,0,0,0,10.93-6.44c.85-.65,1.67-1.32,2.48-2l1.18-1.06.3-.27.14-.14,0,0,.07,0,0,0,.07-.06c.2-.17.4-.34.59-.52A62,62,0,0,0,90,48.59a80.12,80.12,0,0,0,7.74-10.21q1.73-2.7,3.23-5.55c1-1.9,1.94-3.83,2.76-5.82a73.51,73.51,0,0,0,4-12.3l.16,0a57.33,57.33,0,0,1-2.91,12.75,64.12,64.12,0,0,1-2.47,6.09,64.77,64.77,0,0,1-3.07,5.83,70.89,70.89,0,0,1-7.72,10.68,60.82,60.82,0,0,1-4.61,4.76l-.64.56-.08.07,0,0s-.07.05,0,0l0,0-.15.14-.3.28L84.59,57c-.84.72-1.7,1.41-2.58,2.08a51.31,51.31,0,0,1-11.5,6.59,51.61,51.61,0,0,1-6.29,2.11,53.17,53.17,0,0,1-6.49,1.28c-1.09.14-2.18.26-3.28.34s-2.2.12-3.3.13a55.45,55.45,0,0,1-6.57-.28,56.56,56.56,0,0,1-6.47-1,43,43,0,0,1-6.28-1.83Z"/><path class="cls-14" d="M30.53,59s3.31.09,14-.27,29.21-3.81,41.14-17.2c0,0,2.13-2.9,1.18-.37a57.21,57.21,0,0,1-25.5,16C42.38,62.73,26.45,59.41,30.53,59Z"/><path class="cls-3" d="M102,61.65a6.74,6.74,0,0,0-2.35,2.21c-7.59,9.87-23.91,14.65-23.91,14.65-35.29,9.75-48-7.17-50.58-11.46l-.68.71C30.33,81.79,49,83.24,49,83.24,74.33,87.23,92.14,75.77,102,61.65Z"/><path class="cls-10" d="M24.11,60.49a2.82,2.82,0,0,1,3.22.86c1.45,1.67-1.07,6.43-2.13,6.51,0,0-3.21.91-2.66-3.78,0,0,.82-.54.66.57s-.09,2.43,1.46,2.45,2-2.15,1.91-2.44S24.7,64,25,65.39c0,0-.36,1.17-.87-.24s.69-2.16,2-1.49,1.16-2.28-.6-2.42S23.32,60.89,24.11,60.49Z"/><path class="cls-11" d="M27.33,61.35a2.82,2.82,0,0,0-3.22-.86c-.34.17-.45.3-.33.41a2.66,2.66,0,0,1,2.56.21c1.53,1,1.2,2.22.65,3.92-.14.44-.13.66,0,.74C27.7,64.25,28.16,62.3,27.33,61.35Z"/><path class="cls-11" d="M25.68,63.67s-1.68-.45-1.51,1.17c0,0,.18.32.43-.58S26.35,64.31,25.68,63.67Z"/><path class="cls-11" d="M22.71,64.23s-.65,3,1.51,3.51c0,0,.81-.07.21-.27s-1.86-.56-1.5-2.9C22.93,64.57,23.07,63.88,22.71,64.23Z"/><path class="cls-19" d="M111.25,13.38c.06-.15.11-.31.17-.46l0-.05.14-.36,0,0c.05-.12.1-.24.14-.36h0l.15-.34,0,0,.13-.31,0-.06c0-.1.08-.19.13-.29h0l.13-.28,0-.07a2.56,2.56,0,0,0,.11-.24l0-.08.09-.18a.54.54,0,0,1,.05-.11.61.61,0,0,1,.07-.14l0-.1.08-.15a.61.61,0,0,0,0-.12l0,0,.11-.23c-.08-.22-.18-.45-.29-.69L110,8.34a2.49,2.49,0,0,0-2.07-2,7.89,7.89,0,0,0,.2-1.27s-3.86.27-5.56-1.78q-.23.21-.45.45c-.12.33-.27.76-.47,1.27a2.33,2.33,0,0,0-.11.28l0,.06-.09.23a.36.36,0,0,1,0,.09c0,.09-.07.19-.11.29l0,.09-.09.22a.61.61,0,0,0,0,.12l-.12.27-.06.14a1.6,1.6,0,0,1-.1.23l-.06.15c0,.08-.07.15-.1.23l-.08.17-.12.28,0,.08c1.17,1.84,6.16,5.46,7.78,5.85A5,5,0,0,0,111.25,13.38Z"/><path class="cls-10" d="M109,11.63,113.49,10a8.11,8.11,0,0,0,1.64-5.2l-5.32-.2Z"/><polygon class="cls-20" points="103.96 0 107.7 0.09 115.13 4.75 110.73 5.23 103.96 0"/><path class="cls-21" d="M111.39,5.16l3.74-.41-.27-.17a15.57,15.57,0,0,0-3.66,0A1.76,1.76,0,0,0,111.39,5.16Z"/><path class="cls-11" d="M104,0s-3.35,1.21-2.65,6c0,0,6.14,5.15,7.65,5.62a47.58,47.58,0,0,1,3-6.54Z"/><path class="cls-22" d="M112.49,5.77c-.73.2-2.35,4.61-2.69,5.54l3.53-1.3C115.54,4.43,113.29,5.57,112.49,5.77Z"/><path class="cls-10" d="M113,6.22c-.91,0-2.17,3.6-2.59,4.88l2.59-1C113.23,9,113.89,6.24,113,6.22Z"/><path class="cls-23" d="M109,11.63a47.58,47.58,0,0,1,3-6.54l-.77-.49c-3.33,6.31-8.55,2.19-10,.92l.06.49S107.45,11.16,109,11.63Z"/></g></g></g></svg>