<svg xmlns="http://www.w3.org/2000/svg" viewBox="0 0 81.07 70.72"><defs><style>.cls-1{fill:#383244;}.cls-2{fill:#473d53;}.cls-3{fill:#51455f;}.cls-4{fill:#3c3347;}.cls-5{fill:#78678d;}</style></defs><title>Asset 22</title><g id="Layer_2" data-name="Layer 2"><g id="_30-Egg" data-name="30-Egg"><path class="cls-1" d="M27.75,14.31S18.22-1.23,14.15.08s.39,11.9.39,11.9S3.37,9,.62,13s7,9.69,7,9.69-8.94,2.32-7.5,6S19.4,34.49,19.4,34.49Z"/><path class="cls-2" d="M59.89,3.75C41.56-4.14,19.66,5.49,13,24.14c-6,17,2.47,36.55,19.19,43.77,17.57,7.59,38.89-.69,46.29-18.77C85.74,31.5,77,11.11,59.89,3.75Z"/><path class="cls-3" d="M31.11,7.73c-11,3.83-18.55,17.72-14.67,24.14,3.54,5.86,16.68,5.62,25.15.34,6.44-4,13.51-13,10.48-19.58C49.17,6.32,38.35,5.22,31.11,7.73Z"/><path class="cls-4" d="M78.9,24.06c-9.68,12.7-28.66,25.09-48,28.89a79.76,79.76,0,0,1-14.29,1.41A34.64,34.64,0,0,0,32.23,67.91c17.57,7.59,38.89-.69,46.29-18.77A34.65,34.65,0,0,0,78.9,24.06Z"/><path class="cls-5" d="M31.39,14.94c-2-1.72-5.23-1-7,.82s-2.3,5.56-.24,7.36,5.22,1,7-.82S33.44,16.75,31.39,14.94Z"/></g></g></svg>