<svg xmlns="http://www.w3.org/2000/svg" xmlns:xlink="http://www.w3.org/1999/xlink" viewBox="0 0 111.66 75.23"><defs><style>.cls-1{fill:#58a037;}.cls-2{fill:#adcc7a;}.cls-3{fill:#f1d7d2;}.cls-4{fill:url(#linear-gradient);}.cls-5{fill:#5a2c27;}.cls-6{fill:#914028;}.cls-7{fill:#ffdad1;}</style><linearGradient id="linear-gradient" x1="-174.52" y1="-1425.1" x2="-174.52" y2="-1340.82" gradientTransform="matrix(0.98, -0.17, 0.17, 0.98, 471.87, 1347.47)" gradientUnits="userSpaceOnUse"><stop offset="0.09" stop-color="#ff877f"/><stop offset="0.77" stop-color="#ea2c28"/><stop offset="1" stop-color="#ea2c28"/></linearGradient></defs><title>Asset 12</title><g id="Layer_2" data-name="Layer 2"><g id="_30-Egg" data-name="30-Egg"><path class="cls-1" d="M0,17.52C2.13,39.22,18.82,82.81,68.14,74.1c48.64-8.6,45-66.54,42-74.1C99.81.44,13.17,14.32,0,17.52Z"/><path class="cls-2" d="M108.14.15c-14.6,1.41-78.81,11.63-101.68,16-.54,3.74,13.28,61.31,62,52.69C114.41,60.72,110.61,4.64,108.14.15Z"/><path class="cls-3" d="M106.2.36c-17.11,1.93-74.26,11-97.7,15.43.51,6.55,16,58.58,58.8,50.46C109.76,58.21,108.45,5.88,106.2.36Z"/><path class="cls-4" d="M12.63,14.67c-1.26.53,12,55.15,53.94,47.22C107.34,54.17,104.11,2,102,.62,98.72-1.38,19.58,11.77,12.63,14.67Z"/><path class="cls-5" d="M37.75,23.42c-1.85-.14-5.33,9.83-.08,9.84C42.55,33.27,39.87,23.57,37.75,23.42Z"/><path class="cls-5" d="M62.85,23c-1.71.66-2.82,10,1.94,9C70,30.86,64.87,22.25,62.85,23Z"/><path class="cls-6" d="M84.33,12.25c-1.94.83-1.63,10.6,3,8.5C91.67,18.8,85.85,11.61,84.33,12.25Z"/><path class="cls-5" d="M52.27,39.68c-1.74.3-4.17,10.47,1,9.91C59.29,48.93,54.62,39.26,52.27,39.68Z"/><path class="cls-5" d="M76.92,35.37c-1,.41-1.57,9.74,2.88,8.24S79.05,34.5,76.92,35.37Z"/><path class="cls-7" d="M20.76,15.94c-.22-2,22-5.77,22.8-4.84C45.2,13,21,18,20.76,15.94Z"/><path class="cls-7" d="M47.39,10.82c-.51-1.63,8.1-3.17,8.4-1.48S48,12.72,47.39,10.82Z"/></g></g></svg>