<svg xmlns="http://www.w3.org/2000/svg" xmlns:xlink="http://www.w3.org/1999/xlink" viewBox="0 0 73.53 158.16"><defs><style>.cls-1{isolation:isolate;}.cls-2{fill:url(#linear-gradient);}.cls-3{fill:#de7f1e;opacity:0.3;mix-blend-mode:multiply;}.cls-4,.cls-6{fill:#d36d1d;}.cls-4{opacity:0.5;}.cls-5{fill:url(#linear-gradient-2);}.cls-6{opacity:0.8;}</style><linearGradient id="linear-gradient" x1="4991.87" y1="-10530.8" x2="4873.6" y2="-10630.4" gradientTransform="translate(8420.96 8198.19) rotate(-70.99)" gradientUnits="userSpaceOnUse"><stop offset="0" stop-color="#ffa915"/><stop offset="1" stop-color="#f17f15"/></linearGradient><linearGradient id="linear-gradient-2" x1="35.7" y1="42.4" x2="29.46" y2="122.95" gradientTransform="translate(-11.57)" gradientUnits="userSpaceOnUse"><stop offset="0" stop-color="#ffc31b"/><stop offset="1" stop-color="#f5a51b"/></linearGradient></defs><title>Asset 20</title><g class="cls-1"><g id="Layer_2" data-name="Layer 2"><g id="_30-Egg" data-name="30-Egg"><path class="cls-2" d="M9.29,157.39C-22.65,145,35.79-10.92,64,.61,95.11,13.35,43.07,170.44,9.29,157.39Z"/><path class="cls-3" d="M53.27,2.8C65.14,27,62.21,59.86,53.22,86,43.8,113.3,25.66,141.58,2.71,150.62c1.5,3.29,3.66,5.64,6.58,6.77C43.07,170.44,95.11,13.35,64,.61,60.74-.71,57.11.19,53.27,2.8Z"/><path class="cls-4" d="M47.07,67c3.08-16.49,2.22-31-2.56-49.42A255.21,255.21,0,0,0,31,42.05C33,48.1,40.51,62,47.07,67Z"/><path class="cls-4" d="M37.92,96.13a104.11,104.11,0,0,0,8-23.65C38.31,66.72,30.42,54.6,28.52,47.29c-3.43,7.35-7,15.8-10.35,25C22.21,81.72,29.58,89.61,37.92,96.13Z"/><path class="cls-4" d="M23.67,119.31a115.9,115.9,0,0,0,11.69-18.74A71.69,71.69,0,0,1,16.29,77.69a243.52,243.52,0,0,0-6.68,23.49A84.58,84.58,0,0,0,23.67,119.31Z"/><path class="cls-4" d="M8.32,107.11a178.1,178.1,0,0,0-3.56,31.61,105.75,105.75,0,0,0,16.3-16.16A93.22,93.22,0,0,1,8.32,107.11Z"/><path class="cls-5" d="M18.17,72.3c3.33-9.21,6.92-17.66,10.35-25,1.33,5.14,5.63,12.64,10.71,18.65.33-2.2.63-4.45.86-6.76A77.12,77.12,0,0,1,31,42.05c3.31-6.77,6.36-12.37,8.71-16.5-.25-2.22-.54-4.46-.89-6.75C18.69,48.73-1.42,107,.09,137.81a59.57,59.57,0,0,0,4.85-4,182.46,182.46,0,0,1,3.38-26.7,90.64,90.64,0,0,0,9.52,12.12c.82-1.11,1.63-2.26,2.45-3.47A80.81,80.81,0,0,1,9.61,101.18a243.52,243.52,0,0,1,6.68-23.49A73.48,73.48,0,0,0,30.67,96.54c.67-1.59,1.33-3.22,1.95-4.9C26.53,86.07,21.33,79.66,18.17,72.3Z"/><path class="cls-6" d="M8.32,107.11a178.1,178.1,0,0,0-3.56,31.61s2.6-10.88,7-26.79C10.54,110.35,9.39,108.75,8.32,107.11Z"/><path class="cls-6" d="M16.29,77.69a243.52,243.52,0,0,0-6.68,23.49c1.08,1.92,2.27,3.8,3.54,5.63,2-7.06,4.25-14.89,6.75-23.07C18.6,81.77,17.39,79.75,16.29,77.69Z"/><path class="cls-6" d="M28.52,47.29c-3.43,7.35-7,15.8-10.35,25a46.25,46.25,0,0,0,3.33,6.3c2.72-8.7,5.69-17.67,8.83-26.45A30.61,30.61,0,0,1,28.52,47.29Z"/><path class="cls-6" d="M31,42.05A40.48,40.48,0,0,0,32.59,46c3.79-10.18,7.8-19.91,11.92-28.39A255.21,255.21,0,0,0,31,42.05Z"/></g></g></g></svg>