<svg xmlns="http://www.w3.org/2000/svg" viewBox="0 0 115.69 98.5"><defs><style>.cls-1{fill:#64260f;}.cls-2{fill:#914020;}.cls-3{fill:#f6e1b6;}.cls-4{fill:#dead7a;}.cls-5{fill:#80a23e;}.cls-6{fill:#708f39;}.cls-7{fill:#9fcb3b;}</style></defs><title>Asset 5</title><g id="Layer_2" data-name="Layer 2"><g id="_30-Egg" data-name="30-Egg"><path class="cls-1" d="M.14,46.24s.91,5.25,2.25,12.26C3.3,63.23,9,70.34,10.14,75.6c1,4.43-2.52,7.09-1.52,10.5,1.06,3.64,2.08,6.33,3,7.3,4.11,4.58,89.17,7.33,93.29,2.75.91-1,1.94-4,3-7.9.84-3.19-4-8.09-3.18-12.14,1.21-6,8-11.41,8.92-16.69,1.09-6.56,1.79-11.35,1.79-11.35Z"/><path class="cls-2" d="M.14,46.24C-3.76,44.66,73.31,0,78.34,0s41,45.52,37,48.07S20.79,54.61.14,46.24Z"/><path class="cls-3" d="M107.93,88c2.09-8,4.24-20,5.69-28.72C79.27,66.75,19.27,62,2.44,58.76c1.68,8.7,4,20,6.2,27.4C57.86,89.43,90.86,88,107.93,88Z"/><path class="cls-4" d="M112.64,65c.35-2,.68-3.94,1-5.73C78.42,65,19.84,61.9,2.44,58.76c.38,2,.8,4.06,1.23,6.21C16.63,66.16,57.29,69.06,112.64,65Z"/><path class="cls-4" d="M7.28,81.15c.46,1.8.91,3.49,1.36,5C59.15,92.36,92.33,90,107.93,88c.41-1.58.82-3.32,1.24-5.15C94.08,84.33,48.29,88,7.28,81.15Z"/><path class="cls-4" d="M11,68.29a1.8,1.8,0,0,0,0,3.6A1.8,1.8,0,0,0,11,68.29Z"/><path class="cls-4" d="M26.83,78.42a1.44,1.44,0,0,0,0,2.88A1.44,1.44,0,0,0,26.83,78.42Z"/><path class="cls-4" d="M105.05,71.61a1.44,1.44,0,0,0,0,2.88A1.44,1.44,0,0,0,105.05,71.61Z"/><path class="cls-4" d="M13.07,74.55a1.44,1.44,0,0,0,0,2.88A1.44,1.44,0,0,0,13.07,74.55Z"/><path class="cls-4" d="M19,69.54c-2.79,0-2.79,4.32,0,4.32S21.76,69.54,19,69.54Z"/><path class="cls-4" d="M102,76.35c-2.78,0-2.78,4.32,0,4.32S104.77,76.35,102,76.35Z"/><path class="cls-5" d="M63.5,29.51S61.9,12.38,42.87,12.17l.76,4.37a29.11,29.11,0,0,0-18.27,5.21s7.94,6.3,15.29,8.14L36,33.19S52.53,42.14,63.5,29.51Z"/><path class="cls-6" d="M61.37,28.92s-5-12.6,12.32-20.48l1.25,5S78.62,8,92.81,7.62a100.69,100.69,0,0,1-6.5,12.83l5,1S82.92,39.56,61.37,28.92Z"/><path class="cls-5" d="M63.14,27.29c-3.25.34-6,7-3.31,12.64l2.49-1.87s3.1,6.22,8.27,8.7l-1.24-9.94,4.14.62S73.07,26.25,63.14,27.29Z"/><path class="cls-7" d="M53.58,29.48c1.28-3.83-8.46-12.64-21.38-6.69,0,0,6.53,5.05,12.47,6.39l-3.86,3.27S51.35,36.17,53.58,29.48Z"/></g></g></svg>