<svg xmlns="http://www.w3.org/2000/svg" xmlns:xlink="http://www.w3.org/1999/xlink" viewBox="0 0 146.26 77.49"><defs><style>.cls-1{isolation:isolate;}.cls-2{fill:#669a45;}.cls-10,.cls-3,.cls-7{fill:#bf5025;}.cls-3{opacity:0.3;}.cls-3,.cls-7,.cls-9{mix-blend-mode:multiply;}.cls-4{fill:#66bb45;}.cls-5{fill:#f47e20;}.cls-6{fill:url(#linear-gradient);}.cls-7{opacity:0.2;}.cls-8{fill:#fbdce5;mix-blend-mode:overlay;}.cls-8,.cls-9{opacity:0.5;}</style><linearGradient id="linear-gradient" x1="12755.54" y1="-6262.04" x2="12778.03" y2="-6253.6" gradientTransform="matrix(-0.6, 0.8, 0.8, 0.6, 12754.29, -6415.18)" gradientUnits="userSpaceOnUse"><stop offset="0" stop-color="#ffb620"/><stop offset="1" stop-color="#f47e20"/></linearGradient></defs><title>Asset 10</title><g class="cls-1"><g id="Layer_2" data-name="Layer 2"><g id="_30-Egg" data-name="30-Egg"><path class="cls-2" d="M52.68,24.75S14.43-5,13.14.72c-1.26,5.53,20.15,19.9,18.6,22.74-2.2,4-29.41-1.92-31.68,2.4-1.9,3.62,45.4,13.47,45.4,13.47Z"/><path class="cls-3" d="M52.68,24.75s-3.23-2.5-7.83-5.91a29,29,0,0,0-10.67,18c6.48,1.48,11.28,2.48,11.28,2.48Z"/><path class="cls-4" d="M26.32,28.89C27,27.73,7.57,25.6,7.45,26.3,7.09,28.48,25.09,31,26.32,28.89Z"/><path class="cls-4" d="M18.05,4.6c.31.81,17.71,15.78,18.86,14S16.64.88,18.05,4.6Z"/><path class="cls-5" d="M146.09,75.81c4.43-7.89-81.89-59.08-90.57-59.07-10.07,0-24,24-13.25,32.75C50.88,56.52,141.18,84.57,146.09,75.81Z"/><path class="cls-6" d="M123.09,62.24c1.21-4-64-40.73-68.43-40-5.88,1-11.42,9.82-9,15.19C49.3,45.26,121.4,67.73,123.09,62.24Z"/><path class="cls-7" d="M131.23,60.38C133.9,63,141,70.52,136.76,71.57c-7,1.77-43.75-8.09-67.87-17.82C47.6,45.15,39.16,41,41.73,28.6c-3.9,7.35-5.14,16.26.54,20.89,8.61,7,98.91,35.08,103.82,26.32C147.37,73.53,141.05,67.62,131.23,60.38Z"/><path class="cls-8" d="M102,51c1.54-1.18-43.21-25.61-45.37-24.77C50.61,28.59,99.21,53.17,102,51Z"/><g class="cls-9"><path class="cls-10" d="M131.35,66.62A8.39,8.39,0,0,1,130,69.14a1.32,1.32,0,0,1-1.84.26,1.35,1.35,0,0,1-.26-1.84,20.4,20.4,0,0,0,1-1.89,1.3,1.3,0,1,1,2.43,1Z"/></g><g class="cls-9"><path class="cls-10" d="M118.45,63.87c0,1.09-.14,2.94-1.36,3.34a1,1,0,0,1-1.3-.53c-.48-1,.34-2.16.75-3s1.86-.85,1.91.22Z"/></g><g class="cls-9"><path class="cls-10" d="M54,31.68c-.4,1-.95,3.42-2.48,2.82s-.19-2.76.31-3.67a1.17,1.17,0,1,1,2.17.85Z"/></g><g class="cls-9"><path class="cls-10" d="M59.84,44.08a10.67,10.67,0,0,1-1.35,2.31,1.29,1.29,0,0,1-2.06-.84,4.86,4.86,0,0,1,1.38-3,1.27,1.27,0,0,1,2,1.53Z"/></g><g class="cls-9"><path class="cls-10" d="M86.66,49.52c-.07,1.34-.46,3-1.8,3.65a1.25,1.25,0,0,1-1.71-1.28A4.89,4.89,0,0,1,84.67,49c.89-.73,2.06-.73,2,.49Z"/></g><g class="cls-9"><path class="cls-10" d="M71.9,52.71c-.22,1.16-.47,3-1.89,3.3a1.1,1.1,0,0,1-1-.42c-.84-1.25.36-2.61,1.07-3.62a1,1,0,0,1,1.85.74Z"/></g></g></g></g></svg>