<svg xmlns="http://www.w3.org/2000/svg" xmlns:xlink="http://www.w3.org/1999/xlink" viewBox="0 0 133.4 116.59"><defs><style>.cls-1{isolation:isolate;}.cls-2{fill:#669a45;}.cls-10,.cls-3,.cls-7{fill:#bf5025;}.cls-3{opacity:0.3;}.cls-3,.cls-7,.cls-9{mix-blend-mode:multiply;}.cls-4{fill:#66bb45;}.cls-5{fill:#f47e20;}.cls-6{fill:url(#linear-gradient);}.cls-7{opacity:0.2;}.cls-8{fill:#fbdce5;mix-blend-mode:overlay;}.cls-8,.cls-9{opacity:0.5;}</style><linearGradient id="linear-gradient" x1="12755.66" y1="-6244.95" x2="12779.37" y2="-6236.06" gradientTransform="matrix(-0.8, 0.6, 0.6, 0.8, 14047.63, -2572.71)" gradientUnits="userSpaceOnUse"><stop offset="0" stop-color="#ffb620"/><stop offset="1" stop-color="#f47e20"/></linearGradient></defs><title>Asset 19</title><g class="cls-1"><g id="Layer_2" data-name="Layer 2"><g id="_30-Egg" data-name="30-Egg"><path class="cls-2" d="M53.67,36.53S23.84-4.88,20.84.48,35.31,26.59,32.89,29C29.47,32.43,3.72,18.31.14,22-2.85,25.1,42,49.12,42,49.12Z"/><path class="cls-3" d="M53.67,36.53S51.16,33,47.52,28.22a30.63,30.63,0,0,0-16.15,15C37.49,46.68,42,49.12,42,49.12Z"/><path class="cls-4" d="M25.79,32.87c1-1-18-8.89-18.3-8.22C6.47,26.75,23.93,34.64,25.79,32.87Z"/><path class="cls-4" d="M24.65,5.86c.07.91,13.22,21.22,14.93,19.71S24.34,1.68,24.65,5.86Z"/><path class="cls-5" d="M132.94,115.91c6.82-6.67-65.23-84.07-74-86.64-10.18-3-31.36,17.15-23.13,29.17C42.42,68.11,125.38,123.31,132.94,115.91Z"/><path class="cls-6" d="M113.72,95.35c2.4-3.63-52.63-60.21-57.3-60.76C50.18,33.84,42,41.12,42.85,47.27,44.16,56.25,110.38,100.4,113.72,95.35Z"/><path class="cls-7" d="M122.5,95.89c1.92,3.49,6.82,13.14,2.26,13-7.6-.3-41.82-21.18-63.31-38.19-19-15-26.26-21.76-20-33.5-6.14,6.27-10,14.91-5.67,21.28,6.62,9.67,89.58,64.87,97.14,57.47C134.91,114,130.28,106.13,122.5,95.89Z"/><path class="cls-8" d="M95.77,77.73C97.67,77,59.69,39,57.26,39.21,50.45,39.79,92.28,79.09,95.77,77.73Z"/><g class="cls-9"><path class="cls-10" d="M120.76,102.24a8.54,8.54,0,0,1-2.1,2.14,1.38,1.38,0,1,1-1.66-2.21,22.38,22.38,0,0,0,1.59-1.62,1.4,1.4,0,0,1,1.93-.24,1.38,1.38,0,0,1,.24,1.93Z"/></g><g class="cls-9"><path class="cls-10" d="M108.54,95.63c-.26,1.1-1,2.92-2.36,3a1.07,1.07,0,0,1-1.16-.93c-.19-1.11,1-2.08,1.66-2.84s2.13-.3,1.86.8Z"/></g><g class="cls-9"><path class="cls-10" d="M52.93,43.91c-.7.88-2,3.18-3.34,2.12s.62-2.84,1.4-3.62a1.27,1.27,0,0,1,1.72-.22,1.24,1.24,0,0,1,.22,1.72Z"/></g><g class="cls-9"><path class="cls-10" d="M55.18,58.19c-.73.63-1.18,1.5-2.06,1.94a1.36,1.36,0,0,1-1.83-1.46A5.09,5.09,0,0,1,53.57,56a1.34,1.34,0,0,1,1.61,2.15Z"/></g><g class="cls-9"><path class="cls-10" d="M80.67,71.67C80.2,73,79.3,74.6,77.76,74.81A1.31,1.31,0,0,1,76.42,73a5.15,5.15,0,0,1,2.39-2.44c1.12-.48,2.3-.13,1.86,1.09Z"/></g><g class="cls-9"><path class="cls-10" d="M64.8,70.51c-.57,1.11-1.38,2.94-2.89,2.76a1.13,1.13,0,0,1-.92-.72C60.51,71,62.14,70,63.15,69.21c.82-.65,2.16.32,1.65,1.3Z"/></g></g></g></g></svg>