<svg xmlns="http://www.w3.org/2000/svg" xmlns:xlink="http://www.w3.org/1999/xlink" viewBox="0 0 98.87 98.01"><defs><style>.cls-1{isolation:isolate;}.cls-2{fill:#345729;}.cls-3{fill:#55813b;}.cls-4{fill:#5c8d3f;}.cls-5{fill:#9fc261;}.cls-6{fill:#d6e3ba;}.cls-7{fill:url(#linear-gradient);}.cls-8,.cls-9{fill:#806943;mix-blend-mode:multiply;}.cls-8{opacity:0.2;}.cls-9{opacity:0.1;}.cls-10,.cls-13{fill:#d0e4a8;}.cls-10,.cls-12{opacity:0.5;}.cls-10,.cls-13,.cls-14{mix-blend-mode:overlay;}.cls-11,.cls-12{fill:#3c5d2c;}.cls-13{opacity:0.3;}.cls-14{fill:#dce19b;}</style><linearGradient id="linear-gradient" x1="13754.87" y1="4845.55" x2="13858.97" y2="4845.55" gradientTransform="translate(14670.52 568.93) rotate(162.7)" gradientUnits="userSpaceOnUse"><stop offset="0" stop-color="#9dc14f"/><stop offset="0.26" stop-color="#9abe4e"/><stop offset="0.46" stop-color="#90b64c"/><stop offset="0.64" stop-color="#80a948"/><stop offset="0.81" stop-color="#699643"/><stop offset="0.94" stop-color="#51823d"/></linearGradient></defs><title>Asset 9</title><g class="cls-1"><g id="Layer_2" data-name="Layer 2"><g id="_30-Egg" data-name="30-Egg"><path class="cls-2" d="M35.78,52.45c6.71,11.93,22.81,21.42,31.87,12.44,6.14-6.08,3.81-15.48.37-22.41-3.29-6.63-7.8-12.79-15.43-14.23C45.82,27,38,29.14,34.41,35.44,31.52,40.49,32.58,46.75,35.78,52.45Z"/><path class="cls-3" d="M67,44.94a16.29,16.29,0,0,0,2.81,7.57c3.36,4.51,9.12,6.39,14.6,6.32,7.19-.11,14.07-6.62,14.25-12.46,1.11-4.85-1.51-10-5.08-13.9-3.78-4.14-9.39-4.38-14.47-3.48-4.42.79-8.19,4.32-10.61,7.87A12,12,0,0,0,67,44.94Z"/><path class="cls-3" d="M38.58,94.5A13,13,0,0,0,40.91,94c6.42-1.94,12.16-8.33,10.64-15.46C50.14,72,43.21,67.43,36.83,67.1c-7.22-.39-12.72,6.71-12.74,13.38C24.07,88.84,30.88,95.34,38.58,94.5Z"/><path class="cls-4" d="M67.9,38.17s5,14.36,11.31,22.12-3.56,9.6-3.56,9.6L61.26,79.32,31,67.19s-2-18.47,3.66-20.6c0,0,21.21,21,23.87,16.44S45.35,41.31,45.2,40.82,54,34.91,54,34.91,64.7,54,67.5,52.8s-5.84-15.34-5.84-15.34Z"/><path class="cls-5" d="M96.62,79.49s-18.89-17.36-14-41.74L73.1,34.43s.65,1.45,1.1,9.21c.51,9,4.19,23.6-3.08,18.36A101,101,0,0,1,49.45,39.64l-6.27,6S64.41,66.59,62.82,70.53s-27.55-7.07-27.55-7.07L31.35,80s27.72-1.83,43.93,17.26Z"/><path class="cls-2" d="M48.3,29.21c7.39,4,19.75,2.61,23.64-5.73a14.9,14.9,0,0,0,.62-1.59,4.9,4.9,0,0,0,1-2.08c5.24-25-34.82-26.95-33-2.22A14.49,14.49,0,0,0,48.3,29.21Z"/><path class="cls-2" d="M13.09,56c6,2.33,12.12,2.18,17.06-2.33,4.57-4.19,4.47-12.26,3.26-17.82-2.33-10.72-17.11-13.63-25-7.12A15.52,15.52,0,0,0,3,45.37C4.29,50.07,8.63,54.29,13.09,56Z"/><path class="cls-6" d="M75.28,97.28c-1.69-2,1.72-7.66,7.6-12.57s12.05-7.25,13.74-5.22S94.91,87.15,89,92.06,77,99.31,75.28,97.28Z"/><path class="cls-7" d="M2.3,79.68c2.09,5.32,5.5,10,9.87,12.59,5.21,3.13,10.56,3.24,15.64-.9C31.6,88.29,36,80,33.31,75.06,44.22,77.51,49.48,62.64,45.1,54.88c7.78,4.49,21.35-2.29,17.44-12.32,13.89,7,35-7.74,29.76-23.66C88.71,8,74.72,3.14,68.94,15.4c-8.16-9.89-25.49-6.72-25,7.8-2.78-4.52-13-7.32-22.32,1-6.24,5.52-5.38,14.65-.09,22.33C20.6,43.84,8,47.43,2.94,55.92-1,62.47-.78,71.82,2.3,79.68Z"/><path class="cls-8" d="M12.17,92.27c5.21,3.13,10.56,3.24,15.64-.9C31.6,88.29,36,80,33.31,75.06,32.82,84.32,22.13,92.59,18.49,90s.33-12,.33-12S4.44,74,10.94,60.71,33,55.1,33,55.1s-11.46-8.61-2.16-20,20.3.87,20.3.87-2.9-15.37,4.64-19.28,16.18,6.77,16.18,6.77C77.79,8.81,86.33,11.73,89,13.11,83.39,6.72,73.55,5.62,68.94,15.4c-8.16-9.89-25.49-6.72-25,7.8-2.78-4.52-13-7.32-22.32,1-6.15,5.43-5.4,14.38-.32,22-1.95-1.93-13.56,1.72-18.35,9.78C-1,62.47-.78,71.82,2.3,79.68,4.39,85,7.8,89.64,12.17,92.27Z"/><path class="cls-9" d="M43.93,23.2c-2.78-4.52-13-7.32-22.32,1-6.15,5.43-5.4,14.38-.32,22-1.95-1.93-13.56,1.72-18.35,9.78C-1,62.47-.78,71.82,2.3,79.68c2.09,5.32,5.5,10,9.87,12.59,5.21,3.13,10.56,3.24,15.64-.9C31.6,88.29,36,80,33.31,75.06,44.22,77.51,49.48,62.64,45.1,54.88c7.78,4.49,21.35-2.29,17.44-12.32,0,0-2.75,8.66-11.27,10-6,.93-12.54-6.1-7.19-14,0,0-15.64,12.07-21.4-2.41S40.7,20.12,43.93,23.2Z"/><path class="cls-10" d="M77.73,36.83c7.34,2,15-9.39,11.34-15.56C82.94,11,63,32.74,77.73,36.83Z"/><path class="cls-10" d="M36,71c1.5.38,3.19.23,5.14-1.83,3-3.14,2.39-9.7-2.31-10.79C30.39,56.46,30,69.5,36,71Z"/><path class="cls-11" d="M9.64,83.2l.38.19a2.76,2.76,0,0,0,2.56-4.89l-.37-.2a2.77,2.77,0,1,0-2.57,4.9Z"/><path class="cls-11" d="M16.94,73.28l.13.15a1.76,1.76,0,0,0,2.9-.91l0-.19C20.43,68.54,14.43,70.41,16.94,73.28Z"/><path class="cls-11" d="M6.64,74a1.56,1.56,0,0,0-.93-3A1.56,1.56,0,0,0,6.64,74Z"/><path class="cls-12" d="M26.32,32.8a2.57,2.57,0,0,0,2,.17A2.61,2.61,0,0,0,30,31.1c0-.08,0-.15.05-.23l.06-.65a2.54,2.54,0,0,0-.4-1.28,1.6,1.6,0,0,0-.54-.61h0l-.13-.1,0,0a2.08,2.08,0,0,0-.78-.37,1.9,1.9,0,0,0-.63-.06,2.54,2.54,0,0,0-1.31.39,2.78,2.78,0,0,0-.94,1l-.11.15a2.58,2.58,0,0,0,1.09,3.48Z"/><path class="cls-12" d="M36.37,27.82a1.56,1.56,0,0,0-.92-3A1.56,1.56,0,0,0,36.37,27.82Z"/><path class="cls-12" d="M61.65,25.58a2.42,2.42,0,0,0,.84-.44,2.43,2.43,0,0,0,1-1,2.68,2.68,0,0,0-1.12-3.62A2.46,2.46,0,0,0,61,20.21a2.75,2.75,0,1,0,.69,5.37Z"/><path class="cls-12" d="M66.33,28.21l.14.25a1.39,1.39,0,0,0,2.55-.8l0-.27a1.46,1.46,0,0,0-.47-1,1.43,1.43,0,0,0-2.25.39A1.47,1.47,0,0,0,66.33,28.21Z"/><path class="cls-12" d="M50.8,48.9a2.51,2.51,0,0,0,3.92.33,2.76,2.76,0,0,0,.6-1.18,2.23,2.23,0,0,0-.19-1.66,3.06,3.06,0,0,0-.29-.53,2.36,2.36,0,0,0-2.58-1.12,2.83,2.83,0,0,0-1.5,1.39,1.76,1.76,0,0,0-.29.8A2.6,2.6,0,0,0,50.8,48.9Z"/><path class="cls-13" d="M84.77,49.79a4.91,4.91,0,0,0,2.4,2.53,4.54,4.54,0,0,0,2.23.51c3.72-.12,5.44-3.23,6.23-6.42a5.13,5.13,0,0,0-7.78-5.48C85.45,43,83.6,46.88,84.77,49.79Z"/><path class="cls-14" d="M88.15,90.16c2.55-.71,4.76-3.2,6-5.46,1-1.76,1.69-4.31-1.29-3.89S82.6,84.93,84.69,88.9A3.21,3.21,0,0,0,88.15,90.16Z"/></g></g></g></svg>