<svg xmlns="http://www.w3.org/2000/svg" xmlns:xlink="http://www.w3.org/1999/xlink" viewBox="0 0 98.98 96.26"><defs><style>.cls-1{isolation:isolate;}.cls-2{fill:url(#linear-gradient);}.cls-3{fill:url(#linear-gradient-2);}.cls-4{fill:url(#linear-gradient-3);}.cls-5{fill:url(#linear-gradient-4);}.cls-6{fill:url(#linear-gradient-5);}.cls-7{fill:#a32048;}.cls-7,.cls-8{opacity:0.2;}.cls-12,.cls-7,.cls-8,.cls-9{mix-blend-mode:multiply;}.cls-8{fill:#de5841;}.cls-12,.cls-9{fill:#d25841;}.cls-9{opacity:0.3;}.cls-10{fill:url(#linear-gradient-6);}.cls-11{fill:#ff955a;}.cls-11,.cls-12{opacity:0.5;}</style><linearGradient id="linear-gradient" x1="52.53" y1="18.4" x2="89.53" y2="78.81" gradientUnits="userSpaceOnUse"><stop offset="0" stop-color="#ffdc38"/><stop offset="0.56" stop-color="#ffc932"/><stop offset="1" stop-color="#ffc02f"/></linearGradient><linearGradient id="linear-gradient-2" x1="66.42" y1="43.71" x2="56.21" y2="45.13" gradientUnits="userSpaceOnUse"><stop offset="0" stop-color="#ffd738"/><stop offset="1" stop-color="#f27e27"/></linearGradient><linearGradient id="linear-gradient-3" x1="96.21" y1="27.72" x2="76" y2="29.31" xlink:href="#linear-gradient-2"/><linearGradient id="linear-gradient-4" x1="-120.36" y1="-1799.39" x2="-133.15" y2="-1797.06" gradientTransform="translate(675.77 1748.89) rotate(-15.47)" xlink:href="#linear-gradient-2"/><linearGradient id="linear-gradient-5" x1="63.83" y1="69.02" x2="51.62" y2="70.54" xlink:href="#linear-gradient-2"/><linearGradient id="linear-gradient-6" x1="47.43" y1="17.84" x2="55.33" y2="74.67" gradientUnits="userSpaceOnUse"><stop offset="0" stop-color="#e1402e"/><stop offset="1" stop-color="#eb261c"/></linearGradient></defs><title>Asset 14</title><g class="cls-1"><g id="Layer_2" data-name="Layer 2"><g id="_30-Egg" data-name="30-Egg"><path class="cls-2" d="M43.57,95.68C52.89,102,96.84,54.22,98.38,51.52S98,.28,98,.28L35.2,35S37.59,91.62,43.57,95.68Z"/><path class="cls-3" d="M61.52,40.37c-3.38,0-5.35,4.59-3,7a3.78,3.78,0,0,0,5.31,0C66.21,45,65.27,40.37,61.52,40.37Z"/><path class="cls-4" d="M92.65,23.06c-6.74-6.73-17.09,4.09-10.44,10.74a7.09,7.09,0,0,0,5,2.07C93.57,35.87,97.25,27.67,92.65,23.06Z"/><path class="cls-5" d="M77.48,45.89c-4.1-4-11,1.1-8.58,6.21C72.27,59.25,83.41,51.65,77.48,45.89Z"/><path class="cls-6" d="M61.48,68.3a5,5,0,0,0-8.58-1.85,5.09,5.09,0,0,0,4.94,8.49A5.25,5.25,0,0,0,61.48,68.3Z"/><path class="cls-7" d="M60.07,47.48c-2.3-2.3-.59-6.58,2.51-7a4,4,0,0,0-1.06-.15c-3.38,0-5.35,4.59-3,7a3.77,3.77,0,0,0,3.11,1.06A3.73,3.73,0,0,1,60.07,47.48Z"/><path class="cls-7" d="M54.4,66.68A5.35,5.35,0,0,1,58.16,65a5.05,5.05,0,0,0-5.26,1.5,5.1,5.1,0,0,0,3.57,8.68A5.11,5.11,0,0,1,54.4,66.68Z"/><path class="cls-7" d="M72.16,54.58a6.33,6.33,0,0,1-1.34-5.78,5.88,5.88,0,0,1,4.06-4.1l.4-.07c-3.92-1-8.4,3.2-6.38,7.47A4.65,4.65,0,0,0,72.5,55,4,4,0,0,1,72.16,54.58Z"/><path class="cls-7" d="M85,23.26a7.94,7.94,0,0,1,4.59-2.07c-6.29-1.81-13,6.92-7.36,12.61a7.09,7.09,0,0,0,3.84,2A8.07,8.07,0,0,1,85,23.26Z"/><path class="cls-8" d="M50.53,88.41c-3.19-1.6-4.35-34.48.27-43.44,4-7.66,37.72-32.23,47.4-39.18C98.08,2.41,98,.28,98,.28L36.1,34.46c-.21,1.69-.43,3.5-.66,5.4.74,13.85,3.23,52.49,8.13,55.82C52.89,102,96.84,54.22,98.38,51.52,98.73,50.92,55.56,90.92,50.53,88.41Z"/><path class="cls-9" d="M98.38,51.52C99.92,48.82,98,.28,98,.28l-38,21C52.27,28,46.63,35.1,46.9,41.63c0,0,14,19,26,36.26C85.63,66.16,97.59,52.9,98.38,51.52Z"/><path class="cls-10" d="M98,.28C96.88-2.51,4.77,16.08,2.07,23S-1,63.85,2.84,73.86c3,7.69,41.72,23.19,41.61,22C43,79.81,42.52,54.6,46,43.43,49.18,33.17,99.54,4.14,98,.28Z"/><path class="cls-11" d="M9.67,23.06C8,27.22,41,38.1,45.54,36.41c1.59-.6-28.69-11.52-23.51-13.69C34.57,17.46,91.94,3,88,3.51,69,5.34,11.67,18,9.67,23.06Z"/><path class="cls-12" d="M32.82,77.32c-3.32,2.12-20-1.14-31.28-8.56a29.25,29.25,0,0,0,1.3,5.1c3,7.69,41.72,23.19,41.61,22-1.4-15.36-1.89-39.17,1.14-50.95C36.13,41.63,37.06,74.62,32.82,77.32Z"/><path class="cls-11" d="M5.44,59.13c-2.5-1.67-3.15-27.37.32-28.52s30.05,9.87,31.49,13c.94,2.05-19.67-3.89-24.29-1C6.26,46.84,7.18,60.28,5.44,59.13Z"/><path class="cls-12" d="M94.81,4.18c-13.19,3.62-65.19,17.68-66,19.6-1.15,2.87,19,11.18,22.7,12.7C62.51,26.33,86.19,11.45,94.81,4.18Z"/></g></g></g></svg>