<svg xmlns="http://www.w3.org/2000/svg" viewBox="0 0 107.99 90.54"><defs><style>.cls-1{fill:#7a3f31;}.cls-2{fill:#632f24;}.cls-3{fill:#8b4837;}.cls-4{fill:#9c513c;}.cls-5{fill:#863f32;}.cls-6{fill:#803d2c;}.cls-7{fill:#6d2f22;}.cls-8{fill:#572d1e;}</style></defs><title>Asset 17</title><g id="Layer_2" data-name="Layer 2"><g id="_30-Egg" data-name="30-Egg"><path class="cls-1" d="M1.73,33.18Q.87,42.57,0,52L46.69,90.54,108,51.05l-1-18L46.46,72.38Z"/><polygon class="cls-2" points="106.97 33.02 107.99 51.05 46.69 90.54 46.46 72.38 106.97 33.02"/><path class="cls-3" d="M1.73,33.18A60.13,60.13,0,0,0,23,62.29,58.68,58.68,0,0,0,46.46,72.38Z"/><polygon class="cls-4" points="1.73 33.18 46.46 72.38 106.97 33.02 60.4 0 1.73 33.18"/><path class="cls-5" d="M83,16a25,25,0,0,1,5.83,16.42c-.27,10.9-7.89,17.41-9.06,18.38L107,33Z"/><path class="cls-6" d="M68,36.33c-1.5-.19-1.68-6,.38-6.2C70.24,29.94,69.49,36.52,68,36.33Z"/><path class="cls-6" d="M74.18,26c-1.84.41-2.25,13.52-.18,13.71S75.87,25.62,74.18,26Z"/><path class="cls-6" d="M80.51,22.72c-2.06.21-1.68,16.15-.18,16.15S82.39,22.53,80.51,22.72Z"/><path class="cls-6" d="M85.3,22.72c-1.68.19-.65,13.67.85,13.47C88.43,35.89,87,22.53,85.3,22.72Z"/><path class="cls-7" d="M93.13,27.35c-1.49.17-1.31,8.08.19,8.27S94.82,27.17,93.13,27.35Z"/><path class="cls-8" d="M32,16.11,77.74,53.55l2-2.72L34.93,14.41Z"/><path class="cls-8" d="M21.53,50.83,24.33,53,83.18,15.88l-3.18-2Z"/><path class="cls-8" d="M21.53,50.83l.11,6.92c.9-1.59,1.8-3.17,2.69-4.76Z"/><path class="cls-5" d="M21.53,50.83c2.09-1.66,11.84-7.24,13.4-20a24.47,24.47,0,0,0-3-14.69L51.21,31.86Z"/><path class="cls-5" d="M60.4,0a20.79,20.79,0,0,1,4.19,13.16c-.43,10.32-8.87,16-9.78,16.62L80,13.84Z"/><path class="cls-5" d="M54.09,34.21A29.33,29.33,0,0,1,58.7,50.54c-.4,13.25-10.93,20.92-12.24,21.84L76.72,52.76C69.14,46.74,61.66,40.22,54.09,34.21Z"/><path class="cls-6" d="M13.94,35.36c-.21-2.53.21-5.28.69-5.3s1,2.62,1.12,4.62c.16,2.31-.08,5.11-.56,5.15S14.11,37.45,13.94,35.36Z"/><path class="cls-6" d="M20.44,26.12c-1.94.24-1.31,18.22.94,18.22S21.94,25.93,20.44,26.12Z"/><path class="cls-6" d="M26.45,22.36c-2.44,0-1.7,19.36.17,19.55S27.76,22.36,26.45,22.36Z"/><path class="cls-6" d="M31.57,21.76c-1.7-.11-1,13.46.34,13.47C33.71,35.23,34.29,22,31.57,21.76Z"/><path class="cls-7" d="M39.2,26.12c-1.87.15-.94,9.58.19,9.76S41.45,25.93,39.2,26.12Z"/><path class="cls-6" d="M37,59.52c-1.13.21-2.06-8.33,0-8.74S38.09,59.31,37,59.52Z"/><path class="cls-6" d="M42.21,47.86c-2,.62-1.12,16.66.38,17.07S44.28,47.24,42.21,47.86Z"/><path class="cls-6" d="M48,43.49c-2.09.23-1.13,21.86,0,21.86S49.9,43.28,48,43.49Z"/><path class="cls-6" d="M54.38,39.83c-2.65.53-1.73,17.92,0,17.92C56.64,57.75,56.44,39.41,54.38,39.83Z"/><path class="cls-7" d="M61.51,44.21c-1.9.21-.95,12.18.38,12.18C63.8,56.4,63.39,44,61.51,44.21Z"/><path class="cls-6" d="M44.82,16.85c-1.31-.19-1.31-5.26.38-5.45C46.7,11.23,46.14,17,44.82,16.85Z"/><path class="cls-6" d="M50.64,9C49,9.33,49,20.42,50.26,20.79S52.33,8.58,50.64,9Z"/><path class="cls-6" d="M56.45,6.14c-1.88,0-1.86,18.37.19,18.6C58.33,24.92,58.14,6.14,56.45,6.14Z"/><path class="cls-6" d="M61.89,6.5c-2-.54-1.81,12.11-.3,12.11C63.84,18.61,64,7.07,61.89,6.5Z"/><path class="cls-7" d="M68.55,9.63c-2.25,0-1.4,8,.11,8S70.61,9.62,68.55,9.63Z"/></g></g></svg>