<svg xmlns="http://www.w3.org/2000/svg" xmlns:xlink="http://www.w3.org/1999/xlink" viewBox="0 0 121.79 119.52"><defs><style>.cls-1{isolation:isolate;}.cls-2{fill:#d97227;}.cls-3{fill:url(#linear-gradient);}.cls-4{fill:url(#linear-gradient-2);}.cls-5{fill:#fff;opacity:0.1;mix-blend-mode:overlay;}.cls-6{fill:#fef;}.cls-7{fill:#ffe8e9;}.cls-8{fill:#ffe800;}.cls-9{fill:#d8faeb;}.cls-10{fill:#94edb2;}.cls-11{fill:#ff2c42;}</style><linearGradient id="linear-gradient" x1="103.86" y1="80.55" x2="-27.64" y2="17.04" gradientUnits="userSpaceOnUse"><stop offset="0" stop-color="#ff6c7a"/><stop offset="0.21" stop-color="#ff7281"/><stop offset="0.51" stop-color="#ff8394"/><stop offset="0.87" stop-color="#ff9fb4"/><stop offset="1" stop-color="#ffaac1"/></linearGradient><linearGradient id="linear-gradient-2" x1="9.04" y1="29.77" x2="106.68" y2="83.62" gradientUnits="userSpaceOnUse"><stop offset="0" stop-color="#ffc4d8"/><stop offset="0.01" stop-color="#ffc3d7"/><stop offset="0.46" stop-color="#ff94a5"/><stop offset="0.81" stop-color="#ff7786"/><stop offset="1" stop-color="#ff6c7a"/></linearGradient></defs><title>Asset 16</title><g class="cls-1"><g id="Layer_2" data-name="Layer 2"><g id="_30-Egg" data-name="30-Egg"><path class="cls-2" d="M116,51.26c-4-26.64-28.55-47.59-56.72-47.06C30.46,4.74,6.32,27.55,4.08,55.31c-2.58,32,23.08,60.47,57.66,60.47C101.58,115.78,120.82,83.09,116,51.26ZM61.28,72.61A14.39,14.39,0,0,1,47.48,61c-1.39-8.14,6-15.83,14.54-15.83S77.26,50.2,77,59.91C76.79,66.71,71.15,72.93,61.28,72.61Z"/><path class="cls-3" d="M118.15,36.92C110.05,14.48,89.79-1.72,58.7.15,25.94,2.12.94,27.28,0,57.81-.51,76.17,5.92,93.18,11.1,93.18c4.57,0,3.89-5.92,8.26-5.92,7.94,0,6.33,27.75,16.44,28.36,7.71.47,7.65-7.53,12.07-10s6.86,1.24,8.42,5.76c2.2,6.39,4.67,8.11,8.1,8.11,5,0,7-5,9.82-11.69s5.19-9.35,7.48-9.35c3.25,0,3.58,4,7.48,4,3.5,0,4.83-5.14,5.61-8.16,2.18,6.13,5.31,9.1,8.1,9.1C112,103.47,129.35,67.93,118.15,36.92ZM62.37,76.68C47.84,76.68,41.89,63.1,42.87,53a7.23,7.23,0,0,0,5.9,3.75c4.45,0,6.29-5,8.16-9.39,1.48-3.46,2.72-6.06,6.42-6.06,3.46,0,5.07,2.72,5.94,5.56,2.11,6.94,3.4,16.48,12.16,16C79.44,69.45,74,76.68,62.37,76.68Z"/><path class="cls-4" d="M113,52C110.58,26.83,89.79,4.82,61.43,5.13,34.14,5.43,10.75,24.6,6.58,49.39a51.53,51.53,0,0,0,4.34,30.72,60.36,60.36,0,0,0,5.4,8.65,3.69,3.69,0,0,1,3-1.5c3.65,0,5.28,5.87,7,12.27h0a54.5,54.5,0,0,0,18.33,9.64,9.38,9.38,0,0,1,3.22-3.52c4.48-2.48,6.82,1.18,8.38,5.65a52.72,52.72,0,0,0,5.49.11,54.36,54.36,0,0,0,11.65-1.64l.82-1.94c2.8-6.68,5.19-9.35,7.48-9.35,3.25,0,3.58,4,7.48,4,3.5,0,4.83-5.14,5.61-8.16a25.56,25.56,0,0,0,1.54,3.53h0C109.25,86.91,114.74,69.93,113,52ZM60.39,84.12C35.14,84.12,31,57.6,40.8,42.05c1.44,3.89,3.71,9.21,7,9.21,5.94,0,9.41-21.69,15.39-21.66,4.34,0,5.72,5.26,9.35,15.89,2.33,6.87,4.93,15.59,17,10.27C87.05,75.61,75.68,84.12,60.39,84.12Z"/><path class="cls-5" d="M67.11,85.42c26.68-6.9,46.47-25.06,52.11-45.22-.32-1.1-.67-2.19-1.06-3.28C110.05,14.48,89.79-1.72,58.7.15,25.94,2.12.94,27.28,0,57.81A76.58,76.58,0,0,0,1,72.5C16,86.41,41.27,92.11,67.11,85.42ZM42.87,53a7.23,7.23,0,0,0,5.9,3.75c4.45,0,6.29-5,8.16-9.39,1.48-3.46,2.72-6.06,6.42-6.06,3.46,0,5.07,2.72,5.94,5.56,2.11,6.94,3.4,16.48,12.16,16-2,6.63-7.46,13.86-19.08,13.86C47.84,76.68,41.89,63.1,42.87,53Z"/><path class="cls-6" d="M5.77,57c-3.58.67-3.2,15.66,2.34,16.33C12,73.8,9.36,56.33,5.77,57Z"/><path class="cls-6" d="M7.39,47.11C5.28,45.94,7.2,35.88,12,28.86c5.21-7.58,13-12.66,14.54-11C27.7,19.1,21.72,26,16.88,33.56,12.44,40.49,9.13,48.08,7.39,47.11Z"/><path class="cls-7" d="M66.35,89.4c.76-2.85,11.1-.33,10.45,2.77C76.24,94.83,65.62,92.17,66.35,89.4Z"/><path class="cls-8" d="M29.49,69c0-2.94,10.64-3.16,10.81,0C40.44,71.76,29.49,71.91,29.49,69Z"/><path class="cls-9" d="M47.89,93.07c1.09,2.74-8.71,6.87-10,4C36.72,94.6,46.83,90.41,47.89,93.07Z"/><path class="cls-9" d="M88.27,49.83c0-2.95,10.63-3.17,10.8,0C99.21,52.54,88.27,52.69,88.27,49.83Z"/><path class="cls-10" d="M46.1,26C49,25.72,50.17,36.3,47,36.74,44.34,37.11,43.25,26.22,46.1,26Z"/><path class="cls-11" d="M29.69,25.09c-1.15-2.71,8.55-7.08,9.94-4.23C40.83,23.3,30.81,27.73,29.69,25.09Z"/><path class="cls-11" d="M98.17,60.34c0-3,10.64-3.17,10.81,0C109.12,63.05,98.17,63.21,98.17,60.34Z"/><path class="cls-11" d="M60.5,97.17c2.47-1.61,7.11,5.52,4.55,7.39C62.86,106.16,58.1,98.74,60.5,97.17Z"/><path class="cls-8" d="M90.68,30.93c2.75,1.06-2.19,12.78-5,11.28C82.62,40.55,88,29.9,90.68,30.93Z"/><path class="cls-8" d="M32.75,34c-1.75-2.38,3.86-6.77,5.87-4.32C40.34,31.73,34.44,36.26,32.75,34Z"/><path class="cls-7" d="M103.73,74.9c2.77,1-.67,11.08-3.7,10.15C97.43,84.25,101,73.92,103.73,74.9Z"/><path class="cls-7" d="M56.76,10.19c1.66-2.44,7.68,1.37,6,4.09C61.4,16.6,55.16,12.56,56.76,10.19Z"/><path class="cls-9" d="M20,39.44c2.14-2,7.2,3,5,5.28C23.16,46.7,17.93,41.42,20,39.44Z"/><path class="cls-11" d="M70.86,23.14c1-2.77,7.77-.53,6.84,2.5C76.9,28.24,69.87,25.83,70.86,23.14Z"/><path class="cls-10" d="M17.42,60.21c-1.82-2.32,6.41-9.06,8.5-6.68C27.71,55.58,19.19,62.46,17.42,60.21Z"/><path class="cls-10" d="M86.59,22.05c-1-2.77,5.57-5.45,6.83-2.55C94.5,22,87.59,24.73,86.59,22.05Z"/><path class="cls-10" d="M100,38c2.34-1.79,5.48,2.27,3.07,4.33C101,44.11,97.74,39.76,100,38Z"/><path class="cls-9" d="M26.17,79.29C29,80,27.83,85,24.72,84.4,22.05,83.89,23.39,78.61,26.17,79.29Z"/><path class="cls-11" d="M17.51,69.26c2.34-1.79,5.48,2.28,3.07,4.33C18.52,75.36,15.24,71,17.51,69.26Z"/><path class="cls-8" d="M94.06,64.53c2.92.43,2.19,5.51-1,5.22C90.39,69.49,91.23,64.11,94.06,64.53Z"/></g></g></g></svg>