<svg xmlns="http://www.w3.org/2000/svg" xmlns:xlink="http://www.w3.org/1999/xlink" viewBox="0 0 127.91 109.17"><defs><style>.cls-1{isolation:isolate;}.cls-2{fill:#c9ceaf;}.cls-12,.cls-2{mix-blend-mode:overlay;}.cls-3{fill:#6a4260;}.cls-4{fill:#472143;}.cls-10,.cls-14,.cls-4{opacity:0.3;}.cls-10,.cls-14,.cls-4,.cls-5,.cls-7{mix-blend-mode:multiply;}.cls-5{fill:#351434;opacity:0.4;}.cls-6{fill:url(#linear-gradient);}.cls-10,.cls-7{fill:#99a579;}.cls-7{opacity:0.7;}.cls-8{fill:url(#linear-gradient-2);}.cls-9{fill:url(#linear-gradient-3);}.cls-11{fill:url(#linear-gradient-4);}.cls-12{fill:#fff;opacity:0.5;}.cls-13{fill:#66933f;}.cls-14{fill:#4c5b2f;}</style><linearGradient id="linear-gradient" x1="10.05" y1="79.44" x2="15.59" y2="64.5" gradientUnits="userSpaceOnUse"><stop offset="0" stop-color="#acb939"/><stop offset="1" stop-color="#dce19b"/></linearGradient><linearGradient id="linear-gradient-2" x1="37.46" y1="89.62" x2="43.01" y2="74.68" xlink:href="#linear-gradient"/><linearGradient id="linear-gradient-3" x1="31.99" y1="94.04" x2="18.82" y2="54.96" xlink:href="#linear-gradient"/><linearGradient id="linear-gradient-4" x1="5510.93" y1="-3885" x2="5511.25" y2="-3885" gradientTransform="matrix(29.23, 80.39, 80.39, -29.23, 151288.98, -556609.95)" gradientUnits="userSpaceOnUse"><stop offset="0" stop-color="#956a8b"/><stop offset="1" stop-color="#6a4260"/></linearGradient></defs><title>Asset 11</title><g class="cls-1"><g id="Layer_2" data-name="Layer 2"><g id="_30-Egg" data-name="30-Egg"><path class="cls-2" d="M9.94,86C5.37,79.67,2.06,72.23,6.11,56.75c0,0-11.78,23.91,2.57,31.42A17.16,17.16,0,0,1,9.94,86Z"/><path class="cls-3" d="M15,82.42S2.88,78.63,5.6,65,20.77,39.35,37.88,24.57,76.93-3.52,102.45.84C132,5.9,139.79,51,104.39,60,73.83,67.69,56.55,75.91,45.28,87.18Z"/><path class="cls-4" d="M103.3,1c17.8,5.51,20.85,32.27-8.43,37.06A127.51,127.51,0,0,0,44.81,57.35c-2.55-6.06-5.8-8.7-5.8-8.7C28.65,49.82,18.08,59,18.08,59c-1.13-2.13-4.55-6.22-6-8.09a21.16,21.16,0,0,0-5,9A82.21,82.21,0,0,0,5.49,71.85C7.11,80,15,82.42,15,82.42l30.32,4.76.74-.72a67.44,67.44,0,0,1,11.91-9l-.08,0C68.67,70.81,83.39,65.27,104.39,60,139.45,51.1,132.15,6.78,103.3,1Z"/><path class="cls-5" d="M42.87,79A28.15,28.15,0,0,0,32.79,55.21L18.84,68.33C16.08,61.84,8.9,57.69,8.9,57.69l5.32,24.45a6.67,6.67,0,0,0,.74.28l29.95,4.71.62-.19.49-.48a68.47,68.47,0,0,1,8.62-6.93C50.39,77.31,42.87,79,42.87,79Z"/><path class="cls-6" d="M19,92S-13.66,94.07,6.65,52.6C6.65,52.6,25.8,82.65,19,92Z"/><path class="cls-7" d="M13,87a16.77,16.77,0,0,1-.55,4.3A24.4,24.4,0,0,0,19,92c3.84-5.29-.68-17.27-5.3-26.63C11.73,67.93,5.8,77.7,13,87Z"/><path class="cls-8" d="M23.52,90.2s17.69-10.89,30.92-9.33C54.44,80.87,31.29,108.87,23.52,90.2Z"/><path class="cls-7" d="M40.81,82.52A81.9,81.9,0,0,0,24,89.91l-.38.55c1.75,4,4.24,5.79,7.05,6.1A18.67,18.67,0,0,1,31,91.89,22.07,22.07,0,0,0,40.81,82.52Z"/><path class="cls-9" d="M14.47,85.83s-12.25-19,18-31.41c0,0,15.56,23.34-2.33,35.39C30.13,89.81,19.53,98.66,14.47,85.83Z"/><path class="cls-10" d="M32.41,54.44c-.71,5.18-4.4,28.7-13.13,28.7-4.28,0,.53,4.91,7.69,8.6a15.43,15.43,0,0,0,3.16-1.93c17.89-12,2.33-35.39,2.33-35.39Z"/><path class="cls-11" d="M85.91,4.65c-11,0-23.47,6-32.4,11.82C47.28,20.53,33.66,33,35.12,38.94c2.51,10.22,20.12,4.1,26.33,2.34C97.5,31,104,26.66,106.07,24.28S111.9,4.91,86.18,4.65Z"/><path class="cls-5" d="M57.18,74.2S75.3,63.44,103,57.21s22.09-31.14,22.09-31.14-1.7-4.82-4.53,3.68-2,16.42-21.8,22.36S46.13,71.65,57.18,74.2Z"/><path class="cls-12" d="M47.47,26.56s18.88-19.83,43.74-19c5.81.19,11.88,3,10.5,6.08-.72,1.59-6.08.82-15.74,2.21-10.67,1.52-23.21,6.07-34,12.7C52,28.55,43.79,31.7,47.47,26.56Z"/><path class="cls-2" d="M14.74,81.32S7.35,66.08,30.15,56.89c0,0-14.91,8.77-11.56,22.73A9.86,9.86,0,0,0,14.74,81.32Z"/><path class="cls-13" d="M32.27,106.54a18.19,18.19,0,0,1-3.9-9.75,21.59,21.59,0,0,1-.05-6.42,5.61,5.61,0,0,0-1-4.7c-2.72-3.85-10.25-4.73-12.74-.06a1.71,1.71,0,0,0-.11.22c0,.16,0,.32,0,.48a5.89,5.89,0,0,0,0,1C15.35,98.2,25,109.17,25,109.17Z"/><path class="cls-14" d="M32.27,106.54a18.19,18.19,0,0,1-3.9-9.75,21.59,21.59,0,0,1-.05-6.42,5.61,5.61,0,0,0-1-4.7c-2.72-3.85-10.25-4.73-12.74-.06a1.71,1.71,0,0,0-.11.22c0,.16,0,.32,0,.48a5.89,5.89,0,0,0,0,1c0,.46.09.91.16,1.37,1.15-1.31,3.23-3.23,5.68-3.34,4.95-.2,1,8.08,9.64,22Z"/></g></g></g></svg>