<svg xmlns="http://www.w3.org/2000/svg" xmlns:xlink="http://www.w3.org/1999/xlink" viewBox="0 0 109.35 82.45"><defs><style>.cls-1{fill:url(#radial-gradient);}.cls-2{fill:#594d69;}.cls-3{fill:#937ead;}.cls-4{fill:#78678d;}.cls-5{fill:#554964;}.cls-6{fill:#665d7f;}.cls-7{fill:#8ec726;}.cls-8{opacity:0.5;}.cls-9{fill:#629738;}</style><radialGradient id="radial-gradient" cx="-99.82" cy="2195.39" r="51.32" gradientTransform="matrix(0.91, 0.46, -0.47, 0.94, 1164.73, -1976.35)" gradientUnits="userSpaceOnUse"><stop offset="0" stop-color="#473d53"/><stop offset="1" stop-color="#383244"/></radialGradient></defs><title>Asset 7</title><g id="Layer_2" data-name="Layer 2"><g id="_30-Egg" data-name="30-Egg"><path class="cls-1" d="M43.85,82.13a9.26,9.26,0,0,1-5.49-4.33,7.13,7.13,0,0,1-7.51.76,7.62,7.62,0,0,1-3.91-5.4c0-.07,0-.13,0-.2l-.2-.1a6.78,6.78,0,0,1-5.94.46c-1.13-.54-4.83-4.19-3.26-8.49C8.41,66.77,5.79,58.43,6.9,55.06-.6,53-1.79,42.36,2.38,38,1,36.36.32,32.61,1.06,30c1.57-5.64,6-7.07,9.79-6.53.05-.06-1.8-7.73,3.31-12.31A16.8,16.8,0,0,1,28.92,7.36C31.74-1,42.34.86,44.08,6,45.37,2,50.15-.57,54.25.11a11.32,11.32,0,0,1,8.32,7.27,10.33,10.33,0,0,1,9.62.89c3.5,2.33,5.43,7.68,3.53,11.64.16.26,6.37.11,7.75,6.81.93,4.47-.59,8.8-3.77,11,1.24.15,5.72,4.3,4.43,11.43-.81,4.51-3.33,7-7,8.15,2.18,3.11,2.68,7,.08,10.15A9.79,9.79,0,0,1,67,70.46c-.46,4.7-1.31,7.61-6.07,8.67a13.75,13.75,0,0,1-7.44-.55C51.7,81.61,48,83.16,43.85,82.13Z"/><path class="cls-2" d="M40.1,42c.46.58,5.57-5.92,5.89-6.62,1.32-2.9,1.64-7.83-.6-10.38a6.9,6.9,0,0,0-2.91-2.15c-.31-.11-3.11-.84-3.23-.48.86-2.66,2.42-7,.75-9.66-1.34-2.13-4.81-1.92-6.88-1.12-.53.2-5.54,2.85-5.12,3.48a7.44,7.44,0,0,0-6-3.28c-4.21-.07-6.76,3.16-7.31,7-.07.46,0,7.22.64,7.09-1.06.24-7.37-.34-9.93,4.58s2,10.41,2,10.41-5,3.53-2,9c2.15,4,9.07,1.29,9.07,1.29s.43,6.85,6.74,7S28.5,50.4,28.5,50.4c1.73,3.3,7.42,4.77,10.59,2.31A7.54,7.54,0,0,0,40.1,42Z"/><path class="cls-3" d="M10.7,37.43A2.83,2.83,0,0,1,9.16,36c-1.59-2.92,1.31-8.49,5.7-6C18.6,32.24,15,38.88,10.7,37.43Z"/><path class="cls-4" d="M21.12,25.64a2.81,2.81,0,0,1-1.54-1.4,4,4,0,0,1,5.89-5.12C29.22,21.28,25.37,27.09,21.12,25.64Z"/><path class="cls-4" d="M21.28,40.77a2.84,2.84,0,0,1-1.54-1.41c-1.6-2.92.79-8.55,5.17-6C28.65,35.52,25.52,42.22,21.28,40.77Z"/><path class="cls-5" d="M34.51,65a2.89,2.89,0,0,1-1.91.85c-3.28.3-6.69-4.57-2.54-7.57C33.6,55.69,37.64,61.66,34.51,65Z"/><path class="cls-6" d="M23.41,53.34a2.88,2.88,0,0,1-1.92.86c-3.31.3-6.21-5.24-2.56-7.64S26.56,50,23.41,53.34Z"/><path class="cls-6" d="M36.22,49.4a2.93,2.93,0,0,1-1.93.86c-3.3.3-6.74-4.6-2.56-7.64C35.31,40,39.37,46.06,36.22,49.4Z"/><path class="cls-5" d="M48.42,8.83A2.71,2.71,0,0,1,48,6.93c.4-3.08,6.65-6.19,8.49-1.85C58.1,8.78,50.74,12.27,48.42,8.83Z"/><path class="cls-6" d="M7.87,48a2.27,2.27,0,0,1-.48-1.61c.09-2.7,4.28-5.25,6.23-1.66C15.29,47.8,10.17,50.78,7.87,48Z"/><path class="cls-5" d="M52.34,49.92a4.65,4.65,0,0,0,4.46-4.69,4.42,4.42,0,0,0-4.19-4.76,4.64,4.64,0,0,0-4.45,4.68A4.43,4.43,0,0,0,52.34,49.92Z"/><path class="cls-7" d="M83.78,35.93s5-6.39-2.17-26.12c0,0-9.8,8.9-6.45,21.34,0,0-4.36-11-18.94-8.06,0,0-.26,12.83,17.06,17.29,0,0-15.81,5.24-11.26,19.76,0,0,12-2.61,16-10.81,0,0,0,15.36,19.25,14.48A37.8,37.8,0,0,0,83.71,41s15.14,2.87,25.64-16.12l-6.45-6.52S97.55,37.79,83.78,35.93Z"/><g class="cls-8"><path class="cls-9" d="M73.28,40.38l-.25.09Z"/><path class="cls-9" d="M83.71,41s15.14,2.87,25.64-16.12L106.46,22c-3.35,7.44-10.72,18.2-25,16.94C59.75,37,56.22,23.09,56.22,23.09S56,35.92,73.28,40.38c0,0,2.15,10.48-11.26,19.76,0,0,12-2.61,16-10.81,0,0,0,15.36,19.25,14.48A37.8,37.8,0,0,0,83.71,41Z"/></g></g></g></svg>