<svg xmlns="http://www.w3.org/2000/svg" xmlns:xlink="http://www.w3.org/1999/xlink" viewBox="0 0 67.23 126.03"><defs><style>.cls-1{fill:none;}.cls-2{clip-path:url(#clip-path);}.cls-3{fill:#2c1e37;}.cls-4{fill:#24182c;}.cls-5{fill:#312442;}.cls-6{fill:#403056;}.cls-7{fill:#4c3e5f;}.cls-8{fill:#748a00;}.cls-9{fill:#789111;}.cls-10{fill:#6c8315;}.cls-11{fill:#849f14;}.cls-12{fill:#c2874d;}.cls-13{fill:#865203;}</style><clipPath id="clip-path" transform="translate(-42.24 -14.15)"><rect class="cls-1" width="157" height="157"/></clipPath></defs><title>Asset 21</title><g id="Layer_2" data-name="Layer 2"><g id="_30-Egg" data-name="30-Egg"><g class="cls-2"><g class="cls-2"><path class="cls-3" d="M63.87,138.91c-.6-.08-.72-.14-.78-.43s-.1-.24-.57-.4a9.77,9.77,0,0,1-3.34-1.89,5.64,5.64,0,0,0-1-.66,3,3,0,0,1-1-.81c-.22-.24-.64-.7-1-1a2.85,2.85,0,0,1-1-1.86,3.21,3.21,0,0,0-.16-.76,1,1,0,0,1,0-.74.83.83,0,0,0-.12-.79,6.37,6.37,0,0,1-.49-2.49,6.55,6.55,0,0,1,.23-2.4,9.82,9.82,0,0,1,1.18-3.34,7.18,7.18,0,0,1,2.5-3.06,12.69,12.69,0,0,1,4.3-1.91c1.43-.34,1.69-.38,2-.2s.36.14.94.12c.4,0,1.25.06,1.89.14a6.24,6.24,0,0,1,3.91,1.79c.22.2.54.44.7.56a3.43,3.43,0,0,1,.65.59,4.56,4.56,0,0,0,1.12,1,1.92,1.92,0,0,1,.69,1.15,2.16,2.16,0,0,0,.56,1,3.66,3.66,0,0,1,1,1.93c.1.52.12.68,0,.88s-.08.39.14,1.15a7.55,7.55,0,0,1-.08,4.47,14.3,14.3,0,0,1-2,3.88c-1.73,2.42-3.3,3.5-5.63,3.87a5,5,0,0,1-1.27.08,1.66,1.66,0,0,0-.58,0,4.69,4.69,0,0,1-.87.08l-1,.06a5.14,5.14,0,0,1-.77,0m24.91-4.51c-.3-.08-.76-.22-1-.32s-.67-.2-.89-.26a8,8,0,0,1-2.37-1.15c-.26-.2-.73-.46-1-.62a7.58,7.58,0,0,1-3-2.68l-.88-1.25a9.32,9.32,0,0,1-1.47-3,7.51,7.51,0,0,1-.36-3.92,16.19,16.19,0,0,1,1.63-5,6.53,6.53,0,0,1,.88-1.45c.2-.2.45-.5.57-.64a12.44,12.44,0,0,1,2.47-2.42c.4-.26.85-.58,1-.7a2.18,2.18,0,0,1,1.14-.55l.87-.2a23.08,23.08,0,0,1,2.33-.44,9.34,9.34,0,0,1,3.39-.08c.42.06,1.08.16,1.48.2a14.87,14.87,0,0,1,2.68.48,11.68,11.68,0,0,1,3.42,2.36,3.76,3.76,0,0,0,.67.62,10,10,0,0,1,2.39,2.48,5.34,5.34,0,0,1,.62,1.1,6.79,6.79,0,0,0,.45,1.27c.24.58.58,1.35.72,1.71a5,5,0,0,1,.28.75c0,.2-.18.08-.48-.35-.2-.26-.36-.44-.38-.42a5.25,5.25,0,0,0,.06.95,9,9,0,0,1-.42,4.26,12.47,12.47,0,0,1-1.11,2.92,13.71,13.71,0,0,1-4.81,4.69,8.7,8.7,0,0,0-.89.46,7.13,7.13,0,0,1-3.36,1,13.39,13.39,0,0,1-4.67.2M72.32,114.88l-.8-.22a8.87,8.87,0,0,0-1.07-.26,4.69,4.69,0,0,1-1.06-.38,6.7,6.7,0,0,0-1.65-.63,5.61,5.61,0,0,1-2.86-1.71,15.93,15.93,0,0,1-3.14-4.89,27.78,27.78,0,0,1-1.13-4,23.63,23.63,0,0,1,.08-4.55c.14-1.89.16-1.85-.7-2.25a17.63,17.63,0,0,1-2.54-1.61c-.34-.29-.9-.71-1.22-1a9.15,9.15,0,0,1-3.1-3.7c-.1-.3-.39-.91-.59-1.33a11.64,11.64,0,0,1-1.34-7.26A9.24,9.24,0,0,1,52.72,76a11.16,11.16,0,0,1,4.05-3.52c.2-.08.66-.24,1-.38s1-.42,1.57-.62A6,6,0,0,1,60.89,71a5.4,5.4,0,0,0,1.37-.42,2.28,2.28,0,0,1,2.34,0,2.86,2.86,0,0,0,1.37.38,10,10,0,0,1,2.59.57c.81.32,1,.3,1.17-.19.18-.34.2-.52.22-1.44a4.29,4.29,0,0,1,.44-2.26,7.36,7.36,0,0,1,1.77-1.1,9,9,0,0,0,1.61-.85,16.68,16.68,0,0,1,2.62-1.25.66.66,0,0,1,.32.1c.14.1.16.24.16,1.41s0,1.29.14,1.41.18.5-.08.93a2.92,2.92,0,0,1-1.06,1.22,11.83,11.83,0,0,0-1.33,1.17,25.24,25.24,0,0,1-2.22,2c-.26.18-.12.37.81,1l.82.58.85-.84a44,44,0,0,0,3.48-4.07,9.36,9.36,0,0,1,1.07-1.24c.36,0,.46.1.46.5a2.25,2.25,0,0,0,.16.66,6.72,6.72,0,0,1,.28,1.53c.06.63.18,1.69.28,2.36s.17,1.51.17,1.89a7.56,7.56,0,0,0,.16,1.45,26.65,26.65,0,0,1,.4,3.8,5.33,5.33,0,0,1,0,1.77,1.36,1.36,0,0,0-.1.46c0,.35-.12.41-1,.37a6.86,6.86,0,0,1-.92-.09c-.16-.06-.18,0-.22.41s-.31,2.29-.53,3.62a12.75,12.75,0,0,0-.3,2.58c0,.32,0,.32.89.76a8.48,8.48,0,0,1,2.25,1.63,5.32,5.32,0,0,1,.74,1.51,9.49,9.49,0,0,1,0,3c-.24,1.29-.52,3.56-.6,4.75a12.87,12.87,0,0,1-.54,3.5c-.14.5-.35,1.19-.43,1.53a13.49,13.49,0,0,1-2,4.42,17.28,17.28,0,0,1-2,2.7,23.7,23.7,0,0,1-1.79,1.65,6.74,6.74,0,0,1-2.4,0m6.64-1c-.38-.22-.38-.6,0-.92a4.94,4.94,0,0,0,.65-.73,26.07,26.07,0,0,0,2-3.36,8,8,0,0,1,1-2.59,1.67,1.67,0,0,0,.48-1c.08-.72.34-1,.64-.78a.7.7,0,0,1,.14.52,3.82,3.82,0,0,0,.13.85,12.51,12.51,0,0,1,.24,2.87,1.84,1.84,0,0,1-.51.81c-1.55,1.73-2.11,2.37-2.37,2.73a5.67,5.67,0,0,1-1.41,1.41c-.46.28-.72.37-1,.24m12.62-6.43a2.15,2.15,0,0,1-1.41-.55,1,1,0,0,0-.6-.32c-.26,0-.54-.18-1.25-.74a8.3,8.3,0,0,0-.94-.65,5,5,0,0,1-1.84-1.83c-.16-.28-.4-.66-.54-.89a13.11,13.11,0,0,1-1.53-2.33,22.07,22.07,0,0,1-.68-3.58,11.4,11.4,0,0,1,.64-4.59,19.35,19.35,0,0,1,1.65-3.14,22.68,22.68,0,0,1,2.42-2.63,17.89,17.89,0,0,1,3-2.12l.9-.38a14.9,14.9,0,0,1,5.37-.62,14.56,14.56,0,0,0,1.53.08,5.3,5.3,0,0,1,2.8.62,8,8,0,0,0,1.25.5,4.29,4.29,0,0,1,1.47.69,4.11,4.11,0,0,0,.78.4,7.34,7.34,0,0,1,2.74,2.74,1.8,1.8,0,0,1,.16.78.87.87,0,0,0,.1.53.91.91,0,0,1,.28.38,9.64,9.64,0,0,1,.58,1.79,1.47,1.47,0,0,0,.19.46c.16.3.18.44.2,2a12.34,12.34,0,0,1-.34,3.79,11.68,11.68,0,0,1-.91,2.63,8,8,0,0,1-1.69,2.24c-.16.12-.69.58-1.15,1a13.65,13.65,0,0,1-2.43,1.77l-.93.61c-1.06.74-1.17.78-2,.8a2.29,2.29,0,0,0-.93.14c-.66.35-1,.39-3.78.41-1.47,0-2.88,0-3.16,0M84.94,83.29l-.26-.24,0-1.87A12.9,12.9,0,0,0,84.32,78c-.26-1.29-.26-1.35-.12-1.55a.33.33,0,0,1,.38-.18c.24,0,.28.06.44.46a1,1,0,0,0,.42.56,2.29,2.29,0,0,1,.69.81,10.09,10.09,0,0,0,1,1.2,11.74,11.74,0,0,1,1.73,2.26c.39.66.41,1,.09,1a1.41,1.41,0,0,0-.43.18,5.82,5.82,0,0,1-1.18.49c-1.29.42-2,.44-2.36.08m6.26-1.45a5.61,5.61,0,0,1-1.35-1.53,2.86,2.86,0,0,1-.34-.89,1.84,1.84,0,0,0-.28-.64c-.12-.16-.55-.72-.93-1.25s-1-1.24-1.29-1.61a10.85,10.85,0,0,1-2.65-4.77,37.81,37.81,0,0,1-.59-5.25,4.45,4.45,0,0,1,.08-1.71c.11-.24.19-.3.35-.3s.3.1.44.91a1.72,1.72,0,0,0,.18.58c.08.06.83-.5,1-.75a.35.35,0,0,1,.22-.18c.18,0,.82-1,2-2.93a4.78,4.78,0,0,0,.56-2.18,2.36,2.36,0,0,1,.16-.92.41.41,0,0,1,.59.16,34.26,34.26,0,0,1,.32,5.93c0,1.21,0,2.2,0,2.2a3.87,3.87,0,0,0,1.13-1c.22-.28.5-.64.66-.82a6.91,6.91,0,0,0,.42-.61c.1-.18.18-.24.33-.22s.18,0,.46.66a9.93,9.93,0,0,1,.12,3.87c-.06.76-.16,1.87-.2,2.49a15.5,15.5,0,0,1-.18,1.65,10.89,10.89,0,0,0,0,2.92.92.92,0,0,0,.46.5c.2.13.42.21.48.17a1.85,1.85,0,0,0,.36-.53,11.32,11.32,0,0,1,1.65-2.23,3.9,3.9,0,0,1,.51-.38,7.11,7.11,0,0,0,1.33-1.39.53.53,0,0,1,.7-.28c.2.12.18.66,0,1.32-.12.33-.28.83-.36,1.13a8.87,8.87,0,0,1-.32.85,10,10,0,0,0-.45,1.12,11.72,11.72,0,0,1-1.31,2.76A8.46,8.46,0,0,1,92.61,81a.64.64,0,0,0-.32.33.92.92,0,0,1-1.09.48" transform="translate(-42.24 -14.15)"/><path class="cls-4" d="M65.68,138.75a17.42,17.42,0,0,1-5.31-1.65,5.16,5.16,0,0,1-1.73-1.39,4.81,4.81,0,0,0-.8-.93,11.67,11.67,0,0,1-3.1-4.65c-.37-1.16-.47-3.46-.16-3.46s.24.18.44,1a11.9,11.9,0,0,0,1.71,4.06,10.88,10.88,0,0,0,3.72,3.1,13.09,13.09,0,0,0,9.62.77,10.81,10.81,0,0,0,3.18-1.83,9.37,9.37,0,0,0,2.58-5.54c.06-.7.1-.78.3-.9s.2,0,.36.06.2.14.16,1a10.58,10.58,0,0,1-2.15,5.9.69.69,0,0,0-.1.46c.06.38-.26.95-1,1.63a5.06,5.06,0,0,1-2.27,1.47,9.16,9.16,0,0,1-2.86.91,7.31,7.31,0,0,1-2.64,0M89,134.2a1,1,0,0,1-.27-.32c-.06-.18-.12-.18-1.06-.24-1.67-.11-2.56-.37-2.56-.81,0-.08-.14-.14-.46-.2-1.49-.28-1.63-.34-1.89-.6a2.89,2.89,0,0,0-.87-.49,3,3,0,0,1-.78-.42.54.54,0,0,1,0-.76c.18-.21.1-.33-.81-1.45a8.52,8.52,0,0,1-2.07-3.55c-.2-.7-.2-.9,0-1s.32,0,.6.62A11.1,11.1,0,0,0,83,129.49a14.86,14.86,0,0,0,5.37,1.77,18.46,18.46,0,0,0,5.72-.56c4-1,7.22-3.4,8.75-6.46a11,11,0,0,0,1.15-4.61c.06-.48.08-.56.22-.56s.18.1.28.44a7.81,7.81,0,0,1-.64,5.21c-.33.66-.33.66-.16.83a.6.6,0,0,1,.16.34,6,6,0,0,1-1,1.59c-.08.1-.34.46-.54.76a9.38,9.38,0,0,1-2,2c-.29.21-.75.61-1,.85A9.74,9.74,0,0,1,97,132.69a8,8,0,0,1-3.7,1.13,11.62,11.62,0,0,0-1.49.2c-1.53.3-2.51.36-2.75.18M74,115.12a.51.51,0,0,0-.38-.12.71.71,0,0,1-.46-.16c-.12-.12-.4-.16-1.27-.24a9.62,9.62,0,0,1-3.56-.91,16.11,16.11,0,0,1-3.22-2.15c-.26-.24-.68-.62-1-.82A25.88,25.88,0,0,1,62,108.2a15.37,15.37,0,0,1-1.11-2.7c-.14-.44-.16-.62-.08-.8s0-.36-.18-1c-.58-1.77-.54-4.42.06-4.93.28-.22.37,0,.41,1.27a11.17,11.17,0,0,0,.58,3.38,13.46,13.46,0,0,0,6.56,7.41,10.1,10.1,0,0,0,4.43,1.26,7.85,7.85,0,0,0,2.73-.32,5.35,5.35,0,0,0,2.32-1.19c.68-.54,1.06-.68,1.06-.42a1.36,1.36,0,0,1-.36.69,1.14,1.14,0,0,0-.24.34,4.92,4.92,0,0,1-.89,1.06,4.58,4.58,0,0,0-.82,1,1,1,0,0,1-.42.52c-.2.17-.63.57-1,.89-.62.58-.86.7-1.07.46m4.63-1.55c-.1-.1-.1-.14,0-.32a3.36,3.36,0,0,1,.53-.62,3.24,3.24,0,0,0,.56-.73c.08-.18.4-.76.72-1.29a34.06,34.06,0,0,0,2.24-4.3c.1-.3.22-.75.3-1a2.84,2.84,0,0,1,.26-.62.55.55,0,0,1,.91.4,1.54,1.54,0,0,0,.12.48c.12.23.12.31,0,.83l-.16.6.22.08c.38.16.38.45.06,1.11A7.69,7.69,0,0,0,84,109c-.1.51-3.08,3.49-4.09,4.13s-1.15.64-1.31.48m14.57-5.71c-1.37-.3-1.79-.4-2.33-.57a14.29,14.29,0,0,1-3.69-2.05,6.42,6.42,0,0,1-1.54-1.63c-.37-.48-.87-1.17-1.11-1.49-.5-.62-.75-1.08-.67-1.2s.41,0,1.39.74a14.62,14.62,0,0,0,5,2.78,11.47,11.47,0,0,0,4.47.7,10.37,10.37,0,0,0,2.74-.24,15.56,15.56,0,0,0,6.8-3.24,13.4,13.4,0,0,0,3-3.42,10.67,10.67,0,0,0,1.51-4.49c.1-.84.12-.88.32-.88s.32.4.32,1.34a10.49,10.49,0,0,1-1.89,5.82c-.4.6-.42.62-.28.74.34.29.1.75-.79,1.59a21.75,21.75,0,0,1-4.06,3.1.61.61,0,0,0-.34.35c-.06.26-.39.42-1.78,1a12.49,12.49,0,0,1-3.68,1.07,24.24,24.24,0,0,1-3.4,0m-28.11-11a16.94,16.94,0,0,1-5.49-1.41c-1.63-.82-3.85-2.41-4-2.88a7.2,7.2,0,0,0-1-1.06,12.7,12.7,0,0,1-3.87-7.33c-.26-1.91-.28-2-.2-2.25a.5.5,0,0,1,.89-.12,4.5,4.5,0,0,1,.24.86c1,5,5.57,9.36,11.31,10.81,3,.74,6.36.62,8.37-.32a13,13,0,0,0,5.49-4.93c.93-1.65,1.25-5,.71-7.61a7.25,7.25,0,0,0-.33-1.23c-.08-.14-.12-.28-.1-.3s.71.22,1,.49a7.86,7.86,0,0,0,2.29,1c.41.1.51.18.51.3s.12.2.38.32.34.19.2.21-.3.36-.26.78-.18.52-.66.52a7.57,7.57,0,0,1-1.92-.4c-.14-.08-.16-.06-.12.1A10.69,10.69,0,0,1,78.76,84a7.24,7.24,0,0,0,.14,1c.23.78.21.84-.14,2a11.79,11.79,0,0,1-1.65,3.8c-.14.21-.4.69-.6,1.09A4.62,4.62,0,0,1,75,93.79a3.24,3.24,0,0,0-.64.59,9.11,9.11,0,0,1-3.65,2.07,21.8,21.8,0,0,1-5.65.36M84.74,83.13c-.22-.1-.26-.47-.06-.55a.12.12,0,0,0,.08-.16.42.42,0,0,1,0-.26c0-.1.06-.16,0-.16a.37.37,0,0,1-.2-.1c-.2-.14-.1-.38.16-.38H85l-.18-.16a1.26,1.26,0,0,0-.28-.18c-.2-.09,0-.17.8-.27A14.78,14.78,0,0,0,87,80.59c1-.26,1.21-.26,1.27,0a.23.23,0,0,0,.24.2.54.54,0,0,1,.32.16.29.29,0,0,1,.06.41c0,.14-.06.24,0,.24s.13.08.17.18c.14.3-.15.8-.55,1a11.11,11.11,0,0,1-3.7.39m5.9-1.89a.79.79,0,0,0-.21-.31c-.06,0-.12-.18-.12-.36s0-.36.16-.5l.21-.14-.31,0c-.4,0-.72-.1-.58-.28a7.8,7.8,0,0,1,1-.59,10.74,10.74,0,0,0,3.08-2.49A9.13,9.13,0,0,0,96,73.31c.28-.75.4-.89.72-.89a.47.47,0,0,0,.43-.24c.3-.4.5-.28.5.26a25.3,25.3,0,0,1-.48,2.66,8.29,8.29,0,0,1-1.09,2,6.64,6.64,0,0,0-.52.87c0,.34-1.86,2.09-3.22,3-.65.47-.71.49-1.15.49s-.48,0-.58-.28M87.76,62.06a.24.24,0,0,1,.06-.36.25.25,0,0,1,.32.28.25.25,0,0,1-.38.08" transform="translate(-42.24 -14.15)"/><path class="cls-5" d="M63.87,132.75a10.77,10.77,0,0,1-8.17-8.17c-.24-1.17-.14-3,.18-3.24a1.26,1.26,0,0,0,.29-.42,8.36,8.36,0,0,1,1.24-1.83,17.32,17.32,0,0,1,4.93-2.78,3.54,3.54,0,0,1,1.77-.28,11.87,11.87,0,0,1,1.59.12,1.71,1.71,0,0,0,.89,0c.26-.1.56,0,1.59.7A10.52,10.52,0,0,1,71.84,121a8.77,8.77,0,0,1,1,4,7.34,7.34,0,0,1-1.65,5.29,7.19,7.19,0,0,1-4.33,2.52,13.87,13.87,0,0,1-3,0m25.86-5.65c-5-.77-8.73-3.59-9.9-7.41a5.89,5.89,0,0,1-.22-2,5.47,5.47,0,0,1,.18-1.89,9.59,9.59,0,0,1,7.43-6.2c.36,0,.46,0,.56.08s.1.16-.08.3l-.2.16.36-.06,1-.2a7.1,7.1,0,0,1,3.83-.2c.3.06.74.14,1,.16a41.28,41.28,0,0,1,4.71,1.57,16.46,16.46,0,0,1,2.4,2c2,1.89,2.69,3.52,2.57,5.64a6.77,6.77,0,0,1-1.22,3.56,10.31,10.31,0,0,1-4.87,3.72,20.17,20.17,0,0,1-3.3.83,24.11,24.11,0,0,1-4.17-.06m-15.8-19.38a11.17,11.17,0,0,1-8.45-7.11c-.42-1.28-.5-2.69-.16-3.1s.42-.12.54.35c0,.2.11.3.11.22a.75.75,0,0,1,.18-.36c.24-.29.6-.23.66.12,0,.12.1.36.16.54l.1.32,0-.5c-.06-.66,0-1.07.22-1.07a.37.37,0,0,1,.26.18l.13.16.78-.22a18.22,18.22,0,0,0,3.44-1.49,5.17,5.17,0,0,1,.93-.4,8.41,8.41,0,0,0,2.94-2.15,3.88,3.88,0,0,1,.42-.58c.14-.17.54-.65.86-1.09s.71-.91.79-1c.22-.28.56-.3,1,0,2.56,1.55,3.28,2.72,3.28,5.29a29.24,29.24,0,0,1-.66,6.1,7.13,7.13,0,0,0-.18,1.37,2.66,2.66,0,0,1,0,.58c-.06.45-.08.51-.38.71s-.29.24-.18.34a.57.57,0,0,1,.12.38c0,.24-.06.34-.37.65a6.87,6.87,0,0,1-3,1.71,10.45,10.45,0,0,1-3.45.12m20.21-6.16A12.06,12.06,0,0,1,86,97.64a8,8,0,0,1-.93-9.1,7.57,7.57,0,0,1,1.67-2.17c.93-.87,1.29-.77.57.16L87,87l.81-.68A15.22,15.22,0,0,1,89.65,85c.58-.36,1.37-.85,1.73-1.11a4.35,4.35,0,0,1,2.4-1,14.9,14.9,0,0,1,4.5.1l1.65.34a8.56,8.56,0,0,1,3.12,1.11,10.3,10.3,0,0,1,2.88,2.31c.16.22.5.6.72.84a6.43,6.43,0,0,1,1.17,2,2.9,2.9,0,0,0,.2.48,6.24,6.24,0,0,1-.12,3.24A10.31,10.31,0,0,1,106.63,96a13.41,13.41,0,0,1-10.78,5.57,15.88,15.88,0,0,1-1.71,0M63.79,89.37a13.91,13.91,0,0,1-10.5-7.61,6.51,6.51,0,0,1-.73-3.34,3.62,3.62,0,0,1,.18-1.65,2.16,2.16,0,0,0,.19-.65,1.76,1.76,0,0,1,.16-.54c.12-.28.2-.36.4-.4s.28-.1.3-.18.1-.28.18-.47c.2-.44.42-.44.47,0l0,.31.58-.65a9.33,9.33,0,0,1,2.15-1.77,26.74,26.74,0,0,1,3.26-1.31A9,9,0,0,1,65,70.73a12.53,12.53,0,0,0,1.57.24c.52,0,1.05.1,1.13.12a22.17,22.17,0,0,1,2.51,1.13,2.17,2.17,0,0,0,.63.32,12.62,12.62,0,0,1,2.09,2.28A10.75,10.75,0,0,1,74.7,79,11.21,11.21,0,0,1,74,85a8.37,8.37,0,0,1-6.39,4.37,17,17,0,0,1-3.77,0m16.5-13.25A13.72,13.72,0,0,1,75,73.81l-.64-.46.88-.85A14.06,14.06,0,0,0,76.59,71c.28-.38.77-.94,1-1.24a4.66,4.66,0,0,0,.82-1.13l.28-.56.45,0,.42,0,.26.6a4.5,4.5,0,0,1,.34,1.27c.06.36.18,1.06.28,1.55a13.62,13.62,0,0,1,.45,2.85c0,.65.1,1.35.14,1.59a1.07,1.07,0,0,1,0,.43s-.38-.08-.77-.17M86,74.84a14.21,14.21,0,0,1-1-1.35,21.27,21.27,0,0,1-1.15-5,13.72,13.72,0,0,1-.1-2.52l0-1.49.27-.24c.36-.32.52-.26.6.18.1.59.56.89,1,.65a9.44,9.44,0,0,0,1.63-2.4,14.2,14.2,0,0,0,1.34-3.62c0-.24.14-.64.21-.88l.14-.47.2.57a13.84,13.84,0,0,1,.58,3.3c0,.56.1,1.18.12,1.36a6.84,6.84,0,0,1-.52,2.28c-.32.72-.16,1.23.42,1.23.32,0,.4-.1,1-.93s.78-1.09,1-1.09a1,1,0,0,0,.39-.16c.26-.2.28-.2.32.06a1,1,0,0,0,.22.41c.46.48.68,2.33.48,4,0,.34-.14,1.17-.2,1.81s-.18,1.45-.24,1.81c-.1.61-.12.67-.46,1A14.2,14.2,0,0,1,89.79,75,14,14,0,0,1,87,76c-.14,0-.38-.26-1-1.12M72.61,71.48a8.13,8.13,0,0,1-.77-1.25,8.66,8.66,0,0,1-.92-3.12l-.06-.3.44-.1a2.59,2.59,0,0,0,.7-.24,8.59,8.59,0,0,1,.77-.41c.26-.14.64-.38.88-.52a4.9,4.9,0,0,1,.85-.44,7.8,7.8,0,0,0,1.06-.49,3.2,3.2,0,0,1,.67-.3,8.93,8.93,0,0,1,.58,1.81,2.59,2.59,0,0,1-1,3c-.33.3-1,1.09-1.61,1.75s-1.07,1.19-1.11,1.19a2.93,2.93,0,0,1-.52-.62" transform="translate(-42.24 -14.15)"/><path class="cls-6" d="M65.89,122.79a1.14,1.14,0,0,1-.33-.18,4.67,4.67,0,0,0-.86-.36c-.42-.15-1-.39-1.31-.53s-.93-.46-1.39-.66a2.53,2.53,0,0,0-1.39-.38,1.6,1.6,0,0,0-1,.24,4,4,0,0,0-1.43,1.47c-.18.4-.3.46-.59.32s-.32-.46,0-1a8.23,8.23,0,0,1,7.21-4,9.61,9.61,0,0,1,3.36.78,3.87,3.87,0,0,1,1.23,1.27,2.49,2.49,0,0,1,.08.68,2.16,2.16,0,0,1-.81,1.69,2.4,2.4,0,0,1-1.89.77,3.23,3.23,0,0,1-.92-.08M98,120.31c-.78-.26-1.15-.52-2.35-1.83A21.83,21.83,0,0,0,94,116.85c-.27-.2-.77-.62-1.13-1a9.17,9.17,0,0,0-2.6-1.75,6.4,6.4,0,0,0-3.42-1,5.35,5.35,0,0,0-1.49.16,2.79,2.79,0,0,1-.62.12s0-.16.08-.3a4.1,4.1,0,0,0,.16-.4,2,2,0,0,1,.85-.63,1.29,1.29,0,0,0,.38-.16,5.74,5.74,0,0,1,2.43-.72,14.4,14.4,0,0,1,5.66.28,13.08,13.08,0,0,1,5.25,2.6,4.59,4.59,0,0,1,1.35,1.51,3.11,3.11,0,0,1-.14,3.86,2.48,2.48,0,0,1-1.31.86,2.07,2.07,0,0,1-1.47,0m4-26.8a7.07,7.07,0,0,1-1.17-.44A17.85,17.85,0,0,1,98,91.2a9.33,9.33,0,0,0-4.47-2.28A3.47,3.47,0,0,0,92,89a7.31,7.31,0,0,0-1.28.39,3.23,3.23,0,0,1-1.73.18c-.61,0-.81-1-.39-1.69a8.6,8.6,0,0,1,3.75-2.64,10.16,10.16,0,0,1,3.26-.7,8.11,8.11,0,0,1,2.29,0,15.35,15.35,0,0,1,5,1.48c1.19.61,1.87,1.29,3.16,3.18a4.26,4.26,0,0,1,.5,1.84,2.47,2.47,0,0,1-.84,1.77,3.88,3.88,0,0,1-3.66.76M56.67,81.26A4.27,4.27,0,0,1,55,80.35a2.38,2.38,0,0,1-.71-1.73,2.83,2.83,0,0,1,.23-1.45,4.42,4.42,0,0,1,2.09-2.8,9.8,9.8,0,0,1,4.47-1.69,11.82,11.82,0,0,1,2.61-.22,10.27,10.27,0,0,1,5.11,1.13,6.49,6.49,0,0,1,2.38,1.63c.86.94,1.16,1.67.82,2s-.62.16-1.41-.26a10.43,10.43,0,0,0-2.75-1l-.69-.14-.7.22a12.25,12.25,0,0,0-4.65,3A17.26,17.26,0,0,1,59.45,81a4.63,4.63,0,0,1-2.78.31" transform="translate(-42.24 -14.15)"/><path class="cls-7" d="M65.89,121.14c-.07,0-.45-.24-.85-.48a3.52,3.52,0,0,0-2-.67,2.47,2.47,0,0,1-.83-.2c-.22-.14-.22-.14-.06-.3a5,5,0,0,1,2.4-.44c1.47.12,1.75.16,1.71.26s.12.14.36.24a.8.8,0,0,1,.54.46c.22.4.2.57-.06.87a.74.74,0,0,1-.66.28,2.14,2.14,0,0,1-.56,0m32.47-3.2c-.4-.14-.72-.46-1.57-1.57A14.32,14.32,0,0,0,95.65,115a11.8,11.8,0,0,0-2.18-1.57c-.38-.18-.46-.26-.44-.4s.06-.18.5-.16A8.74,8.74,0,0,1,97.14,114,4.62,4.62,0,0,1,99,115.46c.7,1,.86,1.8.42,2.26a.89.89,0,0,1-1,.22M102.07,90a8.48,8.48,0,0,1-2.1-1.31,7.52,7.52,0,0,0-3-1.83,4.5,4.5,0,0,0-1.81-.24c-1.18,0-1.69-.14-1.69-.34s.45-.43,1.13-.61a9.62,9.62,0,0,1,3.7-.18c3,.54,4.21,1,5.21,2.09a2.1,2.1,0,0,1,.57.89c.24.89,0,1.43-.57,1.57a2.41,2.41,0,0,1-1.46,0m-44.76-11a1.76,1.76,0,0,1-.8-.74,2,2,0,0,1-.12-.69,3.54,3.54,0,0,1,2.29-2.87,13.16,13.16,0,0,1,8.53-.53c.57.18,1.09.61.93.75a7.05,7.05,0,0,1-1.55.18,6.46,6.46,0,0,0-2,.3,12.63,12.63,0,0,0-3.61,2.11,7.21,7.21,0,0,1-2.23,1.43,2.75,2.75,0,0,1-1.39.06" transform="translate(-42.24 -14.15)"/><path class="cls-8" d="M72.91,119.67a1.63,1.63,0,0,1-.42-.42,3,3,0,0,0-.45-.55,1.06,1.06,0,0,1-.2-.28s.67-.74,1.47-1.57a24.05,24.05,0,0,0,2.76-3.14c.18-.26.44-.62.6-.82.32-.36,2.44-3.54,2.84-4.19a1.71,1.71,0,0,0,.22-.6A22.92,22.92,0,0,1,81,104.46a23.12,23.12,0,0,0,.74-5.23,3.63,3.63,0,0,1,.12-.85,4.15,4.15,0,0,0,.1-1.15c0-1.08.08-1.3.47-1.2s.26.06.5,1.48a8.87,8.87,0,0,0,1.77,4.33,4,4,0,0,1,1,2.64,8.31,8.31,0,0,0,.28,2c.16.68.36,1.43.44,1.65a1.81,1.81,0,0,1,.16.54.27.27,0,0,0,.2.22.69.69,0,0,1,.42.73c0,.22-.06.3-.26.36a2.11,2.11,0,0,0-.54.3c-.6.45-.93.22-1.21-.86-.12-.41-.32-1-.44-1.33a27,27,0,0,1-.91-3.16l-.1-.46-.18.14a1.15,1.15,0,0,0-.3.46,8.88,8.88,0,0,1-.62,1.17c-.26.46-.71,1.29-1,1.83a12.57,12.57,0,0,1-1.57,2.64c-.24.3-.88,1.18-1.43,2a22.4,22.4,0,0,1-1.39,1.85A26,26,0,0,0,75.38,117a8.94,8.94,0,0,1-.7,1l-.83,1a3.1,3.1,0,0,1-.56.62c-.18.08-.14.08-.38,0m9.42-24.93a10,10,0,0,1-.13-1.61A4.67,4.67,0,0,0,82,91.48a1.64,1.64,0,0,1-.16-1.35,4.1,4.1,0,0,0,0-1.63c-.06-.62-.12-1.59-.16-2.11s-.1-1.59-.16-2.36a20.78,20.78,0,0,1-.1-2.37c0-.55,0-1.45-.08-2s-.16-1.79-.22-2.74a38.47,38.47,0,0,0-.48-4.19,18,18,0,0,1-.29-1.81,15.82,15.82,0,0,0-.44-2.39,2.29,2.29,0,0,1-.12-.59v-.28l-.28.12a2.76,2.76,0,0,1-.73.16c-.46.07-.56.15-.28.23s.14.56-1.73,2.87a15.93,15.93,0,0,1-2.92,2.86.6.6,0,0,1-.52,0,1,1,0,0,1-.3-.22c0-.08-.18-.16-.32-.22a.49.49,0,0,1-.35-.3c-.14-.39,0-.61.59-1,.4-.26.6-.44.68-.64a14.15,14.15,0,0,1,1.53-1.71c1.69-1.73,1.87-2,1.83-3a11.79,11.79,0,0,0-.5-2.54c-.08-.16-.12-.18-.36-.14a3.16,3.16,0,0,0-.87.44,26.11,26.11,0,0,1-5.37,2.5c-1.45.48-3.2.66-3.5.38a.57.57,0,0,1,0-.68c.3-.55,0-.55-1.19,0-1.75.84-3,1.16-6.38,1.71a29.61,29.61,0,0,1-4.47.2A2.07,2.07,0,0,1,53,68.08a1,1,0,0,1,.14-1c.42-.6.42-.58-.12-.52a7,7,0,0,0-1.37.32c-.48.16-1.45.46-2.15.66a6.89,6.89,0,0,1-2.6.42,18.24,18.24,0,0,1-3.42-.2.76.76,0,0,1-.71-.66.42.42,0,0,1,.08-.28.77.77,0,0,0,.09-.4,11.37,11.37,0,0,1,1-3.51,5.7,5.7,0,0,0,.32-.88c0-.73,1.35-3.42,2.64-5.29.42-.65.44-.79.08-.73a5.15,5.15,0,0,0-1.73.93q-.54.54-.54-.12a6.56,6.56,0,0,1,1.06-2.26,2.77,2.77,0,0,0,.42-.72A3.46,3.46,0,0,1,47,52.62a14.27,14.27,0,0,0,1-1.09,27.47,27.47,0,0,1,2.55-2.93l.34-.29-.46-.1a3,3,0,0,0-1-.06c-.74.06-.78,0-.44-.76A6.94,6.94,0,0,1,51,45.28c.79-.55,2.42-1.59,2.9-1.87a15.85,15.85,0,0,0,3.4-3.12l.26-.37-.7.31a9.67,9.67,0,0,1-4.61.82c-1.37,0-1.51,0-1.77-.14s-.42-.52,0-1.09.54-1,.46-1a3.27,3.27,0,0,0-.94.12,8.51,8.51,0,0,1-4,.06,4.11,4.11,0,0,0-.72-.12,3.22,3.22,0,0,0-1.49.72c-.56.46-.72.52-.89.4a.4.4,0,0,1,0-.52s.1-.26.17-.48A10.09,10.09,0,0,1,45.24,35c.86-.88,1-1.3.58-1.49a2.44,2.44,0,0,1-.54-.46c-.3-.3-.32-.4-.28-.6.14-.73,2-2.82,3.74-4.07a13.15,13.15,0,0,0,1.45-1.32,9.09,9.09,0,0,1,1.45-1.29,12.8,12.8,0,0,1,3.54-2,16,16,0,0,1,3.62-1,32.65,32.65,0,0,1,5.6-.16,21.73,21.73,0,0,1,8.83,2.86,17.56,17.56,0,0,1,3.46,2.71,9.77,9.77,0,0,1,2,2.76c.14.24.55.92.89,1.51a11.44,11.44,0,0,1,1.45,3.64l.1.44,0-.36c0-.2.18-1.57.34-3.06A31,31,0,0,1,83.15,25c.24-.72.54-1.75.68-2.27a26.2,26.2,0,0,1,1.07-3.28,1,1,0,0,1,.34-.4c.14-.06.22-.22.37-.75a21.07,21.07,0,0,1,1.2-3.36c.32-.5.65-.78.89-.78.5,0,.62.36.34,1a9.81,9.81,0,0,0-.38,1.09c-.1.32-.32,1-.49,1.41a3.55,3.55,0,0,0-.28,1.51c0,.72.14,1.26.33,1.26a1.48,1.48,0,0,0,.84-.54c.18-.24.26-.26.5-.24.43,0,.55.3.55,1.31a2.49,2.49,0,0,1-.39,1.61A51,51,0,0,0,86,30.61a49,49,0,0,0-1.25,6.62c-.42,3.3-.54,4.52-.4,4.61a6.46,6.46,0,0,0,2.21-.06,12.71,12.71,0,0,1,2.21-.15,8.15,8.15,0,0,1,3.59.61,46.73,46.73,0,0,1,6.48,3.18,11.21,11.21,0,0,1,2.25,1.81,4.65,4.65,0,0,0,.8.72,6.71,6.71,0,0,1,2,2.38c.88,1.47,1.12,2,1.08,2.27a1.8,1.8,0,0,0,.26.87,11,11,0,0,1,.65,1.69c.18.56.4,1.26.5,1.53a5.32,5.32,0,0,1,.34,2.45,5.66,5.66,0,0,1-.56,2.48.44.44,0,0,1-.74-.06c0-.13-.31-.63-.57-1.15-.42-.89-.54-1.09-.62-1a8.46,8.46,0,0,0-.2,1.07,22,22,0,0,1-1.85,6.16,18.16,18.16,0,0,1-2.38,4.08c-.46.52-.92.42-1.07-.22l0-.26-.2.2a6.94,6.94,0,0,0-.64.72,10.07,10.07,0,0,1-1.87,1.92A8.85,8.85,0,0,0,93.53,76c-.24.41-.82.51-1,.16a4.59,4.59,0,0,1-.2-1.63c.52-5.63.58-8.23.22-10a7.25,7.25,0,0,0-.18-.84,8.33,8.33,0,0,0-1.47,1.53c-1.17,1.39-1.27,1.49-1.59,1.25s-.18-.13.4-2.9A7,7,0,0,0,89.69,59a6.7,6.7,0,0,0-.62-1.65,4,4,0,0,0-.25,1,8.91,8.91,0,0,1-1,2.91,23,23,0,0,1-2,3.16c-.49.63-.57.71-.81.71s-.44-.22-.56-.79c-.08-.38-.18-.36-.87,0-.42.26-.44.3-.3.34.36.15.42.37.32,1.27a8.34,8.34,0,0,0,.08,2.38,13.3,13.3,0,0,0,1.77,5.49c.19.26.57.85.85,1.29.84,1.27,1.49,2.21,1.83,2.61.16.21.58.79,1,1.29s.76,1.07.9,1.25a23.19,23.19,0,0,1,1.37,2.21c.34.67.26,1.21-.18,1.21-.08,0-.18.08-.22.24s-.36.36-.71.28c-.16,0-.34-.32-1-1.55a28.78,28.78,0,0,0-2.58-4.14A8.12,8.12,0,0,0,85,76.69,5.49,5.49,0,0,0,84,76a13.83,13.83,0,0,0,0,1.88,44.83,44.83,0,0,0,.66,6.54,15,15,0,0,1-.08,5c-.12.2-.62,1.67-1,2.69-.1.32-.26.95-.36,1.41-.18.85-.28,1.11-.44,1.23s-.44.06-.5-.08" transform="translate(-42.24 -14.15)"/><path class="cls-9" d="M94,72a3.48,3.48,0,0,1,.14-.75,12.67,12.67,0,0,0,.32-1.4,4.66,4.66,0,0,0,0-2,29.53,29.53,0,0,0-.81-4,8.08,8.08,0,0,0-1.08-2.68c-.14-.16-.14-.16-.34.33-.37.86-.81,1.87-.89,2a.38.38,0,0,1-.58-.1c-.12-.16-.12-.31-.06-.95a7.13,7.13,0,0,0,0-1.71A6.31,6.31,0,0,0,90,58.16a7,7,0,0,0-1.27-1.84.57.57,0,0,0-.16.23c0,.12-.48.76-1,1.46a29.93,29.93,0,0,0-1.89,3c-.63,1.23-1.19,1.61-1.88,1.25a.5.5,0,0,0-.3-.06c-.12.08-1.33,1.51-2,2.37a4.14,4.14,0,0,1-2.47,1.67,1.32,1.32,0,0,1-.39-.16c-.34-.2-.36-.44-.24-1.73a5.6,5.6,0,0,0,0-1.73A7.39,7.39,0,0,0,78,60.73a10.08,10.08,0,0,0-1.53,1,42.64,42.64,0,0,1-5.07,3l-1.59.79h-.63a4.59,4.59,0,0,1-.78-.06c-.24-.14-.28-.48-.16-1.27a1.77,1.77,0,0,0,.06-.82,5.38,5.38,0,0,0-1.61.58,19.59,19.59,0,0,1-6,1.87c-.74.14-1.89.38-2.53.52a4.73,4.73,0,0,1-2.54.11c-.38-.19-.4-.35-.12-1,.4-.87.42-.85-1.05-.87a7.71,7.71,0,0,0-1.85.1c-.32.06-1.22.23-2,.35s-2.27.4-3.32.62c-1.87.38-1.89.4-2.19.26-.65-.32-.79-1.08-.36-2.11a12.44,12.44,0,0,1,.78-1.55c.28-.52.91-1.67,1.37-2.56A23.75,23.75,0,0,1,49,56a6.44,6.44,0,0,0,.53-.78c0-.06-.21-.06-.59,0-1.91.18-2,.18-2.19,0-.42-.45-.14-1.27.7-2.08a29.77,29.77,0,0,1,3.12-2.75c1.41-1,2.09-1.65,2.09-2,0-.07-.14-.21-.32-.31-1-.54-.84-1.08.51-2.23a22.28,22.28,0,0,1,4.24-3.12,5.08,5.08,0,0,0,2-1.73,6.76,6.76,0,0,0,.63-1.47,15.49,15.49,0,0,1,.64-1.57c.22-.42.26-.56.2-.68s-.44-.14-1.69.48a14.7,14.7,0,0,1-3.7,1.43,5.53,5.53,0,0,1-2.76.42c-.3-.08-.38-.42-.16-.78.08-.16.32-.57.55-.93a5.31,5.31,0,0,0,.36-.72s-.14,0-.34,0l-.95.12a15.15,15.15,0,0,0-1.65.36l-1,.3H47.29c-1.89,0-1.89,0-2.31.24s-.63.28-.79,0-.12-.46.43-1.35a7.55,7.55,0,0,1,2.91-2.71l.39-.2a2.11,2.11,0,0,0-.33-.51c-.5-.64-.54-.76-.54-1.24s.12-.71.72-1.45a21.34,21.34,0,0,1,4.31-3.44A18.87,18.87,0,0,1,58,24.73,27,27,0,0,1,65.28,24a20.09,20.09,0,0,1,4.85.66c.2.14.24.48.06.54a15.3,15.3,0,0,1-1.93,0c-3.4-.14-5.84.18-7.43,1-.52.26-1,.66-.82.7a19.43,19.43,0,0,1,3.84,1.77c.49.33.57.53.34.73s-.18.16-.74.06c-1.93-.36-2.78-.18-5.57,1.17a6.85,6.85,0,0,0-2,1.35l-.94.82,1.27,0c.7,0,1.55.1,1.91.14s1,.12,1.41.14a15.87,15.87,0,0,1,5.09,1.27c.7.32.86.68.4,1a1.88,1.88,0,0,0-.42.5,1.25,1.25,0,0,0-.1,1.31c.16.26.18.28.7.34,1,.1,2,.5,2,.84,0,.19,0,.23-.8,1-.3.28-.46.48-.46.6a2.37,2.37,0,0,0,.84,1c.24.16.26.28,0,.28a.27.27,0,0,0-.2.08,3.83,3.83,0,0,1-.66.4,23.94,23.94,0,0,0-2.92,2.08c-1.53,1.31-3.12,3.12-2.9,3.34s.1.18-.22.5-.28.28-.12.28a.29.29,0,0,1,.3.38A7.37,7.37,0,0,1,59,49.36a26,26,0,0,0-4.83,5.31c-.48.75-1.87,3.12-1.95,3.36s.42.33,1.75.59a10.76,10.76,0,0,1,1.13.24.32.32,0,0,1,0,.26c0,.16,0,.18.14.14A15,15,0,0,1,57.47,59,2.81,2.81,0,0,0,59,58.66c.06-.1.22-.16.63-.2a8.93,8.93,0,0,0,1.53-.35c.74-.22,1-.26,1.06-.2s.45,0,1.53-.26c1.89-.46,2.36-.54,2.66-.42.48.16.58.72.24,1.31a1.08,1.08,0,0,0-.16.3,13,13,0,0,0,2.25-.79c.38-.16,1.83-.72,3.22-1.24,2.3-.89,2.54-1,2.74-.87s.2.16.22.42,0,.45-.42,1-.46,1-.12.64a.5.5,0,0,1,.28-.12,3.47,3.47,0,0,0,1.23-.58,17.49,17.49,0,0,0,2.33-2.62c.34-.54.52-.64.81-.46s.2.16.14.6a3.22,3.22,0,0,0,.16,1.27,16.49,16.49,0,0,1,.52,2.92c0,.32,0,.48.1.48a.49.49,0,0,1,.22.08c.1.06.1.1,0,.14s0,.49.32.63c.49.26,1.09.1,1.84-.44a15,15,0,0,0,3.18-3.67c1.06-1.49,1.32-1.67,1.87-1.12.28.28.28.28.52.14a3.72,3.72,0,0,0,.56-.36,1.17,1.17,0,0,1,.55-.27c.22,0,.3-.08.6-.66a10.41,10.41,0,0,0,.93-2.56c.16-.72.44-.94.86-.64a4.85,4.85,0,0,1,.91,1.45c.12.26.7,1.27,1.28,2.21s1.41,2.38,1.82,3.16l.72,1.45.22-.72a9.64,9.64,0,0,0,.06-5.66c-.18-.82-.42-1.71-.52-2-.3-.68-.26-.79.26-.81a5.22,5.22,0,0,1,3.08,1.29c.28.22.56.45.64.49.24.2,0-1.84-.38-2.84A5.73,5.73,0,0,0,98.46,47c-.5-.69-.62-.91-.56-1a.33.33,0,0,1,.22-.14c.36-.06,1.59,1.17,2.74,2.7A38.77,38.77,0,0,1,104.08,54a13.93,13.93,0,0,1,.82,3.12c.06.54.06.66-.06.8s-.44.1-1.16-.74-.85-.91-.73-.61c0,.09.06.61.08,1.19a5.44,5.44,0,0,1-.08,1.63c-.06.3-.22,1-.36,1.65a17.21,17.21,0,0,1-2.28,6c-.54.78-1,.72-.9-.12,0-.22.06-.71.08-1.09l.06-.68L99,66.22c-.35.61-.75,1.31-.91,1.57a29.47,29.47,0,0,1-3.94,4.47c-.06,0-.1-.12-.1-.26M84.4,61.23c0-.06,0-.08-.08,0s-.08.06-.08.08,0,0,.08,0a.09.09,0,0,0,.08-.08" transform="translate(-42.24 -14.15)"/><path class="cls-10" d="M72.2,119.09a.31.31,0,0,1-.12-.24.32.32,0,0,0-.14-.27c-.2-.16-.08-.32.63-.8a38.16,38.16,0,0,0,6.86-6.72c1-1.33,1.22-1.65,1.33-1.67s.06.14-.85,1.71a21.2,21.2,0,0,1-4.16,5.15c-.47.4-.61.58-.57.68s-.08.31-.42.67-.66.74-.93,1l-.48.53h-.52a4.53,4.53,0,0,1-.63-.08m14.11-9.16a2.48,2.48,0,0,1-.3-.58c-.08-.22-.3-.83-.49-1.31s-.4-1.17-.48-1.49a11.49,11.49,0,0,0-.56-1.53c-.24-.52-.63-1.43-.85-2s-.58-1.43-.76-1.85c-.81-1.91-1.11-4.29-.61-4.79a.68.68,0,0,1,.21-.12c.14,0,.32.34.26.52a11.31,11.31,0,0,0,.86,3.62c.85,2.3.89,2.38,1,2.3s.22,0,.46.24a2.32,2.32,0,0,1,.59,1.06c.12.41.3,1.07.38,1.47s.36,1.33.62,2.08.44,1.49.46,1.63a.92.92,0,0,1-.26.58c-.28.38-.4.4-.58.18M83.87,90.29c-.24-.26-.36-1.39-.44-4.31,0-1.54-.12-4-.18-5.45-.12-3.7,0-5,.52-4.87.25,0,.37.32.47,1.15.12,1.09.24,4.1.24,6.24,0,1.06.06,2.39.12,3.06s.16,1.67.2,2.27c.08,1,.08,1.15-.06,1.33a2.4,2.4,0,0,0-.22.34c-.26.42-.42.48-.65.24m6.24-6.52a.66.66,0,0,1-.24-.36,1.45,1.45,0,0,0-.28-.5,4,4,0,0,1-.6-1.29c0-.26.38-.08,1,.52a2.74,2.74,0,0,0,.93.71.69.69,0,0,1,.38.24c.24.38-.2.92-.74.92a.74.74,0,0,1-.45-.24m-10-13.3c0-.1.16-.72.26-1.09.06-.14,0-.16-.28-.16s-.34,0-.36-.2a.73.73,0,0,1,.24-.56c.16-.2.42-.59.62-.87a20.1,20.1,0,0,1,2-2.43c.3-.3.44-.38.62-.38a.5.5,0,0,1,.48.58,32.12,32.12,0,0,1-2.23,2.76,5.93,5.93,0,0,0-1,1.87c-.2.52-.36.74-.36.48m.91-12a7.07,7.07,0,0,0,.1-1.07,8.22,8.22,0,0,0-.28-2.76c-.08-.32-.16-.74-.21-1A19.82,19.82,0,0,0,79.87,51c-.06-.12-.12-.1-.58.28a10.12,10.12,0,0,1-3.22,1.91.91.91,0,0,1-.47-.24c-.24-.22-.26-.26-.26-.7s0-.48-.18-.44a3.54,3.54,0,0,0-.84.64,7.42,7.42,0,0,1-3.69,2.07c-1.36.34-1.85.36-2.29.08s-.66-.26-1.25.12a10,10,0,0,1-3,1.33,17.07,17.07,0,0,1-5.47.67,1.69,1.69,0,0,0-1.25.22c-.74.36-1.06.46-1.3.36-.43-.16-.43-.56,0-1.43a7.33,7.33,0,0,0,.38-1,4.16,4.16,0,0,1,1-1.69,41.52,41.52,0,0,1,3.08-2.79,1.15,1.15,0,0,0,.34-.45,5.74,5.74,0,0,1,.59-1,5.6,5.6,0,0,0,.56-1c.06-.26.06-.28-.3-.6s-.38-.38-.32-.58a5.1,5.1,0,0,1,1.65-1.92,12.57,12.57,0,0,1,4-2.23l1.13-.42L68,41.88c-.49-.43-.42-.71.24-1.27a8.25,8.25,0,0,1,3.24-1.25l.28-.06-.22-.16a4.36,4.36,0,0,0-2-.24c-.51,0-.59,0-.79-.12a.44.44,0,0,1-.06-.71c.16-.16.16-.16-.22-.22a1.76,1.76,0,0,1-.46-.12,3.16,3.16,0,0,0-.61-.2c-.7-.2-1-.38-1.16-.77s-.08-.72.42-1.34c.24-.31.34-.49.3-.59-.12-.38-1.11-1-2.82-1.69a11.16,11.16,0,0,0-3.5-.84c-1.91-.2-1.93-.2-2.09-.36a.51.51,0,0,0-.32-.17c-.24,0-.2-.08.14-.38A4,4,0,0,1,60,30.81c.1,0,.46-.08.84-.16a12.72,12.72,0,0,1,2.64-.24c2-.08,2.74-.19,2.74-.39A2.56,2.56,0,0,0,65.58,29a10.34,10.34,0,0,0-2.47-1.67,3.24,3.24,0,0,1-.75-.45.16.16,0,0,0-.14-.06c-.14,0-.14,0,0-.32s.32-.42,1.15-.4A7.76,7.76,0,0,0,64.72,26a16.47,16.47,0,0,1,3.9.24A10,10,0,0,1,75,29.38a1.43,1.43,0,0,0,.81.6c.2,0,.4.08.44,0s.06-.78-.1-1.14a2.51,2.51,0,0,1-.16-.43,2.35,2.35,0,0,0-.33-.6,1.67,1.67,0,0,1-.3-.58c.06-.22,1,.72,1.37,1.32a9.4,9.4,0,0,0,.91,1.07,16,16,0,0,1,2.37,3.6,9.91,9.91,0,0,1,.87,2.3c.18.68.38,1.45.42,1.71.14.7.18.5.08-.3a23.45,23.45,0,0,1,.12-4.79,3.55,3.55,0,0,1,.26-.83c.14-.28.4-.3.46,0,0,.1,0,1.17.07,2.4,0,2.11.18,3.68.3,3.44a2,2,0,0,0,.12-.47,33.24,33.24,0,0,1,1.41-5c.2-.6.56-1.65.78-2.35a31.07,31.07,0,0,1,1.31-3.14,17.62,17.62,0,0,1,1.91-3.5c.38-.5.5-.6.5-.4,0,0,.16-.16.37-.45.44-.62.64-.64.28,0-.46.79-1.63,3.14-2,4a45.49,45.49,0,0,0-1.61,4.87c-.16.62-.47,2.15-.69,3.38s-.48,2.53-.56,2.9a2.15,2.15,0,0,0-.12.92,2.87,2.87,0,0,1-.08,1c-.06.36-.14.92-.16,1.28a3.55,3.55,0,0,1-.45,1.78l-.24.42h.46a3.24,3.24,0,0,0,.83-.12,5.21,5.21,0,0,1,.66-.16c.29,0,.31-.06.25-.26s0-.21.34-.17a8.05,8.05,0,0,1,1.57.67,15.27,15.27,0,0,0,3.16,1.21,12.18,12.18,0,0,1,4,1.71,8.43,8.43,0,0,1,2,1.61,18.76,18.76,0,0,1,1.57,1.75c.83,1.08.85,1.12.71,1.26s-.43.17-.89-.22a7.32,7.32,0,0,0-2.23-1.18,7,7,0,0,0-2.52-.51,3.39,3.39,0,0,0,.53.91,9.66,9.66,0,0,1,1.08,2.27c.69,1.93.59,3.62-.22,3.62-.4,0-.68-.44-1.27-1.93a7.15,7.15,0,0,0-1.69-2.88,5.48,5.48,0,0,0-1.24-1c-.77-.44-.89-.44-.89,0a11.87,11.87,0,0,1-1.31,3.8c-.52.87-.9.85-1.49,0l-.38-.58-.24.64A11.9,11.9,0,0,1,85.1,55c-.14.2-.2.22-.4.18s-.3,0-1,.72c-.42.42-1.14,1.25-1.65,1.81a6.58,6.58,0,0,1-1,1.05s-.06-.1,0-.24" transform="translate(-42.24 -14.15)"/><path class="cls-11" d="M95.77,69.06a13.32,13.32,0,0,0,.46-2.39,30.28,30.28,0,0,0-1.37-13.16c-.36-1.09-1-2.64-.94-2.18a12,12,0,0,1,.26,4.23A33.43,33.43,0,0,1,93.43,60c-.34,1.32-1.22,2.89-1.61,2.89-.16,0-.12-.16.14-.64a12.9,12.9,0,0,0,1.37-4.75,18.91,18.91,0,0,0,.16-5.55c-.08-.73-.2-1.45-.24-1.61a.75.75,0,0,1,0-.33A8.63,8.63,0,0,0,92,48a10.59,10.59,0,0,0-2.13-2.15c-.28-.22-.74-.56-1-.79a11.84,11.84,0,0,0-1.43-.94c-.53-.3-.91-.54-.87-.58a4.38,4.38,0,0,1,1.71.56,18.85,18.85,0,0,1,1.71,1,7.15,7.15,0,0,0,1.19.7,2.82,2.82,0,0,1,.58.14,5.57,5.57,0,0,0,1.11.28,16.79,16.79,0,0,1,3.26,1.29,20.74,20.74,0,0,1,6.4,6c.74,1.1,1.19,2,1.06,2.11s-.26-.18-.7-.89a15.69,15.69,0,0,0-2.29-2.87A23.22,23.22,0,0,0,95.69,48a12.74,12.74,0,0,0-3.52-1.43l-.41-.1c-.08,0,.06.18.37.57A24.36,24.36,0,0,1,96.87,60a35.7,35.7,0,0,1,0,5.67c-.24,2.09-.64,3.58-1,3.58a.1.1,0,0,1-.1-.14M59.41,66s.2-.18.46-.32a19.82,19.82,0,0,0,5.19-4.51,15.89,15.89,0,0,0,2-4.83,8.43,8.43,0,0,1,.26-1c0-.08-.14,0-.38.26a6.09,6.09,0,0,1-.64.52c-.4.2-3,2-3.54,2.36-.29.22-.79.64-1.11.92s-.6.51-.64.47.62-.91,1.36-1.61a22.13,22.13,0,0,1,3.5-2.64,4.16,4.16,0,0,0,1.88-1.77,22,22,0,0,1,3.46-6.58c.24-.28.36-.48.3-.46s-3.12,2-4.45,2.89c-2,1.41-4.47,3.2-5.95,4.41-.77.58-2,1.57-2.78,2.17A44.61,44.61,0,0,0,54.07,60c-2.19,2.09-3.92,3.7-4,3.7s0-.2,1-1.25a77.05,77.05,0,0,1,6.54-6.38c.87-.7,2.22-1.83,3-2.49s2.08-1.67,2.82-2.24l1.37-1-1.09,0a18,18,0,0,0-3.54.26c-.32.08-1.41.4-2.41.72A17.69,17.69,0,0,1,55.3,52a8.63,8.63,0,0,0-3.72,1.59c-1,.74-1.23.82-1.11.38a3.79,3.79,0,0,1,2-1.65,14.73,14.73,0,0,1,2.84-.93,9.57,9.57,0,0,0,1.43-.44l.76-.3-.26-.1a9,9,0,0,0-1.69-.16A11.65,11.65,0,0,1,52.79,50c-.19-.19,1.06-.31,2.65-.29l1.47,0,.64.31.63.3,1-.32a11,11,0,0,1,4.43-.55c.93,0,1.79.08,1.89.1s.43-.12,1.41-.82c1.47-1.07,3.8-2.64,5-3.32s4.15-2.18,5-2.52A29.88,29.88,0,0,1,81,41.8c1-.17,2-.15,2.17.06s-.18.42-.74.54a31.23,31.23,0,0,0-6.83,2.31,19,19,0,0,0-1.87,1c-.14.12-.66.68-1.16,1.25a19.57,19.57,0,0,0-4.73,9A16.59,16.59,0,0,1,65.74,61,14.68,14.68,0,0,1,62,64.57c-1.09.83-2.49,1.59-2.59,1.43m20.64-1.87a3.25,3.25,0,0,1,.4-.4,6.62,6.62,0,0,0,1.65-2.44,27.22,27.22,0,0,0,2.5-8.39l.06-.72-.36.72c-.85,1.71-2.42,4-2.66,3.87,0,0,0-.16.1-.29.28-.38,2-3.62,2.26-4.22.12-.32.34-1,.5-1.53l.28-1-.06-1.24a10.73,10.73,0,0,0-.28-2.18c-.48-2.07-.48-2.09-.24-2.09s.22.16.6,1.63a21.38,21.38,0,0,1-.08,10c-1,3.88-2.66,7.27-4,8.13-.37.24-.67.3-.67.16m-9.58-.88a1.65,1.65,0,0,1,.16-.23A29.39,29.39,0,0,0,73,59.83a16.92,16.92,0,0,0,1.27-3c.26-.71.68-1.77.94-2.34,1.93-4.2,2.18-4.81,2.62-6.48.34-1.28.38-2,.14-2.43s.06-.5.42,0,.32,1.39-.06,3a21.94,21.94,0,0,1-2,5.15c-.5,1-1.17,2.51-1.49,3.28s-.66,1.57-.77,1.79a18.14,18.14,0,0,1-2.75,3.8c-.65.65-.83.81-.83.63M60,43.06c0-.26,2.39-1.93,3.82-2.69a17.39,17.39,0,0,1,2-.79,11.45,11.45,0,0,0,3.41-1.67,26,26,0,0,1,3.84-2,6.05,6.05,0,0,1,1.17-.14l.8-.06L74,35.09a26.94,26.94,0,0,0-3.9-1.85,16,16,0,0,0-1.79-.38A8.55,8.55,0,0,0,66,32.68a24.21,24.21,0,0,0-4.49.78,41.15,41.15,0,0,0-4.13,2,34,34,0,0,0-3.56,2.57,3.21,3.21,0,0,1-.74.57c0-.25.66-.95,1.55-1.69a18.14,18.14,0,0,1,5-3.22,10,10,0,0,1,2.65-1.09c1.81-.4,2.44-.52,2.88-.58.87-.1.18-.21-1.51-.25-2.59-.06-4,.21-8.63,1.53-1,.31-2.28.63-2.82.75a12.51,12.51,0,0,0-4.08,1.41c-.63.38-.69.24-.08-.2a9,9,0,0,1,3.92-1.49c1-.18,3-.75,4.73-1.29.52-.16,1.39-.4,1.89-.52l.93-.23-.37-.16a17.58,17.58,0,0,0-8-1.28,4.84,4.84,0,0,1-1.23,0c-.08-.09.46-.25,1.45-.47a10.33,10.33,0,0,1,2.19-.14,9.35,9.35,0,0,1,2.6.22c.56.12,1.24.3,1.52.39a17.5,17.5,0,0,1,2.36,1l.32.2,1.05-.14a18,18,0,0,1,4.79.1c1.41.3,3.66.89,4.08,1.07.24.08.46.16.5.16s-.12-.26-.38-.58-.58-.77-.7-1a11.51,11.51,0,0,0-4.83-3.6,16.37,16.37,0,0,0-3.42-.87c-.75,0-.91-.1-.69-.18.69-.28,3.65.22,5.2.89a10.46,10.46,0,0,1,4.26,3.28c.14.24.4.68.59.94s.46.71.62,1c.3.5.32.52,1.07.86a39.86,39.86,0,0,1,4.14,2.28,11.21,11.21,0,0,1,2.42,1.81A13,13,0,0,1,81.12,40c.06.13.06.21,0,.27s-.38-.21-.89-.71A19.41,19.41,0,0,0,77.17,37a7.31,7.31,0,0,0-1.85-.55,5.37,5.37,0,0,0-2.47.26c-.43.19-1.59.83-3.36,1.84a10.11,10.11,0,0,1-3.12,1.32c-.61.16-1.39.41-1.75.55a29,29,0,0,0-3.87,2.25c-.72.5-.74.52-.74.42" transform="translate(-42.24 -14.15)"/><path class="cls-12" d="M57.33,139.31a2.14,2.14,0,0,1-.34-.66,10.4,10.4,0,0,0-.92-1.71,8.48,8.48,0,0,1-.81-1.61,1.49,1.49,0,0,1,.36-.69.45.45,0,0,0,.12-.28c0-.26.18-.3.57-.14s.32.16.3.28.86,1.29,1.71,2a2.7,2.7,0,0,1,.64.67,2.74,2.74,0,0,1-.32.54,6.14,6.14,0,0,0-.52,1,5.26,5.26,0,0,1-.3.64.32.32,0,0,1-.49-.06m34.27-1.07c-.18-.16-.14-.66.16-1.34a3.89,3.89,0,0,0,.26-1c0-.38,0-.46-.12-.6a.51.51,0,0,1-.18-.23c0-.12.49-.24,1.35-.32a7.66,7.66,0,0,0,1.29-.26l1.35-.46c.48-.16,1-.36,1.14-.42.35-.15.45,0,.57.62a2.26,2.26,0,0,0,.82,1.47c.93.66,1.07.86.85,1.31a2.08,2.08,0,0,1-1.25.82c-.85.28-1.31.34-1.45.18a.66.66,0,0,0-.48-.12,1.54,1.54,0,0,1-1.13-.58c-.14-.16-.14-.16-.7.12a7.55,7.55,0,0,0-.85.48c-.3.22-.5.26-.58.12s-.12,0-.22,0a.87.87,0,0,1-.83.12m12.68-27.87c-.06-.06-.08-.16,0-.2a1.15,1.15,0,0,0-.08-.42,3.45,3.45,0,0,0-1-1.17,4.14,4.14,0,0,0-1.77-1.23,1,1,0,0,1-.42-.28c-.12-.16-.12-.18,0-.3a.63.63,0,0,1,.32-.14.15.15,0,0,0,.16-.16c0-.16.26-.42.65-.6.14-.08.44-.29.68-.45,1.21-.84,1.35-.92,1.55-.7a.89.89,0,0,1,.1.5,2.9,2.9,0,0,0,.66,1.79c.43.61.47.71.47,1.09a1.76,1.76,0,0,1-.47,1.33,2.62,2.62,0,0,0-.42.68.75.75,0,0,1-.12.3l-.14,0a.26.26,0,0,1-.22-.08M57.53,99.67a.45.45,0,0,1-.18-.28c0-.14-.06-.16-.32-.16s-.42-.09-.86-.43a8.12,8.12,0,0,1-.87-.72.79.79,0,0,0-.68-.3c-.57,0-.71-.16-.75-.75s.06-.52-.76-.42c-.37.06-.59,0-.59-.26a.82.82,0,0,0-.2-.36.79.79,0,0,1-.2-.87A2.83,2.83,0,0,1,53.49,94a2.22,2.22,0,0,0,1-.66c.46-.48.58-.54.7-.36a1,1,0,0,0,.34.26c.16.1.87.62,1.59,1.17s1.55,1.12,1.85,1.28c.69.35.73.53.3,1a2.39,2.39,0,0,0-.6,1.81c0,.77-.12,1.09-.46,1.23a.59.59,0,0,1-.65,0m-4-4.33c0-.1,0-.08-.16.06s-.08.12,0,.06.14-.08.14-.12" transform="translate(-42.24 -14.15)"/><path class="cls-13" d="M57.55,139.39s-.1-.68-.16-1.41l-.1-1.31-.42-.8c-.24-.44-.52-.91-.62-1.07s-.23-.52,0-.52a5.34,5.34,0,0,1,.9,1.17.47.47,0,0,0,.22.12,3.1,3.1,0,0,1,.83.62,4.2,4.2,0,0,0,.74.64c.26.11.26.31,0,.57a4.63,4.63,0,0,0-.74,1.43c-.22.56-.46.78-.61.56m34.37-1.11s-.14-.06-.26-.06-.22,0-.2-.38a2.11,2.11,0,0,1,.16-.72,2.89,2.89,0,0,0,.24-1.71c-.08-.23-.08-.25.14-.43a.9.9,0,0,1,1-.18c.34.1.38.08,1.07-.22,1-.46,1.59-.62,1.81-.52s.28,0,.78-.24a2.06,2.06,0,0,1,.71-.29c.18.09.1.29-.26.61a7.87,7.87,0,0,1-3.14,1.39l-.65.16c-.06,0-.12.06-.16.12a5.19,5.19,0,0,0,0,1.25l.46-.31a1,1,0,0,1,.85-.24,1.08,1.08,0,0,1,.7.26,2.93,2.93,0,0,0,2,.85h.46l-.44-.3a5.93,5.93,0,0,1-.65-.47,2.19,2.19,0,0,1-.64-1.1c0-.34.26-.28.78.16A5,5,0,0,0,98.5,137c.27,0,.47.12.47.16s-.93,0-1.35-.22a1.5,1.5,0,0,0-.42-.19,5,5,0,0,0,.52.39c.56.38.66.52.48.7s-.36.12-1.08.14a5.7,5.7,0,0,0-1.05.08c-.12.06-.44-.1-.83-.42a1.16,1.16,0,0,0-1.57-.18,5.45,5.45,0,0,0-.64.4,1.62,1.62,0,0,1-.42.2.6.6,0,0,0-.32.16.27.27,0,0,1-.37.06m12.16-28.43c-.08-.18-.28-.56-.44-.89a1.43,1.43,0,0,0-.73-.84,9.79,9.79,0,0,0-1-.52c-.62-.29-.9-.53-.86-.75s.56-.54.82-.54a.45.45,0,0,0,.29-.12.31.31,0,0,1,.24-.12c.08,0,.2-.1.28-.2s.16-.21.2-.21.2-.12.32-.24a.68.68,0,0,1,.39-.24.45.45,0,0,0,.26-.12.25.25,0,0,1,.3-.08c.14,0,.18,0,.16-.1a.1.1,0,0,1,.1-.14c.14,0,.2.28.12.56a2.14,2.14,0,0,1-.44.65c-.67.72-.71,1-.26,1.73a9.31,9.31,0,0,1,.84,2.33,1.07,1.07,0,0,1-.26.12c-.18,0-.22,0-.36-.28M57.53,99.43c-.12-.16-.2-.18-.6-.14s-.46,0-.68-.23a.78.78,0,0,0-.31-.24c-.16,0-.52-.32-.76-.66-.44-.62-.24-.75.28-.2a1.14,1.14,0,0,0,1.13.42c.56-.1.82-.46,1-1.37a2.74,2.74,0,0,1,.25-.7c.1-.16.08-.18-.57-.51a5,5,0,0,1-2.41-2.25c-.34-.64-.2-1,.22-.44.12.12.22.2.24.18s.71.38.66.48a4.27,4.27,0,0,0,1.37,1.07,6.35,6.35,0,0,1,1.19.78.74.74,0,0,0,.46.14c.31,0,.55.17.35.23s-.09.06-.06.1a1.65,1.65,0,0,1-.21.58,5,5,0,0,0-.28.66c0,.16-.18,1.17-.24,1.71a.64.64,0,0,1-1.07.39m-4.36-2.82s.1-.14.2-.26c.28-.3.34-.59.16-.73s-.12-.12-.06-.2.48,0,.58.36a.65.65,0,0,1-.24.77c-.12.08-.64.14-.64.06" transform="translate(-42.24 -14.15)"/><path d="M57.21,140.05a7.77,7.77,0,0,1-.7-1.28c-.28-.63-.71-1.45-.93-1.85a4.44,4.44,0,0,1-.64-1.74c0-.26.26-.54.8-.84l.39-.22-.33-.53a14.14,14.14,0,0,1-1.75-4.9,15.09,15.09,0,0,1,0-3.91,11.27,11.27,0,0,1,3.34-6.34,10.26,10.26,0,0,1,4.65-2.57,7,7,0,0,1,2.52-.26,9.32,9.32,0,0,1,3.52.48,14,14,0,0,1,3.06,1.55l.64.48.56-.62c.31-.33.67-.77.83-1a6,6,0,0,1,.54-.66l.26-.28-.82-.07a12.81,12.81,0,0,1-5.17-1.4,14.76,14.76,0,0,1-7.57-16.77l.18-.68-.3-.12-.3-.12-.48.56a2.36,2.36,0,0,0-.81,1.75c0,.59-.06.67-.28.85s-.64.26-.74.1-.27-.06-.71,0c-.88.08-1.11-.06-1.77-1.23L55,98l-.44,0a.92.92,0,0,1-.67-.24c-.2-.21-.22-.27-.2-.61s0-.38-.12-.3a1.53,1.53,0,0,1-1.11,0,1.69,1.69,0,0,1-.72-1.19c0-.82.72-1.55,1.85-1.89a1.8,1.8,0,0,0,1-.84c0-.1-.14-.39-.63-1a14.41,14.41,0,0,1-3.44-9.2,12.13,12.13,0,0,1,2.4-7.42,10.73,10.73,0,0,1,2.15-2.21,12.51,12.51,0,0,1,4.75-2.44,12.75,12.75,0,0,1,3.94-.48,12.79,12.79,0,0,1,4.67.76l1.23.41s0-.39,0-.85A9.24,9.24,0,0,1,70,67.91c.1-.3.1-.32,0-.3a9.33,9.33,0,0,1-3.38.14c-.42-.1-.54-.32-.48-.78l.06-.34-.26.1a4.67,4.67,0,0,0-.87.44,11.51,11.51,0,0,1-3.36,1.15,25.17,25.17,0,0,1-6.38.48,3,3,0,0,1-1.59-.34,2.22,2.22,0,0,1-.68-.47.75.75,0,0,1,0-.88c.22-.24.08-.28-.47-.14l-1.34.36c-.47.14-1.07.34-1.35.44a9.57,9.57,0,0,1-4.59.59,5.21,5.21,0,0,1-2-.39c-.26-.14-.39-.16-.41-.08-.16.47-.38-.52-.38-1.67a8.52,8.52,0,0,1,.77-3.48,23.26,23.26,0,0,1,3.14-5.91,5.37,5.37,0,0,0,.44-.59,7.1,7.1,0,0,0-2,1.31c-.33.36-.73.24-.73-.18a5.45,5.45,0,0,1,.16-.8c.53-1.86,2.06-4,4.81-6.87.73-.72,1.31-1.34,1.31-1.36A3.68,3.68,0,0,0,49,48.5c-.88.2-1,0-.64-.89.64-1.37,2.15-2.66,5-4.29a18.63,18.63,0,0,0,3.66-2.75c.12-.16.18-.26.1-.2a14.35,14.35,0,0,1-2.59.86,6.27,6.27,0,0,1-2.06.24,4.35,4.35,0,0,1-2-.28c-.84-.28-1.25-.5-1.25-.68a1.19,1.19,0,0,1,.31-.39c.32-.26.7-.76.64-.82a2.14,2.14,0,0,0-.54.12,4.38,4.38,0,0,1-1.77.14,3.27,3.27,0,0,1-1.8-.28A2.75,2.75,0,0,0,45.3,39a3,3,0,0,0-1.79,1c-.56.61-.83.71-1.07.41a2.38,2.38,0,0,1-.1-1.69,9.27,9.27,0,0,1,1.31-2.66,14.37,14.37,0,0,1,2-2c.3-.2.22-.38-.2-.5a1.85,1.85,0,0,1-1-.69,1.52,1.52,0,0,1,0-1,24.89,24.89,0,0,1,4.47-4.5,24.13,24.13,0,0,1,8.45-4.29,20.59,20.59,0,0,1,13.24.56,17,17,0,0,1,5.72,3.75,16.44,16.44,0,0,1,4.41,7l.3.93.06-.73a56.79,56.79,0,0,1,1-6.38,45.1,45.1,0,0,1,3.67-11c.28-.51.52-1,.56-1,.22-.22.08.2-.6,1.89A52.41,52.41,0,0,0,83,26.8c-.22,1-.95,5.05-1.13,6.22-.06.4-.16,1.35-.24,2.13l-.18,1.74a2.93,2.93,0,0,0,0,.84c0,.28.08,1,.1,1.57.08,1.53.26,1.81,1.45,2.21a3.36,3.36,0,0,0,.72.22s.06-.5.12-1.06a88.8,88.8,0,0,1,1.57-9.06,73.18,73.18,0,0,1,2.22-7.1,18.19,18.19,0,0,1,2.09-4.09s.08,0,.08,0-.34.84-.76,1.83a40.92,40.92,0,0,0-1.94,5.39,73.66,73.66,0,0,0-2.41,11.69c-.16,1.07-.3,2.07-.32,2.25l-.06.31.44,0a6,6,0,0,0,1-.31,7.12,7.12,0,0,1,3.34-.38,10.34,10.34,0,0,1,5.11,1.25c.5.24,1.37.64,1.93.88a17.56,17.56,0,0,1,4.69,2.82,19.12,19.12,0,0,1,5.21,8.05,9.85,9.85,0,0,1,.68,4.29c0,2.45-.18,3.36-.72,3.9s-.72.2-1.37-1.29a9.77,9.77,0,0,0-.5-1.06s-.1.66-.18,1.43a17.09,17.09,0,0,1-.75,3.7,23.22,23.22,0,0,1-3.12,5.55c-.72.75-1.14.87-1.53.46-.2-.22-.2-.2-.32,1.15a11.5,11.5,0,0,1-3.3,7.35,14,14,0,0,1-2.57,2.09c-.33.16-.91.54-.87.6a3,3,0,0,0,.18.47c.08.22.16.4.16.42a3.56,3.56,0,0,0,.67-.16,15.42,15.42,0,0,1,7.16-.34,13.72,13.72,0,0,1,4.71,2,11.64,11.64,0,0,1,4.91,7.34,16.35,16.35,0,0,1,0,4.53,14.19,14.19,0,0,1-3.5,6.88,2.56,2.56,0,0,0-.87,1.69,3.18,3.18,0,0,0,.49,2,1.14,1.14,0,0,1,.28.85,2.86,2.86,0,0,1-.5,1.55,2.53,2.53,0,0,0-.35.7c-.14.36-.2.45-.38.47s-.36-.13-1.07-1.35a4.48,4.48,0,0,0-2-1.85,3.18,3.18,0,0,0-2.23,0,14.88,14.88,0,0,1-7.67.16,12.81,12.81,0,0,1-4.91-2.48l-.58-.48v.36a4.18,4.18,0,0,0,.14.87,28.09,28.09,0,0,0,1.25,3c.22.45.24.47.44.43a16.16,16.16,0,0,1,5-.28,14,14,0,0,1,8.13,3.72,12.37,12.37,0,0,1,.8,17.32,12.94,12.94,0,0,1-3.58,2.94c-.54.32-.56.32-.62.69a2.21,2.21,0,0,0,.38,1.45,1.31,1.31,0,0,0,.73.68c.48.24.78.56.78.82a1.73,1.73,0,0,1-.68,1.11,7.94,7.94,0,0,1-1,.48,1.75,1.75,0,0,1-1.29.16,2.34,2.34,0,0,1-1.55-.72c-.28-.28-.36-.32-.66-.32a1,1,0,0,0-.77.34,4.28,4.28,0,0,1-1,.58c-.69.25-1,.23-1.27-.1l-.2-.18.2-.82a4.5,4.5,0,0,0,.16-2c-.08-.23-.1-.23-.56-.23a16,16,0,0,1-3-.38,12.68,12.68,0,0,1-10.38-14.91,12.57,12.57,0,0,1,2.67-5.63l.49-.59-.33.2a12.3,12.3,0,0,1-2,1,2.2,2.2,0,0,0-1.07.85c-.32.38-.74.88-.92,1.12a23.12,23.12,0,0,1-2.26,2.52c-.54.52-.6.6-.48.66a9.14,9.14,0,0,1,2,2.88,12.93,12.93,0,0,1,.89,9.26A11,11,0,0,1,70,139.09a8.8,8.8,0,0,1-3.64.58,9.92,9.92,0,0,1-2.3-.16,12,12,0,0,1-4.14-1.69c-.52-.34-.73-.44-.81-.36a3.91,3.91,0,0,0-.6,1.45,1.66,1.66,0,0,1-.64,1.06c-.31.27-.41.27-.63.08m.61-.82a1.21,1.21,0,0,0,.22-.46,4,4,0,0,1,.68-1.31l.24-.26-.34-.3a10.54,10.54,0,0,1-1.69-1.72,3.79,3.79,0,0,0-.66-.7,2.69,2.69,0,0,0-.93.66,4,4,0,0,0,.75,1.57,16.63,16.63,0,0,1,1.34,2.66c0,.18.2.1.39-.14m10-.68a10,10,0,0,0,8-8.11,14.37,14.37,0,0,0,.12-3.59A12.22,12.22,0,0,0,73.61,121a6.79,6.79,0,0,1-.52-.79,8.28,8.28,0,0,0-2-1.73,10.93,10.93,0,0,0-9.4-1.51A10,10,0,0,0,55,124.92a14.91,14.91,0,0,0,0,3.89,11.75,11.75,0,0,0,9.82,9.8,15.6,15.6,0,0,0,2.9-.06M92.55,138a2.11,2.11,0,0,0,.92-.46c.39-.32.47-.36.87-.36a1.16,1.16,0,0,1,.84.28,2.86,2.86,0,0,0,1.57.44,5.12,5.12,0,0,0,2-.72c.5-.43.4-.75-.33-1.15a4.46,4.46,0,0,1-1.24-1.89c-.06-.34-.12-.42-.23-.38a15.21,15.21,0,0,1-4,1.1A8,8,0,0,0,92,135a1,1,0,0,0,0,.37,3.31,3.31,0,0,1-.24,1.85,3.23,3.23,0,0,0-.2.84c.08.1.38.1,1-.06m1.23-4.36a12.68,12.68,0,0,0,10.06-9.58,14.17,14.17,0,0,0,.08-3.91,12.36,12.36,0,0,0-9.74-9.94,13.71,13.71,0,0,0-7,.32,1.61,1.61,0,0,1-.76.13c-.2,0-.4.06-1.25.56A13.35,13.35,0,0,0,79.57,117a9.55,9.55,0,0,0-1.17,5.11,9.23,9.23,0,0,0,.48,3.51,12.38,12.38,0,0,0,6,6.88A14.65,14.65,0,0,0,89,133.8a20.23,20.23,0,0,0,4.79-.12M74.56,117.74c.34-.42.8-1,1-1.31s.89-1.11,1.47-1.81,1.39-1.73,1.77-2.27.89-1.27,1.13-1.59A15.08,15.08,0,0,0,81.5,108c.28-.6.68-1.47.91-1.91s.46-1,.54-1.25c.3-.76.56-1.21.7-1.17s.39.69.59,1.75a20.28,20.28,0,0,0,1.37,4.87.45.45,0,0,0,.5-.2c0-.1.22-.22.52-.32a1.33,1.33,0,0,0,.5-.24.82.82,0,0,0-.14-.24c-.08-.12-.38-.71-.68-1.33a10.83,10.83,0,0,1-1.09-3.56,1.62,1.62,0,0,0-.46-1.15A8.91,8.91,0,0,1,83,99.55a6,6,0,0,0-.2-1c-.08-.34-.18-.88-.22-1.21-.06-.74-.1-.66-.43.89a34.47,34.47,0,0,0-.6,3.76,21.23,21.23,0,0,1-3,8.8,32.46,32.46,0,0,1-2.55,3.5c-1.91,2.11-2.72,3-3.26,3.52l-.65.62.49.49.48.48.42-.42c.24-.25.71-.77,1-1.19m.88-3.8a32.83,32.83,0,0,0,4.85-7.79,20.68,20.68,0,0,0,1-4.87c0-.55.14-1.39.2-1.89a27.14,27.14,0,0,0,.22-4.77l0-1.69-.54-.49c-1-.9-3-2.23-3.12-2a21,21,0,0,1-1.27,2.07c-3.14,4.25-9.13,6.16-14.59,4.67l-.66-.2-.08.22A13.57,13.57,0,0,0,61,99.37a17.12,17.12,0,0,0,.16,4.4,13.49,13.49,0,0,0,11.3,10.77c.15,0,.73,0,1.33,0l1.09,0Zm4.89-1.35a14.66,14.66,0,0,0,3.1-3.18,12.28,12.28,0,0,0,.63-1.09,6.67,6.67,0,0,0-.17-1.17,16,16,0,0,1-.3-1.77,6.92,6.92,0,0,0-.1-.82,1.45,1.45,0,0,0-.18.48,10.06,10.06,0,0,1-.42,1.11c-.14.32-.48,1.1-.73,1.73a14.88,14.88,0,0,1-2.07,3.82c-.6.89-1.08,1.63-1.08,1.65a6.27,6.27,0,0,0,1.32-.76m4.23-1.87a6,6,0,0,0,.54-.27,7.2,7.2,0,0,0-.58-1,7.2,7.2,0,0,0-.46.66c-.25.36-.61.83-.79,1a3.62,3.62,0,0,0-.32.42,2.53,2.53,0,0,0,.54-.28,7.8,7.8,0,0,1,1.07-.56M105,109.47a1.64,1.64,0,0,0,.1-2,6.27,6.27,0,0,1-.36-.57,4.75,4.75,0,0,1-.38-1.63c0-.34,0-.34-.18-.22a20.88,20.88,0,0,1-2.42,1.51,3.15,3.15,0,0,0-.72.42l.38.1a2.82,2.82,0,0,1,1.39.75,4.41,4.41,0,0,1,1.45,1.91l.28.56.12-.28a2.22,2.22,0,0,1,.34-.54m-8.81-2.2a13.56,13.56,0,0,0,5.07-1.44,14.62,14.62,0,0,0,4.29-3.26,12.08,12.08,0,0,0,2-2.9,11.11,11.11,0,0,0,.9-7.85,10.3,10.3,0,0,0-3-5.17,12.08,12.08,0,0,0-7.57-3.46,14.53,14.53,0,0,0-11.59,4.75,13.47,13.47,0,0,0-3.08,6,18.72,18.72,0,0,0,0,4.73c.1.46.2.73.3.79a.73.73,0,0,1,.2.32,13.66,13.66,0,0,0,1.19,2.35,12.14,12.14,0,0,0,9.88,5.23,12.77,12.77,0,0,0,1.41-.06M58.28,99.45c.18-.16.2-.26.26-1a3.43,3.43,0,0,1,.54-2l.29-.38L59.06,96a18.15,18.15,0,0,1-3.54-2.46c-.52-.44-.6-.5-.68-.38a1.88,1.88,0,0,1-1.05.86,2.1,2.1,0,0,0-1.25,1c-.3.62-.18,1.13.35,1.39s1.16,0,1.16-.32-.18-.47-.54-.51-.44-.14-.18-.22a.85.85,0,0,1,.88.26.8.8,0,0,1,0,1c-.26.52-.26.76,0,1s.27.16.39.08.38,0,1.08.64.87.82,1.25.82a1.39,1.39,0,0,1,.62.25,3.32,3.32,0,0,0,.43.24,1.18,1.18,0,0,0,.26-.18m9.26-2.72a13.41,13.41,0,0,0,2.91-.6,11.59,11.59,0,0,0,7.37-7.39,12.63,12.63,0,0,0-.55-8.91,13.75,13.75,0,0,0-2.55-3.93c-.5-.54-.58-.84-.3-1s.4-.06.86.48A15.25,15.25,0,0,1,78.52,81c.28.85.32.93.59,1a7.44,7.44,0,0,0,1.79.54,9.48,9.48,0,0,0-.08-1.14c-.06-.63-.16-2.14-.25-3.34s-.18-2.8-.24-3.51-.18-2-.24-2.73c-.14-1.45-.4-3.48-.46-3.54a.48.48,0,0,0-.26,0c-.18.06-.36.28-.69.78s-.72,1.05-1,1.47A33.37,33.37,0,0,1,74.28,74l-.27.18.17.26a1.71,1.71,0,0,1,.16.35c0,.22-.43.06-1-.37a16.71,16.71,0,0,0-6.86-3.22A10.21,10.21,0,0,0,63.59,71a10.4,10.4,0,0,0-2.68.18A11.62,11.62,0,0,0,51.74,80a8.46,8.46,0,0,0-.22,2.63,10.26,10.26,0,0,0,.6,4A17.13,17.13,0,0,0,54,90.43a15.39,15.39,0,0,0,9.26,6,14.29,14.29,0,0,0,4.25.28m15.81-5.25a15.42,15.42,0,0,1,1.13-2.3c.24-.38.24-.38.2-1.18,0-.45-.1-1.41-.16-2.14s-.2-2.47-.28-3.86S84,78.9,84,78.22c-.17-1.67-.17-2.42,0-2.48a.27.27,0,0,1,.26.08,3.66,3.66,0,0,0,.44.26,9.39,9.39,0,0,1,2,1.73A29.68,29.68,0,0,1,89,81.07a15.91,15.91,0,0,1,1.14,2.62l.08.3.57-.24c.42-.18.56-.28.54-.38a14.61,14.61,0,0,0-1.53-3.1c-.54-.87-2.13-3.06-2.78-3.86a24.72,24.72,0,0,1-2.17-3.06,11,11,0,0,1-.86-2.6c-.11-.48-.29-1.21-.39-1.63a9,9,0,0,1-.24-3.78c0-.16-.06-.08-.36.28a12,12,0,0,1-2.33,2.13c-.43.24-.49.31-.43.45a48.78,48.78,0,0,1,1.17,8.63c.06,1.27.18,3.2.24,4.29.12,2,.22,4,.36,7.46a18.53,18.53,0,0,0,.16,2.13,16.36,16.36,0,0,1,.41,2.66,1.05,1.05,0,0,0,.06.48,3.17,3.17,0,0,0,.26-.84,15,15,0,0,1,.48-1.53m-1.73-1c0-.32-.12-1.21-.2-2s-.22-2.19-.28-3.14S81,83.63,81,83.61s-1.45-.46-1.83-.56c0,0,0,.68,0,1.51a12.29,12.29,0,0,1-.43,4,5,5,0,0,0-.2.79c0,.06.22.24.51.4a14.71,14.71,0,0,1,2.15,1.57l.36.32.06-.3a3.76,3.76,0,0,0,0-.85M86.25,87a15.88,15.88,0,0,1,3.4-2.66l.38-.2-.3-.44-.3-.44s-.44.1-1,.24a16,16,0,0,1-3,.48h-.4v2.18l0,2.19.28-.36c.16-.18.55-.63.89-1m.36-4.08c.3,0,1-.17,1.43-.29l.87-.2-.17-.3c-.22-.38-1-1.55-2-2.92a20.38,20.38,0,0,0-2.37-2.69,1.29,1.29,0,0,0,0,.42,37.43,37.43,0,0,1,.48,4.35c.06.88.1,1.65.12,1.71s.5.08,1.61-.08m4.59-1.43a3.21,3.21,0,0,1,.54-.37,10.88,10.88,0,0,0,2.34-1.81,11.11,11.11,0,0,0,3.2-5.71c.22-1,.22-1-.1-.77a2.1,2.1,0,0,1-1.09.45c-.26,0-.38.14-1.45,1.81-.89,1.35-1.09,1.57-1.51,1.57a1.24,1.24,0,0,1-1-.63A5.61,5.61,0,0,1,92,74.74a30.26,30.26,0,0,1,.41-4.27,16,16,0,0,0,0-4.89,9.15,9.15,0,0,0-.24-1.31s-.21.16-.41.44A13.58,13.58,0,0,1,89.49,67c-.24.1-.28.08-.44-.06l-.16-.16.22-1.19A16.76,16.76,0,0,0,89.27,60c-.18-.89-.2-.91-.34-.29a11.85,11.85,0,0,1-3.26,5.5c-.89.84-1.17.78-1.19-.24,0-.55-.1-.83-.26-.85s-.12.12-.18.89c-.06,1,0,1.41.58,4.85a12.34,12.34,0,0,0,.86,3.4,16,16,0,0,0,1.88,2.55,34.73,34.73,0,0,1,3.26,4.87c.42.85.48,1,.58.81m2.27-5.58c.12-.14.53-.66.87-1.14.66-.93,1.61-1.94,1.73-1.86s.8-.66,1.31-1.5c.7-1.25.8-1.37,1-1.51s.22-.1.39,0a.79.79,0,0,1,.2.52c0,.22.08.4.12.4a2.67,2.67,0,0,0,.46-.38,12.49,12.49,0,0,0,1.79-3,20.79,20.79,0,0,0,2.26-6.8c.22-1.71.3-1.81.88-1.15a5.57,5.57,0,0,1,1,1.77,1.32,1.32,0,0,0,.24.53c.4-.12.56-3.67.24-5.24a20.85,20.85,0,0,0-1.39-4c-1.75-3.68-4.83-6.86-7.81-8.09-.38-.16-1.32-.6-2.07-1a12,12,0,0,0-5.69-1.55,8.37,8.37,0,0,0-3.1.34,5,5,0,0,1-1.79.22l-1.17,0-.6-.28a2.44,2.44,0,0,1-.75-.49,2.66,2.66,0,0,0-.28-.38c-.14-.16-.18-.34-.22-1.17A18.06,18.06,0,0,0,77.76,30a22.38,22.38,0,0,0-2.94-3.08,18.19,18.19,0,0,0-8.61-3.72A26.05,26.05,0,0,0,61,23.1a22.72,22.72,0,0,0-12,5c-1.47,1.19-4.1,4-4.1,4.31a1.68,1.68,0,0,0,.68.76c.16,0,.61.49.61.65s-.23.36-.49.62A10,10,0,0,0,43.87,37a13.15,13.15,0,0,0-1,2.65l-.06.32.51-.4a5,5,0,0,1,2-.9,2.33,2.33,0,0,1,.66.16,8.93,8.93,0,0,0,4-.2,4.22,4.22,0,0,1,.78-.13c.32,0,.34,0,.3.15a2.72,2.72,0,0,0-.12.48,2.25,2.25,0,0,1-.78,1.27l-.24.18.76.12a10.29,10.29,0,0,0,4.43-.26c1.63-.37,1.93-.47,2.59-1a7.15,7.15,0,0,0,.61-.54.3.3,0,0,1,.2-.06c.22,0,.22.3,0,.74A10.24,10.24,0,0,1,53.75,44a17,17,0,0,0-4.14,2.82,5.66,5.66,0,0,0-.61.82l-.18.32h.93c.78,0,1,0,1.08.14s.14.16.1.2a2.23,2.23,0,0,0-.22.35A13.22,13.22,0,0,1,49.53,50a26.44,26.44,0,0,0-2.82,3.38,11.34,11.34,0,0,0-1.61,2.87l-.2.57.84-.43c.93-.44,1.49-.58,1.53-.34a3,3,0,0,1-.48.89,25.17,25.17,0,0,0-2.66,5.45,13.59,13.59,0,0,0-1.08,4.23l-.06.7.36.12a21.33,21.33,0,0,0,3.78.32,22.81,22.81,0,0,0,3.26-.56c.12-.06.75-.24,1.35-.4,1.29-.34,1.77-.36,1.81-.06a.74.74,0,0,1-.16.42c-.2.28-.14.44.26.64s1.33.35,3.22.31c3.5-.1,6.86-.71,8.57-1.59,1-.53,1.43-.43,1.19.26-.18.5-.12.54.68.56a12,12,0,0,0,5.48-1.55c.52-.26,1.2-.58,1.53-.72a8.49,8.49,0,0,0,1.22-.69,3.57,3.57,0,0,1,.81-.44c.36,0,.74.91.92,2.21.15,1,.23,1.19.63,1.37s.74.16,1.49-.12a11.51,11.51,0,0,0,3.66-2.82,6.21,6.21,0,0,1,1-.88c.42-.24.88.22.88.88s.08.63.81-.18a13,13,0,0,0,1-1.24A9.69,9.69,0,0,0,88.5,58c0-.54.12-.8.35-.8a.36.36,0,0,1,.28.1,13.3,13.3,0,0,1,1,3.38,15.6,15.6,0,0,1-.28,4.69,5.29,5.29,0,0,0-.16.82s2.46-2.39,2.46-2.47.24-.36.26-.32a8.69,8.69,0,0,1,.42,1.24,15.41,15.41,0,0,1,.28,1.53,13.26,13.26,0,0,1,0,4.07c-.7,4.22-.76,5.53-.26,5.77.3.14.42.1.68-.16M75.38,72.2a47,47,0,0,0,3.12-3.66s0-.06-.12-.06a4.44,4.44,0,0,1-.68-.14l-.57-.14-.32.36a41.1,41.1,0,0,1-3.16,3.22,10.23,10.23,0,0,0-1,1c-.12.19-.1.21.44.65l.58.44.38-.32c.21-.16.81-.77,1.35-1.33m-3.06-.14a13.65,13.65,0,0,0,1.17-1l1.15-1a14.53,14.53,0,0,0,1.89-2.12l.28-.42,0-.88a6.86,6.86,0,0,0-.4-2.16s-.34.14-.71.39a8.79,8.79,0,0,1-.8.52c-.1,0-.38.2-.62.34a24.7,24.7,0,0,1-3.1,1.59l-.63.22-.1.83a16.08,16.08,0,0,0,0,3.3,4.85,4.85,0,0,0,1.33.78,1.39,1.39,0,0,0,.56-.34" transform="translate(-42.24 -14.15)"/></g></g></g></g></svg>