<svg xmlns="http://www.w3.org/2000/svg" viewBox="0 0 83.62 101.12"><defs><style>.cls-1{fill:#9d9078;}.cls-2{fill:#8b7d65;}.cls-3{fill:#c4beb0;}.cls-4{fill:#5c4c44;opacity:0.7;}.cls-5{fill:#e9e2d3;}.cls-6{fill:#f7f0df;}.cls-7{fill:#fbf8ef;}.cls-8{fill:#e0d8c8;}</style></defs><title>Asset 4</title><g id="Layer_2" data-name="Layer 2"><g id="_30-Egg" data-name="30-Egg"><path class="cls-1" d="M80.72,29.08,59.89,23.56s-11.2,11.35-11.26,22C48.63,45.52,67.89,47.85,80.72,29.08Z"/><path class="cls-2" d="M55.92,26.92c1.34.68,15.36,5,24.8,2.16L59.89,23.56A20.2,20.2,0,0,0,55.92,26.92Z"/><path class="cls-3" d="M48.56,101.12s23-6,35.06-12.25c0,0-1-42.77-2.9-59.79,0,0-16.47,8.84-32.09,16.44A305.2,305.2,0,0,0,48.56,101.12Z"/><path class="cls-4" d="M60.81,89.09c2.48-1.14,5.41-3.77,3.63-6.8-2.34-4-8.61-4.59-8.86-9.89-.14-2.75,2.26-5.55,3.72-7.69a21.89,21.89,0,0,0,3.21-5.86c1-3.23-1.58-6-4.65-6.41-4.18-.56-7.43,1.58-9.64,4.72-.18,7.52-.28,18,.06,29.63C52.09,89.52,56.57,91,60.81,89.09Z"/><path class="cls-5" d="M1.11,33.76S-.11,65.24,0,91.67c0,0,15,3.85,48.55,9.45l.07-55.6Z"/><path class="cls-6" d="M48.63,45.52l11.26-22L21.23,15.37,1.11,33.76S25.67,40.19,48.63,45.52Z"/><path class="cls-7" d="M25.6,13.77C24.59,14.1,8,30.22,8,30.22S44.35,37,53.08,20.39Z"/><path class="cls-5" d="M21.23,15.37,25.3,0,58.67,6.3l1.22,17.26A311.39,311.39,0,0,1,21.23,15.37Z"/><path class="cls-4" d="M77,49.84c2.52.88,4.32,2.21,3,4.91a29.66,29.66,0,0,1-2.87,4.08c-2.52,3.34-5.41,10.76.68,12.26a9.28,9.28,0,0,0,5.51-.75c-.43-11-1.15-26.12-2.09-36.73A39.11,39.11,0,0,0,77,37.32C75,39.48,72.88,42,72.48,45,72.12,47.69,74.89,49.12,77,49.84Z"/><path class="cls-4" d="M78.71,90.38c-.1.29-.2.58-.3.85C78.42,91.29,78.5,91.08,78.71,90.38Z"/><path class="cls-4" d="M78.41,91.23c0-.13.45-2,.48-2.34.24-2.29,0-7.63-3.65-7.31-3.27.3-4.46,3.87-4.66,6.69A13.53,13.53,0,0,0,71.66,94c2.31-.85,4.59-1.73,6.73-2.64Z"/><path class="cls-4" d="M41.94,60.07c.43-1.86-10.13-.9-10.13-.9s-.6-7.19-2.27-6.92-2.36,5.35-2.36,5.35L21.9,56.41s1.32-6-.21-6.21c-1.87-.3-3.9,4.94-3.9,4.94S6.84,51.1,7.1,53.27s8.05,6.65,8.05,6.65S6.35,78,22.25,81.78c16.77,3.94,11-18,11-18S41.51,61.93,41.94,60.07ZM21.05,75.8a1.84,1.84,0,0,1-3.22-1.71,1.84,1.84,0,0,1,3.22,1.71ZM26,77.72a1.63,1.63,0,1,1,1.44-2A1.74,1.74,0,0,1,26,77.72Z"/><path class="cls-8" d="M21.23,15.37a311.39,311.39,0,0,0,38.66,8.19L58.67,6.3,56.3,5.85c-.2,4.25-1.2,10.07-5,11.7C45.51,20,24.8,14,21.83,13.12Z"/><path class="cls-8" d="M43.24,44.19c-.66,11.5-2.77,37.4-8.66,42.9S8.87,89.18,0,87.26c0,1.48,0,2.95,0,4.41,0,0,15,3.85,48.55,9.45l.07-55.6Z"/></g></g></svg>