<svg xmlns="http://www.w3.org/2000/svg" xmlns:xlink="http://www.w3.org/1999/xlink" viewBox="0 0 97.62 117.33"><defs><style>.cls-1{isolation:isolate;}.cls-2{fill:#c55400;}.cls-3{fill:url(#linear-gradient);}.cls-4{fill:#ffc56d;}.cls-10,.cls-21,.cls-4{opacity:0.5;}.cls-5{fill:url(#linear-gradient-2);}.cls-6{fill:url(#linear-gradient-3);}.cls-10,.cls-13,.cls-14,.cls-18,.cls-7{fill:#df8c20;}.cls-26,.cls-7{opacity:0.4;}.cls-10,.cls-13,.cls-14,.cls-18,.cls-29,.cls-7{mix-blend-mode:multiply;}.cls-8{fill:url(#linear-gradient-4);}.cls-9{fill:url(#linear-gradient-5);}.cls-11{fill:url(#linear-gradient-6);}.cls-12{fill:url(#linear-gradient-7);}.cls-13,.cls-16{opacity:0.3;}.cls-14{opacity:0.7;}.cls-15{fill:url(#linear-gradient-8);}.cls-16,.cls-21,.cls-23,.cls-24{fill:#fff46d;}.cls-17{fill:url(#linear-gradient-9);}.cls-18{opacity:0.2;}.cls-19{fill:url(#linear-gradient-10);}.cls-20{fill:url(#linear-gradient-11);}.cls-22{fill:url(#linear-gradient-12);}.cls-24{opacity:0.8;}.cls-25{fill:url(#linear-gradient-13);}.cls-26{mix-blend-mode:overlay;}.cls-27{fill:#f7e9ba;}.cls-28{fill:#f5eace;}.cls-29{fill:#d8c9b4;}</style><linearGradient id="linear-gradient" x1="41.59" y1="0.6" x2="-1.63" y2="29.68" gradientTransform="translate(2.39 25.96) rotate(-0.21)" gradientUnits="userSpaceOnUse"><stop offset="0" stop-color="#ef951c"/><stop offset="1" stop-color="#e46412"/></linearGradient><linearGradient id="linear-gradient-2" x1="45.51" y1="-16.91" x2="37.71" y2="42.83" xlink:href="#linear-gradient"/><linearGradient id="linear-gradient-3" x1="49.02" y1="-17.27" x2="39.69" y2="14.63" gradientTransform="translate(2.39 25.96) rotate(-0.21)" gradientUnits="userSpaceOnUse"><stop offset="0" stop-color="#ffc132"/><stop offset="1" stop-color="#f48120"/></linearGradient><linearGradient id="linear-gradient-4" x1="7.21" y1="-11.71" x2="19" y2="36.97" xlink:href="#linear-gradient-3"/><linearGradient id="linear-gradient-5" x1="100.21" y1="-16.15" x2="79.7" y2="30.53" xlink:href="#linear-gradient-3"/><linearGradient id="linear-gradient-6" x1="73.35" y1="-18.3" x2="78.56" y2="35.74" xlink:href="#linear-gradient-3"/><linearGradient id="linear-gradient-7" x1="57.11" y1="-32.8" x2="61.7" y2="46.08" xlink:href="#linear-gradient-3"/><linearGradient id="linear-gradient-8" x1="126.04" y1="286.64" x2="116.83" y2="370.71" gradientTransform="matrix(1, 0.04, -0.04, 1, -34.5, -304.2)" xlink:href="#linear-gradient-3"/><linearGradient id="linear-gradient-9" x1="27.22" y1="-1334.05" x2="20.06" y2="-1280.53" gradientTransform="translate(286.39 1329.98) rotate(-11.31)" gradientUnits="userSpaceOnUse"><stop offset="0" stop-color="#ffc132"/><stop offset="0.75" stop-color="#f48120"/></linearGradient><linearGradient id="linear-gradient-10" x1="26.62" y1="-11.6" x2="32.73" y2="46.11" xlink:href="#linear-gradient-3"/><linearGradient id="linear-gradient-11" x1="45.29" y1="5.09" x2="45.53" y2="42.92" gradientTransform="translate(2.39 25.96) rotate(-0.21)" gradientUnits="userSpaceOnUse"><stop offset="0" stop-color="#ffcb3e"/><stop offset="1" stop-color="#f6982f"/></linearGradient><linearGradient id="linear-gradient-12" x1="166.28" y1="873.84" x2="196.04" y2="911.17" gradientTransform="translate(-60.98 -853.52) rotate(6.94)" xlink:href="#linear-gradient-3"/><linearGradient id="linear-gradient-13" x1="19.94" y1="61.51" x2="85.01" y2="61.51" gradientTransform="translate(2.39 25.96) rotate(-0.21)" gradientUnits="userSpaceOnUse"><stop offset="0" stop-color="#d63c1e"/><stop offset="0.99" stop-color="#b3331b"/></linearGradient></defs><title>Asset 15</title><g class="cls-1"><g id="Layer_2" data-name="Layer 2"><g id="_30-Egg" data-name="30-Egg"><path class="cls-2" d="M12.23,56.45S3.64,28.11,3.4,26.15s7-3.2,7-3.2,9.78,24.91,9.78,23.93S35.62,26.52,35.62,26.52s1.36-20.45,4-20.8c1.94-.25,5.15,15.88,6.67,34l14.29.2L65.41,24s9.55-.34,8.73,2.17c-.24.73-5.41,46.25-5.41,46.25l-50.14.67Z"/><path class="cls-3" d="M20.53,59.17S19.06,3.22,20,2.3a5.7,5.7,0,0,1,4.41-.86c.73.37,8.74,20.81,9.78,57.5S20.53,59.17,20.53,59.17Z"/><path class="cls-4" d="M20,2.3c-.6.61-.16,25.37.21,42,.1-.05.25-.06.3-.18C26,30,24.38,1.44,24.38,1.44A5.7,5.7,0,0,0,20,2.3Z"/><path class="cls-5" d="M31.15,68.85S46,14.5,47.81,13.58c2.5-1.28,7.62.54,8.18,2.12.66,1.84-16.91,74.63-16.91,74.63S31.45,72,31.15,68.85Z"/><path class="cls-6" d="M47.64,13.76c-1.42,2.05-7,21.14-11.26,36.29l3.95,7c0-.55,10.89-39.37,10.89-39.37S48,15.8,47.64,13.76Z"/><path class="cls-7" d="M43.88,70.27c1.5-6.34,3.2-13.54,4.84-20.58l-.44-11.43-7.34-4.08c-3.82,13-8,28.28-9.36,33.11Z"/><path class="cls-8" d="M16.38,65.24S6.13,20.69,5.78,16.11c-.25-3.36,7.77-4.49,9-1.74.69,1.54,12,45.69,12.32,48.08S16.38,65.24,16.38,65.24Z"/><path class="cls-9" d="M75.57,60.15S89.74,18.81,90.83,17.52s6.78,1.26,6.79,2.17S87.24,63.57,87.24,63.57Z"/><path class="cls-10" d="M78.05,60.87l9.19,2.7S96.85,23.82,97.57,20c-2.31,2-4.16,2.3-4.89,2.11L87,39.33l-1.07-9c-2.45,6.89-5.34,15.18-7.44,21.26Z"/><path class="cls-11" d="M73.18,62.35s1.15-50.23,1.69-52.07,8.33-2.62,8.88-1.52S85.93,55.26,86,63.7,73.18,62.35,73.18,62.35Z"/><path class="cls-10" d="M82.31,58.27c-1.79-9.65-5.25-29-5.25-29l-2.43-1.57c0,13.14-1.11,34-1.11,34s4.64-.57,7.64,2.27c1.75-1.83,3,2.15,4.26.34C85.36,61.9,82.42,61.61,82.31,58.27Z"/><path class="cls-12" d="M53.6,57.77s6.12-50.17,7-52.56S68.41-1.1,69.56.29c.92,1.1-4.64,72.84-4.64,72.84Z"/><path class="cls-13" d="M58.52,62.33a8.57,8.57,0,0,0,.27,2.48l2.41,3.27a9.11,9.11,0,0,0,4,1.22c1.13-14.88,5.13-68.07,4.34-69,0,0-5.06,5.89-5.6,8.46S58.85,51.14,58.52,62.33Z"/><path class="cls-14" d="M60.33,66.9l.87,1.18a9.11,9.11,0,0,0,4,1.22c.35-4.62,1-12.93,1.65-22.22l-6.46,9.38C60.38,56.79,60.33,66.9,60.33,66.9Z"/><path class="cls-15" d="M72.6,68.83c1.87-9.07,8.35-48.66,5-49.58-5.21-1.42-13.12,38.61-16.33,46.66C64.87,67.13,68.81,67.8,72.6,68.83Z"/><path class="cls-16" d="M65.5,50.85c9.48-3.61,11-26.91,11.19-31.47C73.25,21.21,68.92,37.71,65.5,50.85Z"/><path class="cls-17" d="M52.45,72.4S44.19,35.59,44.9,33.85a7.8,7.8,0,0,1,3.88-3.63,6.69,6.69,0,0,1,5.41.85c1.27,1.07,6.68,27.38,8.05,32.95S52.45,72.4,52.45,72.4Z"/><path class="cls-13" d="M50.34,34.94c0,1,7.73,34.41,7.9,35.15,2.47-1.4,4.65-3.42,4-6.07-1.37-5.57-6.78-31.88-8.05-32.95C54.19,31.07,50.33,33.93,50.34,34.94Z"/><path class="cls-18" d="M62.24,64c-.36-1.45-1-4.29-1.74-7.72-1,.74-3,.53-3.91-1.76C56,53,52.08,39.06,52.43,36.86,52.6,35.8,54,34.4,55.1,33.37a7.45,7.45,0,0,0-.91-2.3s-3.86,2.86-3.85,3.87,7.73,34.41,7.9,35.15C60.71,68.69,62.89,66.67,62.24,64Z"/><path class="cls-19" d="M25.45,60.62S27.31,22.27,28,19.89s8.17-1.68,8.9-.95S43.7,51,40,70.66C36.15,91.34,25.45,60.62,25.45,60.62Z"/><path class="cls-13" d="M35.78,54.75c-1.48.37-3.13-3.35-4.05-5.79A65.15,65.15,0,0,1,30.54,62.8a19.86,19.86,0,0,1-.83,3c1.77.3,5.56,5,9.17,9.13A23.44,23.44,0,0,0,40,70.66c2.37-12.71.7-30.23-1-41.27h0C39.26,39.26,38.45,54.09,35.78,54.75Z"/><path class="cls-16" d="M28.49,68.09a13,13,0,0,0,2.05-5.29C34.29,45,28,19.89,28,19.89c-.71,2.38-2.57,40.73-2.57,40.73S26.69,64.2,28.49,68.09Z"/><path class="cls-20" d="M41.34,85.46s2.31-39.77,6.57-42.66,7.17,36.82,7.17,36.82S45.9,86.59,41.34,85.46Z"/><path class="cls-21" d="M31.73,51.12a135.9,135.9,0,0,0-3-28.07h0S30.68,43.44,31.73,51.12Z"/><path class="cls-13" d="M16.2,61.59a45.92,45.92,0,0,0,10.86,1.19.74.74,0,0,0,0-.33c-.37-2.34-11.16-44.67-12.26-47.92h0c-.53,2-1.54,4.78-3.13,5.22-2,.57-4.81-2.54-5.92-3.89a2.09,2.09,0,0,0,0,.25c.29,3.81,7.42,35.23,9.82,45.73Z"/><path class="cls-13" d="M14.83,14.53c-.53,2-1.54,4.78-3.13,5.22a1.45,1.45,0,0,1-.3.06c.61,3.13,4.87,21.06,3.8,21.46-.74.28-3.22-2.11-5.16-4.14C11,41.47,12,46,12.92,50c.13.52.26,1,.4,1.55.48,1.79.85,3.61,1.18,5.45l1.88,8.21s11.08-.41,10.71-2.79c-.33-2.09-9-36.27-11.62-45.72A10.17,10.17,0,0,1,14.83,14.53Z"/><path class="cls-13" d="M27.09,62.45c-.12-.74-.84-3.56-2.42-9.84l-6.05,0L13,46.52,16.61,64.1s5.41-.26,9.2-.31C26.65,63.43,27.17,63,27.09,62.45Z"/><path class="cls-22" d="M12.43,68.36S-1.07,33.9.07,32,15.35,45,31.91,80.64Z"/><path class="cls-21" d="M11.4,19.81a1.33,1.33,0,0,0,.3-.06c1.29-.36,2.2-2.23,2.78-4-.64,1-2,2.92-3,3.28-1.14.42-4.72-2.29-5.59-3C7.08,17.42,9.51,20,11.4,19.81Z"/><path class="cls-21" d="M45.52,34.22c.17-.62,3.82,0,3.73.63S45.34,34.87,45.52,34.22Z"/><path class="cls-21" d="M83.77,8.82s0-.05,0-.06c-.53-1.07-7.84-.36-8.8,1.35A5,5,0,0,0,77.67,13C79.53,13.6,83,10.25,83.77,8.82Z"/><path class="cls-23" d="M77.67,13a4.72,4.72,0,0,1-2.5-2.36c.17.47,1.14,2.85,3,3,2.11.14,5.28-3.77,5.41-4.51C82.61,10.57,79.44,13.57,77.67,13Z"/><path class="cls-21" d="M92.54,22c.59.27,2.54.11,5-2.06a2.43,2.43,0,0,0,.05-.29c0-.91-5.71-3.46-6.79-2.17C90.83,17.52,91.2,21.43,92.54,22Z"/><path class="cls-10" d="M97.61,19.79v0Z"/><path class="cls-10" d="M97.57,20l0-.15Z"/><path class="cls-24" d="M64,8.75c-.35,1.67-2.4,19.07-3.89,34.12A215.19,215.19,0,0,0,64,8.75Z"/><path class="cls-16" d="M.46,35C1.83,40.29,6,51.54,8.8,59.06,12.6,45.25,4.79,37.86.46,35Z"/><path class="cls-13" d="M29.5,57.17s13.49,16.3,36,3.34c0,0,3.89,16.09,3,16s-41.71-2.86-41.71-2.86Z"/><path class="cls-25" d="M8,57.38l10.06,60,60.46,0,10.3-60-21.54,0S61.64,69.48,48.07,69.53C33,69.58,29.32,57.27,29.32,57.27Z"/><g class="cls-26"><polygon class="cls-27" points="27.34 57.28 25.41 57.29 30.7 117.32 32.64 117.32 27.34 57.28"/><path class="cls-27" d="M37.44,67a19.94,19.94,0,0,1-2-1.3L37,117.32h1.94Z"/><path class="cls-27" d="M71.5,57.34c-.64,6.56-1.71,17.53-2.75,28.44-1.78,18.59-2.58,27.34-2.92,31.52h1.93c.9-10.6,3.93-42,5.68-60Z"/><polygon class="cls-27" points="22.84 117.33 24.79 117.33 16.61 57.34 14.66 57.35 22.84 117.33"/><path class="cls-27" d="M45.5,69.41c-.67-.07-1.32-.16-1.94-.27l1.15,48.17h1.93Z"/><path class="cls-27" d="M82.33,57.32H80.39c-1.93,15.24-5.9,47.52-7.43,60h2C77.17,98.87,80.63,70.81,82.33,57.32Z"/><path class="cls-27" d="M52.11,117.31H54l.85-48.93A19,19,0,0,1,53,69Z"/><path class="cls-27" d="M63.6,62.55a25,25,0,0,1-2,1.94L59.68,117.3h1.93Z"/></g><path class="cls-28" d="M28.33,58.36s4,12.18,19.1,12.12S67.26,57.35,67.26,57.35s-5.88,11.9-19.44,11.94C32.71,69.35,29.5,57.17,29.5,57.17L8,57.38A136.24,136.24,0,0,0,28.33,58.36Z"/><path class="cls-29" d="M67.23,111c-5.06,3.91-19.16,5.87-25.72,6.27l37,0,10.3-60-10.49,0C75.37,88.54,72.36,107.1,67.23,111Z"/></g></g></g></svg>