<svg xmlns="http://www.w3.org/2000/svg" viewBox="0 0 122.2 90.15"><defs><style>.cls-1{fill:#fff;}.cls-2{fill:#c8dcfc;}</style></defs><title>Asset 18</title><g id="Layer_2" data-name="Layer 2"><g id="_30-Egg" data-name="30-Egg"><path class="cls-1" d="M35.58,88.37c1,.07,2,.11,3,.11,15.62,0,29.44-8.79,42.8-17.3,12.6-8,24.49-15.58,37.47-16l.45,0,0-.44a30.84,30.84,0,0,1,.46-3.28,26.75,26.75,0,0,0,.51-4.59,21.65,21.65,0,0,0-.75-4.92,23.52,23.52,0,0,1-.82-5.49c0-2.06.14-4.39.27-6.65s.28-4.57.28-6.6a19.81,19.81,0,0,0-.9-4.93,21,21,0,0,1-.92-5.16,26.17,26.17,0,0,1,1-6.18,31.92,31.92,0,0,0,.78-4l.07-.58-.59,0c-12.37.56-23.49,8.68-35.26,17.27C75,25.81,66.29,32.19,56.65,36.14a43.22,43.22,0,0,1-4.24,1.56,48.76,48.76,0,0,1-15.22,2.47c-.56,0-1.13,0-1.69,0-9.24,0-17.92-2-24.47-5.59a23.34,23.34,0,0,1-7.95-6.74l-.91-1.3V70.33c0,9.94,15,18,33.33,18Z"/><polygon class="cls-1" points="70.03 22.39 69.97 28.52 63.71 31.22 70.03 22.39"/><ellipse class="cls-1" cx="34.81" cy="20.04" rx="33.67" ry="18.79"/><ellipse class="cls-2" cx="35.52" cy="20.35" rx="9.95" ry="5.55"/><path d="M35.33,40.3c-9.31,0-18.08-2-24.7-5.65C3.78,30.87,0,25.76,0,20.26S3.78,9.66,10.63,5.88C17.25,2.23,26,.22,35.33.22S53.42,2.23,60,5.88c6.85,3.78,10.63,8.89,10.63,14.38S66.89,30.87,60,34.65C53.42,38.29,44.64,40.3,35.33,40.3Zm0-37.57c-18.1,0-32.82,7.87-32.82,17.53S17.23,37.79,35.33,37.79s32.83-7.86,32.83-17.53S53.43,2.73,35.33,2.73Z"/><path d="M58.5,21a.75.75,0,0,1-.75-.76A7.22,7.22,0,0,0,56.29,16a.75.75,0,1,1,1.23-.87,8.71,8.71,0,0,1,1.73,5.1A.75.75,0,0,1,58.5,21Zm-45.93-2.4a.67.67,0,0,1-.24,0,.74.74,0,0,1-.47-1,11.07,11.07,0,0,1,3-4.4.75.75,0,1,1,1,1.1,9.57,9.57,0,0,0-2.61,3.79A.74.74,0,0,1,12.57,18.62Zm40.7-5.69a.72.72,0,0,1-.42-.13,22.33,22.33,0,0,0-4.31-2.22.76.76,0,0,1-.42-1,.75.75,0,0,1,1-.42,23.29,23.29,0,0,1,4.59,2.38.74.74,0,0,1,.2,1A.73.73,0,0,1,53.27,12.93ZM19.5,11.69a.76.76,0,0,1-.67-.41.75.75,0,0,1,.33-1,28.37,28.37,0,0,1,4.78-1.92.76.76,0,0,1,.94.51.75.75,0,0,1-.5.93,26.58,26.58,0,0,0-4.53,1.82A.85.85,0,0,1,19.5,11.69ZM44,9.17h-.16A37.78,37.78,0,0,0,39,8.41a.75.75,0,0,1,.14-1.5,37.2,37.2,0,0,1,5,.78A.75.75,0,0,1,44,9.17Zm-15-.45a.75.75,0,0,1-.12-1.5A42.59,42.59,0,0,1,34,6.76a.75.75,0,1,1,0,1.5,41.66,41.66,0,0,0-4.91.45Z"/><path d="M35.33,27.13c-6.41,0-11.43-3-11.43-6.87s5-6.86,11.43-6.86,11.43,3,11.43,6.86S41.74,27.13,35.33,27.13Zm0-11.22c-5.25,0-8.92,2.29-8.92,4.35s3.67,4.36,8.92,4.36,8.92-2.3,8.92-4.36S40.59,15.91,35.33,15.91Z"/><path d="M35.33,90c-9.31,0-18.08-2-24.7-5.66C3.78,80.59,0,75.49,0,70V20.26a1.26,1.26,0,0,1,2.51,0V70c0,9.67,14.72,17.53,32.82,17.53a1.26,1.26,0,1,1,0,2.51Z"/><path d="M38.49,90.15c-1.07,0-2.16,0-3.25-.12a1.26,1.26,0,0,1,.19-2.51C52.15,88.77,66.81,79.44,81,70.42c12.64-8.05,24.6-15.66,37.72-16.1.09-1.15.28-2.25.47-3.33a26,26,0,0,0,.51-4.5,20.82,20.82,0,0,0-.75-4.8,24.39,24.39,0,0,1-.83-5.61c0-2.07.14-4.42.28-6.69s.27-4.55.27-6.56a19.53,19.53,0,0,0-.87-4.8,21.25,21.25,0,0,1-.94-5.29,26.43,26.43,0,0,1,1-6.3,31.19,31.19,0,0,0,.77-3.9c-12.22.55-23.29,8.64-35,17.18C69.27,30.18,54.46,41,35.29,40.3a1.26,1.26,0,0,1,.09-2.51c18.29.66,32.76-9.89,46.74-20.1C94.58,8.59,106.35,0,119.92,0a1.25,1.25,0,0,1,1.25,1.25A24.64,24.64,0,0,1,120.26,7a25,25,0,0,0-.9,5.72,19,19,0,0,0,.85,4.64,21.29,21.29,0,0,1,1,5.45c0,2.09-.14,4.44-.28,6.71s-.27,4.54-.27,6.54a21.82,21.82,0,0,0,.77,5,23.35,23.35,0,0,1,.81,5.37,27.73,27.73,0,0,1-.55,4.93,24.57,24.57,0,0,0-.48,4.13,1.25,1.25,0,0,1-1.25,1.26c-12.87,0-24.87,7.64-37.58,15.73C68.72,81.2,54.66,90.15,38.49,90.15Z"/><path d="M69.93,28.46a.75.75,0,0,1-.75-.75V20.13a.76.76,0,0,1,1.51,0v7.58A.75.75,0,0,1,69.93,28.46Z"/><path d="M82.06,68.43a.75.75,0,0,1-.76-.75v-5a.76.76,0,1,1,1.51,0v5A.75.75,0,0,1,82.06,68.43Zm0-10a.76.76,0,0,1-.76-.75v-5a.76.76,0,1,1,1.51,0v5A.76.76,0,0,1,82.06,58.43Zm0-10a.76.76,0,0,1-.76-.75v-5a.76.76,0,1,1,1.51,0v5A.76.76,0,0,1,82.06,48.39Zm0-10a.76.76,0,0,1-.76-.75v-5a.76.76,0,1,1,1.51,0v5A.76.76,0,0,1,82.06,38.35Zm0-10a.76.76,0,0,1-.76-.75v-5a.76.76,0,1,1,1.51,0v5A.76.76,0,0,1,82.06,28.31Z"/><path d="M26,84.46a.75.75,0,0,1-.75-.75v-.44a.76.76,0,0,1,1.51,0v.44A.75.75,0,0,1,26,84.46ZM26,79a.75.75,0,0,1-.75-.75v-5a.76.76,0,0,1,1.51,0v5A.75.75,0,0,1,26,79Zm0-10a.75.75,0,0,1-.75-.75v-5a.76.76,0,0,1,1.51,0v5A.75.75,0,0,1,26,69Zm0-10a.75.75,0,0,1-.75-.75v-5a.76.76,0,0,1,1.51,0v5A.75.75,0,0,1,26,58.92Zm0-10a.76.76,0,0,1-.75-.76v-5a.76.76,0,0,1,1.51,0v5A.76.76,0,0,1,26,48.89Z"/></g></g></svg>