<svg xmlns="http://www.w3.org/2000/svg" viewBox="0 0 56.2 109.15"><defs><style>.cls-1{isolation:isolate;}.cls-2{fill:#ede3d7;}.cls-3{fill:#e7d8cb;}.cls-12,.cls-3{opacity:0.5;}.cls-3,.cls-6,.cls-8{mix-blend-mode:multiply;}.cls-4{fill:#f5f0e3;}.cls-5{fill:#fffffa;}.cls-6{fill:#ab9c8b;opacity:0.3;}.cls-7{fill:#7eb8de;}.cls-8{fill:#b2d3ea;opacity:0.6;}.cls-9{fill:#a7e1fa;}.cls-10,.cls-12{fill:#fff;mix-blend-mode:overlay;}.cls-10{opacity:0.7;}.cls-11{fill:#84c6eb;}</style></defs><title>Asset 13</title><g class="cls-1"><g id="Layer_2" data-name="Layer 2"><g id="_30-Egg" data-name="30-Egg"><path class="cls-2" d="M.74,38.86C1.22,32,13.52,17.61,13.52,17.61l28.33-.43S52.39,27.72,54.76,39.57c1,5,2.2,38.05.8,60.06C54.78,112,1.41,112,.8,101.42-.55,78,.07,48.65.74,38.86Z"/><path class="cls-3" d="M4.18,37.78A73.66,73.66,0,0,1,17.11,17.2L39,17.09S49.24,29.22,51.17,38.34Z"/><path class="cls-4" d="M51.17,38.34c-15.22,9.36-41.1,6.51-47.1.07-.73,4.54.48,61.06.48,61.06,5.53,7.5,44.92,6.17,48.18-1.19C55.39,92.31,53,48.44,51.17,38.34Z"/><path class="cls-5" d="M4.07,38.41c0-3.69,11.69-6,23-6.15,11.69-.17,23.73,2.9,24.09,6.08s-10.46,6.6-23.45,6.6C15.68,44.94,4.07,42.8,4.07,38.41Z"/><path class="cls-6" d="M54.76,39.57C52.39,27.72,41.85,17.18,41.85,17.18l-25.71.39c-.12.19-.24.38-.34.57,0,0,2.54,2.77,21.66,2.77,0,0,9.89,8.33,11,31,0,.76.07,1.56.11,2.38-3.28-4.82-7-8.54-10.16-8.45-10.49.3-9,22.49-9,22.49C19.93,69.88.48,75.21,0,75.26.09,84,.32,93.08.8,101.42c.61,10.59,54,10.57,54.76-1.79C57,77.62,55.77,44.62,54.76,39.57Z"/><path class="cls-7" d="M13.52,17.61l-.28-3.89s28.08-1.09,28.35-.27a20.42,20.42,0,0,1,.26,3.73C39.76,18.79,25.24,20.81,13.52,17.61Z"/><path class="cls-8" d="M30.28,13.22l-.24.12.1,5.92C36.05,19,40.73,18,41.85,17.18a20.42,20.42,0,0,0-.26-3.73C41.48,13.1,36.23,13.1,30.28,13.22Z"/><path class="cls-9" d="M12.12,13.46c-.59-.55.06-9.57,1-10.92C14.3.9,20.48,0,26.55,0c7.42,0,12.6,1,14,2.1,1,.78,2.62,10.78,2,11.21C37.53,17.07,14.74,15.93,12.12,13.46Z"/><path class="cls-10" d="M15.87,2.79c.25-.68,5.44-1.62,10.79-1.66,5.53,0,11.23.82,11.39,1.72S33.11,4.71,27,4.71C21.27,4.71,15.43,4,15.87,2.79Z"/><path class="cls-11" d="M15.19,6.41c-.6-.08-1.45,5.7-1.72,7.74a15.18,15.18,0,0,0,2.28.59C15.77,12.26,15.76,6.48,15.19,6.41Z"/><path class="cls-11" d="M21,7.23c-.8.22-1.43,5.87-1.64,8,.66.08,1.36.14,2.07.2C21.56,13,21.79,7,21,7.23Z"/><path class="cls-11" d="M27.94,15.74c0-2.63,0-8.31-1-8.24s-1.4,5.64-1.5,8.2C26.25,15.72,27.1,15.74,27.94,15.74Z"/><path class="cls-11" d="M32.73,7.41c-.94.5-.73,6-.61,8.22l1.94-.14C34,13,33.67,6.9,32.73,7.41Z"/><path class="cls-11" d="M38.09,6.59c-.81.51-.49,6.21-.34,8.41.62-.12,1.21-.24,1.75-.39C39.38,12.45,38.92,6.06,38.09,6.59Z"/><path class="cls-12" d="M9,36.64c1.13-4,6.52-13.16,8.88-13.7,3.3-.75,5.25,5.7,5.33,12.66s.9,27.66-1.35,29S9.06,68.88,8.38,67.08,7.74,41.23,9,36.64Z"/></g></g></g></svg>